Kelblop-Regular.ufo
<glyph name="exclam" format="2">
  <advance width="284"/>
  <unicode hex="0021"/>
  <outline>
    <contour>
      <point x="129" y="-29" type="curve" smooth="yes"/>
      <point x="183" y="-29"/>
      <point x="228" y="11"/>
      <point x="228" y="60" type="curve" smooth="yes"/>
      <point x="228" y="109"/>
      <point x="183" y="149"/>
      <point x="129" y="149" type="curve" smooth="yes"/>
      <point x="74" y="149"/>
      <point x="30" y="109"/>
      <point x="30" y="60" type="curve" smooth="yes"/>
      <point x="30" y="11"/>
      <point x="74" y="-29"/>
    </contour>
    <contour>
      <point x="205" y="256" type="curve"/>
      <point x="205" y="256"/>
      <point x="240" y="524"/>
      <point x="236" y="701" type="curve"/>
      <point x="172" y="710"/>
      <point x="106" y="708"/>
      <point x="43" y="693" type="curve"/>
      <point x="72" y="245" type="line"/>
      <point x="117" y="240"/>
      <point x="162" y="244"/>
    </contour>
  </outline>
</glyph>
<glyph name="numbersign" format="2">
  <advance width="546"/>
  <unicode hex="0023"/>
  <outline>
    <contour>
      <point x="511" y="363" type="curve"/>
      <point x="511" y="509" type="line"/>
      <point x="511" y="509"/>
      <point x="488" y="512"/>
      <point x="449" y="515" type="curve"/>
      <point x="449" y="657" type="line"/>
      <point x="320" y="657" type="line"/>
      <point x="317" y="521" type="line"/>
      <point x="292" y="522"/>
      <point x="264" y="522"/>
      <point x="235" y="522" type="curve"/>
      <point x="235" y="657" type="line"/>
      <point x="109" y="641" type="line"/>
      <point x="107" y="516" type="line"/>
      <point x="82" y="514"/>
      <point x="57" y="512"/>
      <point x="32" y="509" type="curve"/>
      <point x="38" y="355" type="line"/>
      <point x="38" y="355"/>
      <point x="64" y="357"/>
      <point x="104" y="360" type="curve"/>
      <point x="101" y="256" type="line"/>
      <point x="84" y="257"/>
      <point x="65" y="258"/>
      <point x="46" y="259" type="curve"/>
      <point x="58" y="137" type="line"/>
      <point x="58" y="137"/>
      <point x="73" y="136"/>
      <point x="99" y="134" type="curve"/>
      <point x="96" y="16" type="line"/>
      <point x="235" y="9" type="line"/>
      <point x="235" y="130" type="line"/>
      <point x="259" y="130"/>
      <point x="283" y="130"/>
      <point x="309" y="130" type="curve"/>
      <point x="307" y="9" type="line"/>
      <point x="449" y="26" type="line"/>
      <point x="449" y="135" type="line"/>
      <point x="469" y="136"/>
      <point x="490" y="138"/>
      <point x="511" y="140" type="curve"/>
      <point x="504" y="277" type="line"/>
      <point x="504" y="277"/>
      <point x="485" y="273"/>
      <point x="449" y="269" type="curve"/>
      <point x="449" y="369" type="line"/>
      <point x="470" y="368"/>
      <point x="490" y="366"/>
    </contour>
    <contour>
      <point x="312" y="257" type="line"/>
      <point x="289" y="256"/>
      <point x="263" y="255"/>
      <point x="235" y="255" type="curve"/>
      <point x="235" y="367" type="line"/>
      <point x="261" y="368"/>
      <point x="288" y="369"/>
      <point x="314" y="370" type="curve"/>
    </contour>
  </outline>
</glyph>
<glyph name="dollar" format="2">
  <advance width="646"/>
  <unicode hex="0024"/>
  <outline>
    <contour>
      <point x="584" y="315" type="curve" smooth="yes"/>
      <point x="523" y="384"/>
      <point x="453" y="383"/>
      <point x="363" y="405" type="curve" smooth="yes"/>
      <point x="273" y="428"/>
      <point x="266" y="448"/>
      <point x="267" y="477" type="curve" smooth="yes"/>
      <point x="268" y="507"/>
      <point x="273" y="566"/>
      <point x="563" y="531" type="curve"/>
      <point x="542" y="696" type="line"/>
      <point x="493" y="702"/>
      <point x="443" y="704"/>
      <point x="393" y="703" type="curve"/>
      <point x="397" y="805" type="line"/>
      <point x="254" y="794" type="line"/>
      <point x="258" y="691" type="line"/>
      <point x="140" y="669"/>
      <point x="31" y="613"/>
      <point x="32" y="480" type="curve" smooth="yes"/>
      <point x="33" y="345"/>
      <point x="141" y="308"/>
      <point x="223" y="290" type="curve" smooth="yes"/>
      <point x="355" y="261"/>
      <point x="372" y="241"/>
      <point x="370" y="206" type="curve" smooth="yes"/>
      <point x="367" y="156"/>
      <point x="288" y="127"/>
      <point x="59" y="157" type="curve"/>
      <point x="56" y="-8" type="line"/>
      <point x="122" y="-23"/>
      <point x="190" y="-30"/>
      <point x="257" y="-31" type="curve"/>
      <point x="254" y="-117" type="line"/>
      <point x="397" y="-107" type="line"/>
      <point x="393" y="-19" type="line"/>
      <point x="418" y="-13"/>
      <point x="442" y="-6"/>
      <point x="465" y="4" type="curve" smooth="yes"/>
      <point x="629" y="75"/>
      <point x="646" y="247"/>
    </contour>
  </outline>
</glyph>
<glyph name="percent" format="2">
  <advance width="828"/>
  <unicode hex="0025"/>
  <outline>
    <contour>
      <point x="369" y="505" type="curve" smooth="yes"/>
      <point x="369" y="605"/>
      <point x="291" y="686"/>
      <point x="195" y="686" type="curve" smooth="yes"/>
      <point x="99" y="686"/>
      <point x="21" y="605"/>
      <point x="21" y="505" type="curve" smooth="yes"/>
      <point x="21" y="405"/>
      <point x="99" y="324"/>
      <point x="195" y="324" type="curve" smooth="yes"/>
      <point x="291" y="324"/>
      <point x="369" y="405"/>
    </contour>
    <contour>
      <point x="146" y="505" type="curve" smooth="yes"/>
      <point x="146" y="540"/>
      <point x="168" y="568"/>
      <point x="195" y="568" type="curve" smooth="yes"/>
      <point x="222" y="568"/>
      <point x="244" y="540"/>
      <point x="244" y="505" type="curve" smooth="yes"/>
      <point x="244" y="471"/>
      <point x="222" y="443"/>
      <point x="195" y="443" type="curve" smooth="yes"/>
      <point x="168" y="443"/>
      <point x="146" y="471"/>
    </contour>
    <contour>
      <point x="633" y="363" type="curve" smooth="yes"/>
      <point x="537" y="363"/>
      <point x="459" y="283"/>
      <point x="459" y="186" type="curve" smooth="yes"/>
      <point x="459" y="88"/>
      <point x="537" y="9"/>
      <point x="633" y="9" type="curve" smooth="yes"/>
      <point x="729" y="9"/>
      <point x="807" y="88"/>
      <point x="807" y="186" type="curve" smooth="yes"/>
      <point x="807" y="283"/>
      <point x="729" y="363"/>
    </contour>
    <contour>
      <point x="633" y="125" type="curve" smooth="yes"/>
      <point x="606" y="125"/>
      <point x="584" y="152"/>
      <point x="584" y="186" type="curve" smooth="yes"/>
      <point x="584" y="220"/>
      <point x="606" y="247"/>
      <point x="633" y="247" type="curve" smooth="yes"/>
      <point x="660" y="247"/>
      <point x="682" y="220"/>
      <point x="682" y="186" type="curve" smooth="yes"/>
      <point x="682" y="152"/>
      <point x="660" y="125"/>
    </contour>
    <contour>
      <point x="526" y="698" type="line"/>
      <point x="159" y="9" type="line"/>
      <point x="309" y="-40" type="line"/>
      <point x="659" y="674" type="line"/>
    </contour>
  </outline>
</glyph>
<glyph name="ampersand" format="2">
  <advance width="685"/>
  <unicode hex="0026"/>
  <outline>
    <contour>
      <point x="596" y="385" type="line"/>
      <point x="600" y="484" type="line"/>
      <point x="600" y="484"/>
      <point x="560" y="511"/>
      <point x="448" y="493" type="curve"/>
      <point x="427" y="381" type="line"/>
      <point x="315" y="378" type="line"/>
      <point x="239" y="463" type="line"/>
      <point x="213" y="560"/>
      <point x="265" y="622"/>
      <point x="443" y="566" type="curve"/>
      <point x="462" y="707" type="line"/>
      <point x="462" y="707"/>
      <point x="159" y="771"/>
      <point x="88" y="620" type="curve" smooth="yes"/>
      <point x="17" y="469"/>
      <point x="136" y="368"/>
      <point x="136" y="368" type="curve"/>
      <point x="136" y="368"/>
      <point x="18" y="310"/>
      <point x="32" y="182" type="curve" smooth="yes"/>
      <point x="46" y="53"/>
      <point x="134" y="-15"/>
      <point x="336" y="-5" type="curve" smooth="yes"/>
      <point x="538" y="5"/>
      <point x="582" y="38"/>
      <point x="582" y="38" type="curve"/>
      <point x="591" y="250" type="line"/>
      <point x="659" y="239" type="line"/>
      <point x="659" y="385" type="line"/>
    </contour>
    <contour>
      <point x="396" y="138" type="line"/>
      <point x="396" y="138"/>
      <point x="239" y="97"/>
      <point x="235" y="200" type="curve" smooth="yes"/>
      <point x="231" y="303"/>
      <point x="400" y="270"/>
      <point x="400" y="270" type="curve"/>
    </contour>
  </outline>
</glyph>
<glyph name="quotesingle" format="2">
  <advance width="209"/>
  <unicode hex="0027"/>
  <outline>
    <contour>
      <point x="180" y="687" type="curve"/>
      <point x="118" y="707"/>
      <point x="30" y="683"/>
      <point x="30" y="683" type="curve"/>
      <point x="41" y="598"/>
      <point x="44" y="513"/>
      <point x="40" y="427" type="curve"/>
      <point x="135" y="417" type="line"/>
      <point x="183" y="565"/>
      <point x="180" y="687"/>
    </contour>
  </outline>
</glyph>
<glyph name="parenleft" format="2">
  <advance width="368"/>
  <unicode hex="0028"/>
  <outline>
    <contour>
      <point x="217" y="152" type="curve" smooth="yes"/>
      <point x="206" y="222"/>
      <point x="204" y="381"/>
      <point x="217" y="494" type="curve" smooth="yes"/>
      <point x="230" y="607"/>
      <point x="333" y="591"/>
      <point x="333" y="591" type="curve"/>
      <point x="345" y="705" type="line"/>
      <point x="345" y="705"/>
      <point x="34" y="778"/>
      <point x="34" y="345" type="curve" smooth="yes"/>
      <point x="34" y="-89"/>
      <point x="337" y="-15"/>
      <point x="337" y="-15" type="curve"/>
      <point x="330" y="86" type="line"/>
      <point x="330" y="86"/>
      <point x="229" y="82"/>
    </contour>
  </outline>
</glyph>
<glyph name="parenright" format="2">
  <advance width="367"/>
  <unicode hex="0029"/>
  <outline>
    <contour>
      <point x="29" y="705" type="curve"/>
      <point x="36" y="604" type="line"/>
      <point x="36" y="604"/>
      <point x="137" y="607"/>
      <point x="149" y="537" type="curve" smooth="yes"/>
      <point x="161" y="467"/>
      <point x="162" y="309"/>
      <point x="149" y="195" type="curve" smooth="yes"/>
      <point x="136" y="82"/>
      <point x="33" y="98"/>
      <point x="33" y="98" type="curve"/>
      <point x="21" y="-15" type="line"/>
      <point x="21" y="-15"/>
      <point x="332" y="-89"/>
      <point x="332" y="345" type="curve" smooth="yes"/>
      <point x="332" y="778"/>
      <point x="29" y="705"/>
    </contour>
  </outline>
</glyph>
<glyph name="asterisk" format="2">
  <advance width="426"/>
  <unicode hex="002A"/>
  <outline>
    <contour>
      <point x="398" y="595" type="line"/>
      <point x="330" y="660" type="line"/>
      <point x="270" y="604" type="line"/>
      <point x="270" y="710" type="line"/>
      <point x="173" y="699" type="line"/>
      <point x="173" y="593" type="line"/>
      <point x="96" y="666" type="line"/>
      <point x="26" y="603" type="line"/>
      <point x="117" y="498" type="line"/>
      <point x="37" y="403" type="line"/>
      <point x="104" y="343" type="line"/>
      <point x="160" y="402" type="line"/>
      <point x="160" y="310" type="line"/>
      <point x="261" y="307" type="line"/>
      <point x="259" y="408" type="line"/>
      <point x="331" y="343" type="line"/>
      <point x="398" y="402" type="line"/>
      <point x="294" y="505" type="line"/>
    </contour>
  </outline>
</glyph>
<glyph name="plus" format="2">
  <advance width="382"/>
  <unicode hex="002B"/>
  <outline>
    <contour>
      <point x="354" y="256" type="line"/>
      <point x="343" y="387" type="line"/>
      <point x="266" y="387" type="line"/>
      <point x="265" y="484" type="line"/>
      <point x="133" y="491" type="line"/>
      <point x="133" y="486"/>
      <point x="134" y="443"/>
      <point x="136" y="387" type="curve"/>
      <point x="29" y="387" type="line"/>
      <point x="29" y="244" type="line"/>
      <point x="141" y="248" type="line"/>
      <point x="144" y="183"/>
      <point x="146" y="129"/>
      <point x="146" y="129" type="curve"/>
      <point x="270" y="139" type="line"/>
      <point x="268" y="253" type="line"/>
    </contour>
  </outline>
</glyph>
<glyph name="comma" format="2">
  <advance width="248"/>
  <unicode hex="002C"/>
  <outline>
    <contour>
      <point x="221" y="75" type="curve"/>
      <point x="221" y="75"/>
      <point x="221" y="75"/>
      <point x="221" y="75" type="curve"/>
      <point x="221" y="125"/>
      <point x="178" y="164"/>
      <point x="124" y="164" type="curve" smooth="yes"/>
      <point x="70" y="164"/>
      <point x="26" y="125"/>
      <point x="26" y="75" type="curve" smooth="yes"/>
      <point x="26" y="40"/>
      <point x="49" y="9"/>
      <point x="83" y="-5" type="curve"/>
      <point x="62" y="-39"/>
      <point x="26" y="-91"/>
      <point x="26" y="-91" type="curve"/>
      <point x="35" y="-113"/>
      <point x="53" y="-130"/>
      <point x="76" y="-136" type="curve"/>
      <point x="156" y="-65"/>
      <point x="225" y="-4"/>
    </contour>
  </outline>
</glyph>
<glyph name="hyphenminus" format="2">
  <advance width="300"/>
  <unicode hex="002D"/>
  <outline>
    <contour>
      <point x="26" y="374" type="line"/>
      <point x="31" y="244" type="line"/>
      <point x="278" y="260" type="line"/>
      <point x="278" y="364" type="line"/>
    </contour>
  </outline>
</glyph>
<glyph name="period" format="2">
  <advance width="260"/>
  <unicode hex="002E"/>
  <outline>
    <contour>
      <point x="130" y="-14" type="curve" smooth="yes"/>
      <point x="187" y="-14"/>
      <point x="234" y="26"/>
      <point x="234" y="75" type="curve" smooth="yes"/>
      <point x="234" y="125"/>
      <point x="187" y="164"/>
      <point x="130" y="164" type="curve" smooth="yes"/>
      <point x="73" y="164"/>
      <point x="26" y="125"/>
      <point x="26" y="75" type="curve" smooth="yes"/>
      <point x="26" y="26"/>
      <point x="73" y="-14"/>
    </contour>
  </outline>
</glyph>
<glyph name="slash" format="2">
  <advance width="499"/>
  <unicode hex="002F"/>
  <outline>
    <contour>
      <point x="334" y="721" type="curve"/>
      <point x="50" y="-24" type="line"/>
      <point x="50" y="-24"/>
      <point x="142" y="-38"/>
      <point x="200" y="-33" type="curve"/>
      <point x="449" y="678" type="line"/>
      <point x="449" y="678"/>
      <point x="430" y="709"/>
    </contour>
  </outline>
</glyph>
<glyph name="zero" format="2">
  <advance width="671"/>
  <unicode hex="0030"/>
  <outline>
    <contour>
      <point x="335" y="704" type="curve" smooth="yes"/>
      <point x="167" y="704"/>
      <point x="31" y="555"/>
      <point x="31" y="346" type="curve" smooth="yes"/>
      <point x="31" y="137"/>
      <point x="167" y="-12"/>
      <point x="335" y="-12" type="curve" smooth="yes"/>
      <point x="503" y="-12"/>
      <point x="639" y="137"/>
      <point x="639" y="346" type="curve" smooth="yes"/>
      <point x="639" y="555"/>
      <point x="503" y="704"/>
    </contour>
    <contour>
      <point x="335" y="139" type="curve" smooth="yes"/>
      <point x="282" y="139"/>
      <point x="238" y="226"/>
      <point x="238" y="349" type="curve" smooth="yes"/>
      <point x="238" y="472"/>
      <point x="282" y="559"/>
      <point x="335" y="559" type="curve" smooth="yes"/>
      <point x="389" y="559"/>
      <point x="432" y="472"/>
      <point x="432" y="349" type="curve" smooth="yes"/>
      <point x="432" y="226"/>
      <point x="389" y="139"/>
    </contour>
  </outline>
</glyph>
<glyph name="one" format="2">
  <advance width="356"/>
  <unicode hex="0031"/>
  <outline>
    <contour>
      <point x="9" y="632" type="line"/>
      <point x="39" y="488" type="line"/>
      <point x="132" y="517" type="line"/>
      <point x="132" y="29" type="line"/>
      <point x="132" y="29"/>
      <point x="229" y="14"/>
      <point x="308" y="18" type="curve"/>
      <point x="318" y="658" type="line"/>
      <point x="168" y="685" type="line"/>
    </contour>
  </outline>
</glyph>
<glyph name="two" format="2">
  <advance width="563"/>
  <unicode hex="0032"/>
  <outline>
    <contour>
      <point x="240" y="212" type="curve" smooth="yes"/>
      <point x="260" y="222"/>
      <point x="296" y="239"/>
      <point x="351" y="265" type="curve" smooth="yes"/>
      <point x="445" y="310"/>
      <point x="532" y="356"/>
      <point x="528" y="501" type="curve" smooth="yes"/>
      <point x="524" y="645"/>
      <point x="409" y="697"/>
      <point x="288" y="697" type="curve" smooth="yes"/>
      <point x="168" y="697"/>
      <point x="35" y="657"/>
      <point x="35" y="657" type="curve"/>
      <point x="61" y="469" type="line"/>
      <point x="61" y="469"/>
      <point x="195" y="540"/>
      <point x="258" y="540" type="curve" smooth="yes"/>
      <point x="320" y="540"/>
      <point x="338" y="509"/>
      <point x="338" y="485" type="curve" smooth="yes"/>
      <point x="338" y="460"/>
      <point x="328" y="434"/>
      <point x="289" y="409" type="curve" smooth="yes"/>
      <point x="228" y="371"/>
      <point x="53" y="280"/>
      <point x="53" y="280" type="curve"/>
      <point x="35" y="171"/>
      <point x="48" y="17"/>
      <point x="48" y="17" type="curve"/>
      <point x="187" y="-9"/>
      <point x="511" y="6"/>
      <point x="511" y="6" type="curve"/>
      <point x="517" y="60"/>
      <point x="517" y="115"/>
      <point x="508" y="168" type="curve"/>
      <point x="254" y="157" type="line" smooth="yes"/>
      <point x="240" y="156"/>
      <point x="228" y="165"/>
      <point x="225" y="178" type="curve"/>
      <point x="221" y="192"/>
      <point x="228" y="206"/>
    </contour>
  </outline>
</glyph>
<glyph name="three" format="2">
  <advance width="563"/>
  <unicode hex="0033"/>
  <outline>
    <contour>
      <point x="425" y="387" type="curve"/>
      <point x="425" y="387"/>
      <point x="528" y="438"/>
      <point x="511" y="560" type="curve" smooth="yes"/>
      <point x="494" y="682"/>
      <point x="402" y="752"/>
      <point x="40" y="685" type="curve"/>
      <point x="40" y="525" type="line"/>
      <point x="40" y="525"/>
      <point x="155" y="559"/>
      <point x="224" y="559" type="curve" smooth="yes"/>
      <point x="271" y="559"/>
      <point x="283" y="536"/>
      <point x="291" y="497" type="curve" smooth="yes"/>
      <point x="300" y="457"/>
      <point x="270" y="434"/>
      <point x="230" y="432" type="curve" smooth="yes"/>
      <point x="190" y="430"/>
      <point x="159" y="432"/>
      <point x="159" y="432" type="curve"/>
      <point x="153" y="286" type="line"/>
      <point x="153" y="286"/>
      <point x="300" y="323"/>
      <point x="316" y="245" type="curve" smooth="yes"/>
      <point x="333" y="168"/>
      <point x="230" y="136"/>
      <point x="173" y="136" type="curve" smooth="yes"/>
      <point x="131" y="137"/>
      <point x="89" y="140"/>
      <point x="48" y="145" type="curve"/>
      <point x="48" y="145"/>
      <point x="25" y="53"/>
      <point x="31" y="-17" type="curve"/>
      <point x="31" y="-17"/>
      <point x="105" y="-25"/>
      <point x="261" y="-25" type="curve" smooth="yes"/>
      <point x="417" y="-25"/>
      <point x="529" y="43"/>
      <point x="529" y="204" type="curve" smooth="yes"/>
      <point x="529" y="365"/>
      <point x="425" y="387"/>
    </contour>
  </outline>
</glyph>
<glyph name="four" format="2">
  <advance width="626"/>
  <unicode hex="0034"/>
  <outline>
    <contour>
      <point x="603" y="331" type="line"/>
      <point x="522" y="319" type="line"/>
      <point x="516" y="691" type="line"/>
      <point x="516" y="691"/>
      <point x="426" y="702"/>
      <point x="338" y="672" type="curve"/>
      <point x="343" y="325" type="line"/>
      <point x="194" y="311" type="line"/>
      <point x="289" y="656" type="line"/>
      <point x="289" y="656"/>
      <point x="226" y="687"/>
      <point x="101" y="698" type="curve"/>
      <point x="101" y="698"/>
      <point x="49" y="494"/>
      <point x="14" y="291" type="curve"/>
      <point x="37" y="145" type="line"/>
      <point x="37" y="145"/>
      <point x="257" y="153"/>
      <point x="335" y="155" type="curve" smooth="yes"/>
      <point x="337" y="155" type="line"/>
      <point x="325" y="2" type="line"/>
      <point x="325" y="2"/>
      <point x="449" y="-17"/>
      <point x="531" y="-1" type="curve"/>
      <point x="522" y="156" type="line"/>
      <point x="609" y="164" type="line"/>
    </contour>
  </outline>
</glyph>
<glyph name="five" format="2">
  <advance width="578"/>
  <unicode hex="0035"/>
  <outline>
    <contour>
      <point x="85" y="651" type="curve"/>
      <point x="85" y="651"/>
      <point x="50" y="459"/>
      <point x="57" y="305" type="curve"/>
      <point x="57" y="305"/>
      <point x="313" y="311"/>
      <point x="325" y="219" type="curve" smooth="yes"/>
      <point x="337" y="126"/>
      <point x="178" y="144"/>
      <point x="41" y="186" type="curve"/>
      <point x="41" y="186"/>
      <point x="23" y="89"/>
      <point x="45" y="-11" type="curve"/>
      <point x="45" y="-11"/>
      <point x="180" y="-34"/>
      <point x="302" y="-28" type="curve" smooth="yes"/>
      <point x="424" y="-22"/>
      <point x="539" y="52"/>
      <point x="541" y="214" type="curve" smooth="yes"/>
      <point x="543" y="377"/>
      <point x="429" y="426"/>
      <point x="258" y="422" type="curve"/>
      <point x="272" y="522" type="line"/>
      <point x="541" y="513" type="line"/>
      <point x="541" y="513"/>
      <point x="546" y="602"/>
      <point x="536" y="682" type="curve"/>
      <point x="536" y="682"/>
      <point x="280" y="702"/>
    </contour>
  </outline>
</glyph>
<glyph name="six" format="2">
  <advance width="618"/>
  <unicode hex="0036"/>
  <outline>
    <contour>
      <point x="248" y="429" type="curve"/>
      <point x="248" y="429"/>
      <point x="215" y="544"/>
      <point x="350" y="544" type="curve" smooth="yes"/>
      <point x="486" y="544"/>
      <point x="540" y="521"/>
      <point x="540" y="521" type="curve"/>
      <point x="540" y="691" type="line"/>
      <point x="540" y="691"/>
      <point x="478" y="702"/>
      <point x="310" y="702" type="curve" smooth="yes"/>
      <point x="143" y="702"/>
      <point x="34" y="637"/>
      <point x="34" y="354" type="curve" smooth="yes"/>
      <point x="34" y="70"/>
      <point x="128" y="-2"/>
      <point x="295" y="-2" type="curve" smooth="yes"/>
      <point x="461" y="-2"/>
      <point x="577" y="44"/>
      <point x="585" y="231" type="curve" smooth="yes"/>
      <point x="593" y="418"/>
      <point x="461" y="469"/>
    </contour>
    <contour>
      <point x="246" y="152" type="curve"/>
      <point x="234" y="245"/>
      <point x="248" y="286"/>
      <point x="248" y="286" type="curve"/>
      <point x="248" y="286"/>
      <point x="404" y="321"/>
      <point x="404" y="230" type="curve" smooth="yes"/>
      <point x="403" y="139"/>
      <point x="246" y="152"/>
    </contour>
  </outline>
</glyph>
<glyph name="seven" format="2">
  <advance width="543"/>
  <unicode hex="0037"/>
  <outline>
    <contour>
      <point x="7" y="700" type="curve"/>
      <point x="0" y="611"/>
      <point x="14" y="459"/>
      <point x="14" y="459" type="curve"/>
      <point x="115" y="426"/>
      <point x="162" y="446"/>
      <point x="162" y="446" type="curve"/>
      <point x="162" y="537" type="line"/>
      <point x="305" y="550" type="line"/>
      <point x="68" y="7" type="line"/>
      <point x="196" y="-18"/>
      <point x="280" y="-2"/>
      <point x="280" y="-2" type="curve"/>
      <point x="521" y="522" type="line"/>
      <point x="493" y="686" type="line"/>
      <point x="385" y="723"/>
      <point x="7" y="700"/>
    </contour>
  </outline>
</glyph>
<glyph name="eight" format="2">
  <advance width="634"/>
  <unicode hex="0038"/>
  <outline>
    <contour>
      <point x="494" y="379" type="curve"/>
      <point x="551" y="399"/>
      <point x="592" y="449"/>
      <point x="592" y="533" type="curve" smooth="yes"/>
      <point x="592" y="616"/>
      <point x="532" y="712"/>
      <point x="338" y="712" type="curve" smooth="yes"/>
      <point x="144" y="712"/>
      <point x="42" y="652"/>
      <point x="42" y="527" type="curve" smooth="yes"/>
      <point x="42" y="402"/>
      <point x="133" y="354"/>
      <point x="133" y="354" type="curve"/>
      <point x="133" y="354"/>
      <point x="34" y="316"/>
      <point x="34" y="188" type="curve" smooth="yes"/>
      <point x="34" y="10"/>
      <point x="211" y="-9"/>
      <point x="315" y="-9" type="curve" smooth="yes"/>
      <point x="420" y="-9"/>
      <point x="589" y="3"/>
      <point x="598" y="171" type="curve" smooth="yes"/>
      <point x="606" y="339"/>
      <point x="494" y="379"/>
    </contour>
    <contour>
      <point x="312" y="572" type="curve" smooth="yes"/>
      <point x="352" y="572"/>
      <point x="384" y="538"/>
      <point x="384" y="497" type="curve" smooth="yes"/>
      <point x="384" y="456"/>
      <point x="352" y="423"/>
      <point x="312" y="423" type="curve" smooth="yes"/>
      <point x="272" y="423"/>
      <point x="240" y="456"/>
      <point x="240" y="497" type="curve" smooth="yes"/>
      <point x="240" y="538"/>
      <point x="272" y="572"/>
    </contour>
    <contour>
      <point x="312" y="130" type="curve" smooth="yes"/>
      <point x="278" y="130"/>
      <point x="248" y="151"/>
      <point x="235" y="182" type="curve" smooth="yes"/>
      <point x="222" y="214"/>
      <point x="229" y="250"/>
      <point x="253" y="274" type="curve" smooth="yes"/>
      <point x="277" y="298"/>
      <point x="313" y="305"/>
      <point x="344" y="292" type="curve" smooth="yes"/>
      <point x="376" y="279"/>
      <point x="396" y="248"/>
      <point x="396" y="214" type="curve" smooth="yes"/>
      <point x="396" y="192"/>
      <point x="388" y="171"/>
      <point x="372" y="155" type="curve" smooth="yes"/>
      <point x="356" y="139"/>
      <point x="335" y="130"/>
    </contour>
  </outline>
</glyph>
<glyph name="nine" format="2">
  <advance width="619"/>
  <unicode hex="0039"/>
  <outline>
    <contour>
      <point x="323" y="702" type="curve" smooth="yes"/>
      <point x="157" y="702"/>
      <point x="41" y="655"/>
      <point x="32" y="463" type="curve" smooth="yes"/>
      <point x="24" y="272"/>
      <point x="156" y="220"/>
      <point x="370" y="261" type="curve"/>
      <point x="370" y="261"/>
      <point x="402" y="143"/>
      <point x="267" y="143" type="curve" smooth="yes"/>
      <point x="132" y="143"/>
      <point x="77" y="167"/>
      <point x="77" y="167" type="curve"/>
      <point x="77" y="-7" type="line"/>
      <point x="77" y="-7"/>
      <point x="140" y="-19"/>
      <point x="307" y="-19" type="curve" smooth="yes"/>
      <point x="475" y="-19"/>
      <point x="583" y="48"/>
      <point x="583" y="338" type="curve" smooth="yes"/>
      <point x="583" y="628"/>
      <point x="489" y="702"/>
    </contour>
    <contour>
      <point x="370" y="407" type="curve"/>
      <point x="370" y="407"/>
      <point x="214" y="372"/>
      <point x="214" y="465" type="curve" smooth="yes"/>
      <point x="214" y="558"/>
      <point x="372" y="544"/>
      <point x="372" y="544" type="curve"/>
      <point x="383" y="450"/>
      <point x="370" y="407"/>
    </contour>
  </outline>
</glyph>
<glyph name="colon" format="2">
  <advance width="260"/>
  <unicode hex="003A"/>
  <outline>
    <contour>
      <point x="130" y="-14" type="curve" smooth="yes"/>
      <point x="184" y="-14"/>
      <point x="229" y="26"/>
      <point x="229" y="75" type="curve" smooth="yes"/>
      <point x="229" y="125"/>
      <point x="184" y="164"/>
      <point x="130" y="164" type="curve" smooth="yes"/>
      <point x="75" y="164"/>
      <point x="31" y="125"/>
      <point x="31" y="75" type="curve" smooth="yes"/>
      <point x="31" y="26"/>
      <point x="75" y="-14"/>
    </contour>
    <contour>
      <point x="130" y="282" type="curve" smooth="yes"/>
      <point x="184" y="282"/>
      <point x="229" y="322"/>
      <point x="229" y="371" type="curve" smooth="yes"/>
      <point x="229" y="420"/>
      <point x="184" y="460"/>
      <point x="130" y="460" type="curve" smooth="yes"/>
      <point x="75" y="460"/>
      <point x="31" y="420"/>
      <point x="31" y="371" type="curve" smooth="yes"/>
      <point x="31" y="322"/>
      <point x="75" y="282"/>
    </contour>
  </outline>
</glyph>
<glyph name="semicolon" format="2">
  <advance width="260"/>
  <unicode hex="003B"/>
  <outline>
    <contour>
      <point x="130" y="282" type="curve" smooth="yes"/>
      <point x="184" y="282"/>
      <point x="229" y="322"/>
      <point x="229" y="371" type="curve" smooth="yes"/>
      <point x="229" y="420"/>
      <point x="184" y="460"/>
      <point x="130" y="460" type="curve" smooth="yes"/>
      <point x="75" y="460"/>
      <point x="31" y="420"/>
      <point x="31" y="371" type="curve" smooth="yes"/>
      <point x="31" y="322"/>
      <point x="75" y="282"/>
    </contour>
    <contour>
      <point x="227" y="75" type="curve"/>
      <point x="227" y="125"/>
      <point x="184" y="164"/>
      <point x="130" y="164" type="curve" smooth="yes"/>
      <point x="76" y="164"/>
      <point x="32" y="125"/>
      <point x="32" y="75" type="curve" smooth="yes"/>
      <point x="32" y="40"/>
      <point x="55" y="9"/>
      <point x="89" y="-5" type="curve"/>
      <point x="68" y="-39"/>
      <point x="32" y="-91"/>
      <point x="32" y="-91" type="curve"/>
      <point x="41" y="-113"/>
      <point x="59" y="-130"/>
      <point x="82" y="-136" type="curve"/>
      <point x="162" y="-65"/>
      <point x="231" y="-4"/>
      <point x="227" y="75" type="curve"/>
      <point x="227" y="75"/>
      <point x="227" y="75"/>
    </contour>
  </outline>
</glyph>
<glyph name="less" format="2">
  <advance width="367"/>
  <unicode hex="003C"/>
  <outline>
    <contour>
      <point x="204" y="361" type="line"/>
      <point x="338" y="539" type="line"/>
      <point x="338" y="539"/>
      <point x="318" y="587"/>
      <point x="239" y="614" type="curve"/>
      <point x="239" y="614"/>
      <point x="101" y="483"/>
      <point x="23" y="356" type="curve"/>
      <point x="23" y="333" type="line"/>
      <point x="23" y="333"/>
      <point x="135" y="192"/>
      <point x="254" y="123" type="curve"/>
      <point x="254" y="123"/>
      <point x="341" y="185"/>
      <point x="360" y="223" type="curve"/>
    </contour>
  </outline>
</glyph>
<glyph name="equal" format="2">
  <advance width="428"/>
  <unicode hex="003D"/>
  <outline>
    <contour>
      <point x="403" y="360" type="line"/>
      <point x="408" y="462" type="line"/>
      <point x="38" y="473" type="line"/>
      <point x="44" y="358" type="line"/>
    </contour>
    <contour>
      <point x="38" y="278" type="line"/>
      <point x="29" y="154" type="line"/>
      <point x="408" y="163" type="line"/>
      <point x="399" y="272" type="line"/>
    </contour>
  </outline>
</glyph>
<glyph name="greater" format="2">
  <advance width="367"/>
  <unicode hex="003E"/>
  <outline>
    <contour>
      <point x="116" y="614" type="curve"/>
      <point x="116" y="614"/>
      <point x="27" y="552"/>
      <point x="7" y="514" type="curve"/>
      <point x="168" y="376" type="line"/>
      <point x="29" y="198" type="line"/>
      <point x="29" y="198"/>
      <point x="49" y="150"/>
      <point x="132" y="123" type="curve"/>
      <point x="132" y="123"/>
      <point x="274" y="253"/>
      <point x="355" y="381" type="curve"/>
      <point x="355" y="404" type="line"/>
      <point x="355" y="404"/>
      <point x="239" y="545"/>
    </contour>
  </outline>
</glyph>
<glyph name="question" format="2">
  <advance width="483"/>
  <unicode hex="003F"/>
  <outline>
    <contour>
      <point x="211" y="-29" type="curve" smooth="yes"/>
      <point x="265" y="-29"/>
      <point x="310" y="11"/>
      <point x="310" y="60" type="curve" smooth="yes"/>
      <point x="310" y="109"/>
      <point x="265" y="149"/>
      <point x="211" y="149" type="curve" smooth="yes"/>
      <point x="156" y="149"/>
      <point x="112" y="109"/>
      <point x="112" y="60" type="curve" smooth="yes"/>
      <point x="112" y="11"/>
      <point x="156" y="-29"/>
    </contour>
    <contour>
      <point x="235" y="700" type="curve" smooth="yes"/>
      <point x="71" y="700"/>
      <point x="21" y="628"/>
      <point x="21" y="628" type="curve"/>
      <point x="68" y="483" type="line"/>
      <point x="68" y="483"/>
      <point x="141" y="545"/>
      <point x="204" y="545" type="curve" smooth="yes"/>
      <point x="252" y="545"/>
      <point x="260" y="532"/>
      <point x="265" y="497" type="curve" smooth="yes"/>
      <point x="269" y="463"/>
      <point x="252" y="451"/>
      <point x="200" y="428" type="curve" smooth="yes"/>
      <point x="147" y="405"/>
      <point x="85" y="368"/>
      <point x="124" y="226" type="curve"/>
      <point x="124" y="226"/>
      <point x="207" y="201"/>
      <point x="287" y="213" type="curve"/>
      <point x="303" y="322" type="line"/>
      <point x="455" y="440" type="line"/>
      <point x="455" y="440"/>
      <point x="515" y="700"/>
    </contour>
  </outline>
</glyph>
<glyph name="at" format="2">
  <advance width="855"/>
  <unicode hex="0040"/>
  <outline>
    <contour>
      <point x="422" y="715" type="curve" smooth="yes"/>
      <point x="130" y="715"/>
      <point x="34" y="597"/>
      <point x="34" y="331" type="curve" smooth="yes"/>
      <point x="34" y="66"/>
      <point x="142" y="-2"/>
      <point x="269" y="-27" type="curve" smooth="yes"/>
      <point x="397" y="-52"/>
      <point x="581" y="-49"/>
      <point x="581" y="-49" type="curve"/>
      <point x="592" y="45" type="line"/>
      <point x="592" y="45"/>
      <point x="551" y="31"/>
      <point x="396" y="56" type="curve" smooth="yes"/>
      <point x="241" y="82"/>
      <point x="156" y="144"/>
      <point x="155" y="344" type="curve" smooth="yes"/>
      <point x="154" y="545"/>
      <point x="213" y="594"/>
      <point x="400" y="609" type="curve" smooth="yes"/>
      <point x="519" y="619"/>
      <point x="677" y="638"/>
      <point x="691" y="381" type="curve" smooth="yes"/>
      <point x="704" y="123"/>
      <point x="606" y="166"/>
      <point x="606" y="166" type="curve"/>
      <point x="606" y="166"/>
      <point x="612" y="225"/>
      <point x="606" y="350" type="curve" smooth="yes"/>
      <point x="601" y="474"/>
      <point x="553" y="524"/>
      <point x="457" y="537" type="curve" smooth="yes"/>
      <point x="360" y="549"/>
      <point x="265" y="523"/>
      <point x="265" y="523" type="curve"/>
      <point x="278" y="422" type="line"/>
      <point x="402" y="447"/>
      <point x="448" y="447"/>
      <point x="465" y="408" type="curve"/>
      <point x="385" y="403"/>
      <point x="211" y="379"/>
      <point x="225" y="270" type="curve" smooth="yes"/>
      <point x="241" y="139"/>
      <point x="340" y="136"/>
      <point x="478" y="198" type="curve"/>
      <point x="479" y="146"/>
      <point x="481" y="109"/>
      <point x="481" y="109" type="curve"/>
      <point x="481" y="109"/>
      <point x="548" y="85"/>
      <point x="649" y="85" type="curve" smooth="yes"/>
      <point x="750" y="85"/>
      <point x="822" y="161"/>
      <point x="822" y="375" type="curve" smooth="yes"/>
      <point x="822" y="589"/>
      <point x="713" y="715"/>
    </contour>
    <contour>
      <point x="370" y="284" type="curve" smooth="yes"/>
      <point x="367" y="314"/>
      <point x="403" y="343"/>
      <point x="474" y="344" type="curve"/>
      <point x="474" y="340"/>
      <point x="474" y="336"/>
      <point x="474" y="331" type="curve" smooth="yes"/>
      <point x="475" y="311"/>
      <point x="475" y="291"/>
      <point x="475" y="271" type="curve"/>
      <point x="404" y="249"/>
      <point x="374" y="255"/>
    </contour>
  </outline>
</glyph>
<glyph name="B" format="2">
  <advance width="666"/>
  <unicode hex="0042"/>
  <outline>
    <contour>
      <point x="502" y="351" type="line"/>
      <point x="507" y="355" type="line" smooth="yes"/>
      <point x="559" y="397"/>
      <point x="600" y="458"/>
      <point x="600" y="527" type="curve" smooth="yes"/>
      <point x="600" y="653"/>
      <point x="486" y="694"/>
      <point x="376" y="694" type="curve" smooth="yes"/>
      <point x="347" y="694"/>
      <point x="319" y="691"/>
      <point x="290" y="689" type="curve" smooth="yes"/>
      <point x="216" y="684"/>
      <point x="143" y="677"/>
      <point x="70" y="669" type="curve"/>
      <point x="45" y="502"/>
      <point x="35" y="331"/>
      <point x="35" y="162" type="curve" smooth="yes"/>
      <point x="35" y="107"/>
      <point x="36" y="51"/>
      <point x="40" y="-4" type="curve"/>
      <point x="145" y="-27"/>
      <point x="217" y="-40"/>
      <point x="326" y="-40" type="curve" smooth="yes"/>
      <point x="408" y="-40"/>
      <point x="490" y="-38"/>
      <point x="561" y="6" type="curve" smooth="yes"/>
      <point x="613" y="38"/>
      <point x="654" y="92"/>
      <point x="654" y="156" type="curve" smooth="yes"/>
      <point x="654" y="244"/>
      <point x="579" y="307"/>
      <point x="508" y="348" type="curve"/>
    </contour>
    <contour>
      <point x="262" y="407" type="line"/>
      <point x="262" y="575" type="line"/>
      <point x="265" y="576" type="line"/>
      <point x="277" y="578"/>
      <point x="289" y="579"/>
      <point x="300" y="579" type="curve" smooth="yes"/>
      <point x="349" y="579"/>
      <point x="398" y="559"/>
      <point x="398" y="499" type="curve" smooth="yes"/>
      <point x="398" y="443"/>
      <point x="307" y="416"/>
      <point x="267" y="408" type="curve" smooth="yes"/>
    </contour>
    <contour>
      <point x="262" y="99" type="line"/>
      <point x="262" y="289" type="line"/>
      <point x="266" y="289" type="line"/>
      <point x="273" y="290"/>
      <point x="280" y="290"/>
      <point x="287" y="290" type="curve" smooth="yes"/>
      <point x="353" y="290"/>
      <point x="429" y="265"/>
      <point x="429" y="182" type="curve" smooth="yes"/>
      <point x="429" y="110"/>
      <point x="356" y="96"/>
      <point x="302" y="96" type="curve" smooth="yes"/>
      <point x="290" y="96"/>
      <point x="278" y="96"/>
      <point x="266" y="98" type="curve"/>
    </contour>
  </outline>
</glyph>
<glyph name="C" format="2">
  <advance width="603"/>
  <unicode hex="0043"/>
  <outline>
    <contour>
      <point x="346" y="150" type="curve" smooth="yes"/>
      <point x="280" y="150"/>
      <point x="204" y="206"/>
      <point x="212" y="353" type="curve" smooth="yes"/>
      <point x="221" y="522"/>
      <point x="322" y="518"/>
      <point x="347" y="518" type="curve" smooth="yes"/>
      <point x="397" y="519"/>
      <point x="445" y="501"/>
      <point x="483" y="469" type="curve"/>
      <point x="578" y="617" type="line"/>
      <point x="578" y="617"/>
      <point x="578" y="617"/>
      <point x="578" y="617" type="curve"/>
      <point x="574" y="621"/>
      <point x="487" y="704"/>
      <point x="346" y="704" type="curve" smooth="yes"/>
      <point x="171" y="704"/>
      <point x="28" y="597"/>
      <point x="18" y="376" type="curve" smooth="yes"/>
      <point x="7" y="149"/>
      <point x="105" y="-20"/>
      <point x="313" y="-29" type="curve" smooth="yes"/>
      <point x="436" y="-35"/>
      <point x="548" y="22"/>
      <point x="600" y="63" type="curve"/>
      <point x="520" y="228" type="line"/>
      <point x="477" y="188"/>
      <point x="404" y="150"/>
    </contour>
  </outline>
</glyph>
<glyph name="D" format="2">
  <advance width="691"/>
  <unicode hex="0044"/>
  <outline>
    <contour>
      <point x="47" y="-15" type="curve"/>
      <point x="135" y="-19"/>
      <point x="224" y="-23"/>
      <point x="312" y="-23" type="curve" smooth="yes"/>
      <point x="522" y="-23"/>
      <point x="675" y="126"/>
      <point x="675" y="339" type="curve" smooth="yes"/>
      <point x="675" y="349"/>
      <point x="676" y="359"/>
      <point x="675" y="369" type="curve"/>
      <point x="674" y="449"/>
      <point x="641" y="540"/>
      <point x="589" y="601" type="curve" smooth="yes"/>
      <point x="528" y="671"/>
      <point x="445" y="707"/>
      <point x="353" y="707" type="curve" smooth="yes"/>
      <point x="251" y="707"/>
      <point x="147" y="691"/>
      <point x="46" y="678" type="curve"/>
      <point x="44" y="569"/>
      <point x="43" y="461"/>
      <point x="43" y="352" type="curve" smooth="yes"/>
      <point x="43" y="230"/>
      <point x="44" y="107"/>
    </contour>
    <contour>
      <point x="252" y="137" type="line"/>
      <point x="251" y="141" type="line"/>
      <point x="246" y="206"/>
      <point x="243" y="271"/>
      <point x="243" y="336" type="curve" smooth="yes"/>
      <point x="243" y="400"/>
      <point x="246" y="465"/>
      <point x="251" y="530" type="curve"/>
      <point x="251" y="533" type="line"/>
      <point x="254" y="533" type="line"/>
      <point x="265" y="536"/>
      <point x="276" y="539"/>
      <point x="287" y="541" type="curve"/>
      <point x="298" y="544"/>
      <point x="309" y="545"/>
      <point x="320" y="545" type="curve" smooth="yes"/>
      <point x="332" y="545"/>
      <point x="342" y="543"/>
      <point x="353" y="539" type="curve" smooth="yes"/>
      <point x="429" y="513"/>
      <point x="470" y="431"/>
      <point x="470" y="355" type="curve" smooth="yes"/>
      <point x="470" y="289"/>
      <point x="438" y="228"/>
      <point x="391" y="185" type="curve" smooth="yes"/>
      <point x="371" y="167"/>
      <point x="349" y="157"/>
      <point x="326" y="151" type="curve"/>
      <point x="304" y="144"/>
      <point x="280" y="141"/>
      <point x="256" y="137" type="curve"/>
    </contour>
  </outline>
</glyph>
<glyph name="F" format="2">
  <advance width="539"/>
  <unicode hex="0046"/>
  <outline>
    <contour>
      <point x="364" y="541" type="curve" smooth="yes"/>
      <point x="398" y="541"/>
      <point x="477" y="540"/>
      <point x="527" y="538" type="curve"/>
      <point x="526" y="592"/>
      <point x="522" y="645"/>
      <point x="515" y="698" type="curve"/>
      <point x="444" y="699"/>
      <point x="342" y="699"/>
      <point x="278" y="697" type="curve" smooth="yes"/>
      <point x="220" y="696"/>
      <point x="115" y="694"/>
      <point x="47" y="690" type="curve"/>
      <point x="42" y="580"/>
      <point x="39" y="429"/>
      <point x="38" y="329" type="curve" smooth="yes"/>
      <point x="37" y="240"/>
      <point x="36" y="90"/>
      <point x="38" y="-14" type="curve"/>
      <point x="90" y="-15"/>
      <point x="194" y="-4"/>
      <point x="256" y="6" type="curve"/>
      <point x="256" y="55"/>
      <point x="255" y="111"/>
      <point x="255" y="131" type="curve" smooth="yes"/>
      <point x="255" y="157"/>
      <point x="256" y="220"/>
      <point x="257" y="260" type="curve"/>
      <point x="285" y="265"/>
      <point x="399" y="273"/>
      <point x="444" y="276" type="curve"/>
      <point x="445" y="325"/>
      <point x="444" y="401"/>
      <point x="441" y="432" type="curve"/>
      <point x="402" y="430"/>
      <point x="300" y="428"/>
      <point x="245" y="429" type="curve"/>
      <point x="244" y="459"/>
      <point x="244" y="509"/>
      <point x="245" y="539" type="curve"/>
      <point x="282" y="540"/>
      <point x="338" y="541"/>
    </contour>
  </outline>
</glyph>
<glyph name="H" format="2">
  <advance width="670"/>
  <unicode hex="0048"/>
  <outline>
    <contour>
      <point x="541" y="707" type="curve"/>
      <point x="503" y="706"/>
      <point x="465" y="704"/>
      <point x="428" y="699" type="curve"/>
      <point x="433" y="639"/>
      <point x="434" y="519"/>
      <point x="431" y="472" type="curve"/>
      <point x="380" y="465"/>
      <point x="304" y="458"/>
      <point x="253" y="457" type="curve"/>
      <point x="253" y="495"/>
      <point x="253" y="547"/>
      <point x="253" y="568" type="curve" smooth="yes"/>
      <point x="254" y="591"/>
      <point x="255" y="657"/>
      <point x="257" y="700" type="curve"/>
      <point x="222" y="704"/>
      <point x="179" y="707"/>
      <point x="162" y="706" type="curve" smooth="yes"/>
      <point x="140" y="705"/>
      <point x="83" y="701"/>
      <point x="45" y="695" type="curve"/>
      <point x="34" y="494"/>
      <point x="35" y="192"/>
      <point x="46" y="-16" type="curve"/>
      <point x="77" y="-16"/>
      <point x="140" y="-16"/>
      <point x="149" y="-16" type="curve" smooth="yes"/>
      <point x="160" y="-16"/>
      <point x="172" y="-16"/>
      <point x="183" y="-15" type="curve"/>
      <point x="190" y="-15"/>
      <point x="223" y="-13"/>
      <point x="251" y="-11" type="curve"/>
      <point x="258" y="258" type="line"/>
      <point x="301" y="263"/>
      <point x="374" y="270"/>
      <point x="422" y="274" type="curve"/>
      <point x="422" y="230"/>
      <point x="421" y="166"/>
      <point x="420" y="137" type="curve" smooth="yes"/>
      <point x="419" y="109"/>
      <point x="418" y="43"/>
      <point x="416" y="0" type="curve"/>
      <point x="468" y="-4"/>
      <point x="574" y="-12"/>
      <point x="624" y="-14" type="curve"/>
      <point x="634" y="202"/>
      <point x="634" y="500"/>
      <point x="624" y="706" type="curve"/>
      <point x="591" y="707"/>
      <point x="546" y="707"/>
    </contour>
  </outline>
</glyph>
<glyph name="I" format="2">
  <advance width="289"/>
  <unicode hex="0049"/>
  <outline>
    <contour>
      <point x="247" y="694" type="curve"/>
      <point x="193" y="696"/>
      <point x="95" y="695"/>
      <point x="42" y="691" type="curve"/>
      <point x="41" y="624"/>
      <point x="40" y="530"/>
      <point x="39" y="494" type="curve" smooth="yes"/>
      <point x="38" y="449"/>
      <point x="37" y="411"/>
      <point x="37" y="381" type="curve" smooth="yes"/>
      <point x="37" y="349"/>
      <point x="37" y="315"/>
      <point x="38" y="281" type="curve" smooth="yes"/>
      <point x="38" y="246"/>
      <point x="39" y="210"/>
      <point x="39" y="172" type="curve" smooth="yes"/>
      <point x="40" y="-8" type="line"/>
      <point x="89" y="-8"/>
      <point x="196" y="-1"/>
      <point x="250" y="6" type="curve"/>
      <point x="251" y="111"/>
      <point x="251" y="249"/>
      <point x="251" y="351" type="curve" smooth="yes"/>
      <point x="250" y="433"/>
      <point x="249" y="584"/>
    </contour>
  </outline>
</glyph>
<glyph name="J" format="2">
  <advance width="489"/>
  <unicode hex="004A"/>
  <outline>
    <contour>
      <point x="455" y="700" type="curve"/>
      <point x="242" y="700" type="line"/>
      <point x="242" y="522" type="line"/>
      <point x="255" y="436"/>
      <point x="256" y="349"/>
      <point x="246" y="263" type="curve" smooth="yes"/>
      <point x="229" y="123"/>
      <point x="125" y="125"/>
      <point x="21" y="161" type="curve"/>
      <point x="0" y="10" type="line"/>
      <point x="0" y="10"/>
      <point x="62" y="-40"/>
      <point x="175" y="-25" type="curve" smooth="yes"/>
      <point x="289" y="-9"/>
      <point x="469" y="70"/>
      <point x="462" y="296" type="curve" smooth="yes"/>
      <point x="460" y="420"/>
      <point x="455" y="560"/>
    </contour>
  </outline>
</glyph>
<glyph name="K" format="2">
  <advance width="631"/>
  <unicode hex="004B"/>
  <outline>
    <contour>
      <point x="398" y="687" type="curve"/>
      <point x="398" y="687"/>
      <point x="349" y="547"/>
      <point x="248" y="439" type="curve"/>
      <point x="258" y="678" type="line"/>
      <point x="44" y="694" type="line"/>
      <point x="35" y="-17" type="line"/>
      <point x="240" y="-17" type="line"/>
      <point x="240" y="160" type="line"/>
      <point x="303" y="205" type="line"/>
      <point x="397" y="-27" type="line"/>
      <point x="619" y="-13" type="line"/>
      <point x="619" y="-13"/>
      <point x="543" y="210"/>
      <point x="442" y="362" type="curve"/>
      <point x="442" y="362"/>
      <point x="561" y="512"/>
      <point x="630" y="672" type="curve"/>
      <point x="630" y="672"/>
      <point x="593" y="704"/>
    </contour>
  </outline>
</glyph>
<glyph name="L" format="2">
  <advance width="513"/>
  <unicode hex="004C"/>
  <outline>
    <contour>
      <point x="268" y="199" type="curve"/>
      <point x="248" y="683" type="line"/>
      <point x="177" y="697"/>
      <point x="105" y="701"/>
      <point x="34" y="694" type="curve"/>
      <point x="45" y="4" type="line"/>
      <point x="45" y="4"/>
      <point x="340" y="-13"/>
      <point x="490" y="18" type="curve"/>
      <point x="502" y="208" type="line"/>
      <point x="502" y="208"/>
      <point x="352" y="195"/>
    </contour>
  </outline>
</glyph>
<glyph name="M" format="2">
  <advance width="840"/>
  <unicode hex="004D"/>
  <outline>
    <contour>
      <point x="27" y="7" type="line"/>
      <point x="64" y="-3"/>
      <point x="104" y="-7"/>
      <point x="142" y="-7" type="curve" smooth="yes"/>
      <point x="164" y="-7"/>
      <point x="186" y="-6"/>
      <point x="207" y="-2" type="curve"/>
      <point x="215" y="288" type="line"/>
      <point x="324" y="-7" type="line"/>
      <point x="460" y="7" type="line"/>
      <point x="577" y="336" type="line"/>
      <point x="613" y="-13" type="line"/>
      <point x="815" y="7" type="line"/>
      <point x="772" y="700" type="line"/>
      <point x="745" y="701"/>
      <point x="718" y="702"/>
      <point x="691" y="702" type="curve" smooth="yes"/>
      <point x="649" y="702"/>
      <point x="574" y="700"/>
      <point x="536" y="685" type="curve"/>
      <point x="400" y="337" type="line"/>
      <point x="258" y="693" type="line"/>
      <point x="70" y="665" type="line"/>
    </contour>
  </outline>
</glyph>
<glyph name="N" format="2">
  <advance width="708"/>
  <unicode hex="004E"/>
  <outline>
    <contour>
      <point x="34" y="-6" type="line"/>
      <point x="230" y="-16" type="line"/>
      <point x="214" y="384" type="line"/>
      <point x="446" y="-13" type="line"/>
      <point x="468" y="-14"/>
      <point x="491" y="-15"/>
      <point x="514" y="-15" type="curve" smooth="yes"/>
      <point x="554" y="-15"/>
      <point x="625" y="-14"/>
      <point x="661" y="-1" type="curve"/>
      <point x="667" y="150"/>
      <point x="670" y="301"/>
      <point x="670" y="453" type="curve" smooth="yes"/>
      <point x="670" y="532"/>
      <point x="672" y="618"/>
      <point x="662" y="697" type="curve"/>
      <point x="645" y="699"/>
      <point x="628" y="700"/>
      <point x="612" y="700" type="curve" smooth="yes"/>
      <point x="566" y="700"/>
      <point x="520" y="693"/>
      <point x="475" y="680" type="curve"/>
      <point x="477" y="321" type="line"/>
      <point x="470" y="335" type="line"/>
      <point x="418" y="425"/>
      <point x="331" y="593"/>
      <point x="311" y="694" type="curve"/>
      <point x="300" y="695"/>
      <point x="287" y="695"/>
      <point x="276" y="695" type="curve" smooth="yes"/>
      <point x="202" y="695"/>
      <point x="128" y="684"/>
      <point x="56" y="666" type="curve"/>
    </contour>
  </outline>
</glyph>
<glyph name="O" format="2">
  <advance width="715"/>
  <unicode hex="004F"/>
  <unicode hex="00D8"/>
  <outline>
    <contour>
      <point x="341" y="708" type="curve" smooth="yes"/>
      <point x="152" y="699"/>
      <point x="4" y="543"/>
      <point x="13" y="331" type="curve" smooth="yes"/>
      <point x="22" y="119"/>
      <point x="183" y="-24"/>
      <point x="373" y="-16" type="curve" smooth="yes"/>
      <point x="562" y="-7"/>
      <point x="710" y="149"/>
      <point x="701" y="361" type="curve" smooth="yes"/>
      <point x="692" y="573"/>
      <point x="531" y="716"/>
    </contour>
    <contour>
      <point x="364" y="152" type="curve" smooth="yes"/>
      <point x="295" y="149"/>
      <point x="235" y="230"/>
      <point x="230" y="346" type="curve" smooth="yes"/>
      <point x="225" y="463"/>
      <point x="278" y="549"/>
      <point x="347" y="552" type="curve" smooth="yes"/>
      <point x="417" y="555"/>
      <point x="477" y="474"/>
      <point x="482" y="357" type="curve" smooth="yes"/>
      <point x="487" y="240"/>
      <point x="434" y="155"/>
    </contour>
  </outline>
</glyph>
<glyph name="P" format="2">
  <advance width="617"/>
  <unicode hex="0050"/>
  <outline>
    <contour>
      <point x="45" y="687" type="curve"/>
      <point x="36" y="-6" type="line"/>
      <point x="106" y="-14"/>
      <point x="176" y="-18"/>
      <point x="247" y="-18" type="curve"/>
      <point x="247" y="183" type="line"/>
      <point x="327" y="175"/>
      <point x="590" y="167"/>
      <point x="608" y="425" type="curve" smooth="yes"/>
      <point x="629" y="729"/>
      <point x="262" y="747"/>
    </contour>
    <contour>
      <point x="247" y="346" type="curve"/>
      <point x="247" y="542" type="line"/>
      <point x="247" y="542"/>
      <point x="399" y="586"/>
      <point x="411" y="463" type="curve" smooth="yes"/>
      <point x="421" y="355"/>
      <point x="323" y="327"/>
    </contour>
  </outline>
</glyph>
<glyph name="Q" format="2">
  <advance width="715"/>
  <unicode hex="0051"/>
  <outline>
    <contour>
      <point x="701" y="346" type="curve" smooth="yes"/>
      <point x="701" y="558"/>
      <point x="547" y="708"/>
      <point x="357" y="708" type="curve" smooth="yes"/>
      <point x="167" y="708"/>
      <point x="13" y="558"/>
      <point x="13" y="346" type="curve" smooth="yes"/>
      <point x="13" y="149"/>
      <point x="147" y="5"/>
      <point x="319" y="-14" type="curve"/>
      <point x="377" y="-58"/>
      <point x="432" y="-107"/>
      <point x="482" y="-160" type="curve"/>
      <point x="625" y="-66" type="line"/>
      <point x="532" y="32" type="line"/>
      <point x="633" y="92"/>
      <point x="701" y="206"/>
    </contour>
    <contour>
      <point x="357" y="146" type="curve" smooth="yes"/>
      <point x="288" y="146"/>
      <point x="231" y="230"/>
      <point x="231" y="347" type="curve" smooth="yes"/>
      <point x="231" y="465"/>
      <point x="288" y="548"/>
      <point x="357" y="548" type="curve" smooth="yes"/>
      <point x="427" y="548"/>
      <point x="483" y="465"/>
      <point x="483" y="347" type="curve" smooth="yes"/>
      <point x="483" y="230"/>
      <point x="427" y="146"/>
    </contour>
  </outline>
</glyph>
<glyph name="R" format="2">
  <advance width="643"/>
  <unicode hex="0052"/>
  <outline>
    <contour>
      <point x="624" y="488" type="curve" smooth="yes"/>
      <point x="545" y="796"/>
      <point x="50" y="677"/>
      <point x="50" y="677" type="curve"/>
      <point x="32" y="1" type="line"/>
      <point x="106" y="-16"/>
      <point x="241" y="-8"/>
      <point x="241" y="-8" type="curve"/>
      <point x="246" y="206" type="line"/>
      <point x="334" y="154"/>
      <point x="424" y="-14"/>
      <point x="424" y="-14" type="curve"/>
      <point x="541" y="-14"/>
      <point x="624" y="11"/>
      <point x="624" y="11" type="curve"/>
      <point x="572" y="154"/>
      <point x="491" y="270"/>
      <point x="491" y="270" type="curve"/>
      <point x="533" y="284"/>
      <point x="654" y="370"/>
    </contour>
    <contour>
      <point x="239" y="341" type="curve"/>
      <point x="243" y="528" type="line"/>
      <point x="243" y="528"/>
      <point x="378" y="560"/>
      <point x="388" y="437" type="curve" smooth="yes"/>
      <point x="399" y="314"/>
      <point x="239" y="341"/>
    </contour>
  </outline>
</glyph>
<glyph name="S" format="2">
  <advance width="612"/>
  <unicode hex="0053"/>
  <outline>
    <contour>
      <point x="347" y="405" type="curve" smooth="yes"/>
      <point x="257" y="428"/>
      <point x="250" y="448"/>
      <point x="251" y="477" type="curve" smooth="yes"/>
      <point x="252" y="506"/>
      <point x="257" y="566"/>
      <point x="547" y="531" type="curve"/>
      <point x="526" y="696" type="line"/>
      <point x="526" y="696"/>
      <point x="14" y="767"/>
      <point x="16" y="480" type="curve" smooth="yes"/>
      <point x="17" y="345"/>
      <point x="125" y="308"/>
      <point x="207" y="290" type="curve" smooth="yes"/>
      <point x="339" y="261"/>
      <point x="356" y="241"/>
      <point x="354" y="206" type="curve" smooth="yes"/>
      <point x="351" y="156"/>
      <point x="272" y="127"/>
      <point x="43" y="157" type="curve"/>
      <point x="40" y="-8" type="line"/>
      <point x="40" y="-8"/>
      <point x="285" y="-67"/>
      <point x="449" y="4" type="curve" smooth="yes"/>
      <point x="613" y="75"/>
      <point x="630" y="247"/>
      <point x="568" y="315" type="curve" smooth="yes"/>
      <point x="507" y="384"/>
      <point x="437" y="383"/>
    </contour>
  </outline>
</glyph>
<glyph name="T" format="2">
  <advance width="601"/>
  <unicode hex="0054"/>
  <outline>
    <contour>
      <point x="16" y="668" type="curve"/>
      <point x="9" y="471" type="line"/>
      <point x="9" y="471"/>
      <point x="84" y="482"/>
      <point x="188" y="494" type="curve"/>
      <point x="201" y="-8" type="line"/>
      <point x="409" y="21" type="line"/>
      <point x="409" y="21"/>
      <point x="398" y="348"/>
      <point x="407" y="512" type="curve"/>
      <point x="471" y="516"/>
      <point x="535" y="517"/>
      <point x="591" y="515" type="curve"/>
      <point x="591" y="515"/>
      <point x="600" y="603"/>
      <point x="579" y="686" type="curve"/>
      <point x="391" y="699"/>
      <point x="203" y="693"/>
    </contour>
  </outline>
</glyph>
<glyph name="U" format="2">
  <advance width="656"/>
  <unicode hex="0055"/>
  <outline>
    <contour>
      <point x="414" y="656" type="curve"/>
      <point x="414" y="656"/>
      <point x="427" y="474"/>
      <point x="426" y="334" type="curve" smooth="yes"/>
      <point x="425" y="195"/>
      <point x="399" y="172"/>
      <point x="338" y="166" type="curve" smooth="yes"/>
      <point x="277" y="161"/>
      <point x="254" y="188"/>
      <point x="250" y="288" type="curve" smooth="yes"/>
      <point x="245" y="388"/>
      <point x="255" y="664"/>
      <point x="255" y="664" type="curve"/>
      <point x="255" y="664"/>
      <point x="232" y="686"/>
      <point x="42" y="682" type="curve"/>
      <point x="42" y="682"/>
      <point x="25" y="435"/>
      <point x="31" y="226" type="curve" smooth="yes"/>
      <point x="38" y="17"/>
      <point x="203" y="-41"/>
      <point x="356" y="-35" type="curve" smooth="yes"/>
      <point x="508" y="-29"/>
      <point x="629" y="44"/>
      <point x="626" y="255" type="curve" smooth="yes"/>
      <point x="624" y="465"/>
      <point x="607" y="682"/>
      <point x="607" y="682" type="curve"/>
      <point x="607" y="682"/>
      <point x="542" y="697"/>
    </contour>
  </outline>
</glyph>
<glyph name="V" format="2">
  <advance width="604"/>
  <unicode hex="0056"/>
  <outline>
    <contour>
      <point x="412" y="671" type="curve"/>
      <point x="296" y="257" type="line"/>
      <point x="204" y="680" type="line"/>
      <point x="204" y="680"/>
      <point x="82" y="698"/>
      <point x="1" y="671" type="curve"/>
      <point x="154" y="-2" type="line"/>
      <point x="154" y="-2"/>
      <point x="318" y="-21"/>
      <point x="393" y="-8" type="curve"/>
      <point x="608" y="663" type="line"/>
      <point x="608" y="663"/>
      <point x="549" y="695"/>
    </contour>
  </outline>
</glyph>
<glyph name="W" format="2">
  <advance width="907"/>
  <unicode hex="0057"/>
  <outline>
    <contour>
      <point x="127" y="5" type="line"/>
      <point x="186" y="-17"/>
      <point x="265" y="-25"/>
      <point x="327" y="-25" type="curve" smooth="yes"/>
      <point x="335" y="-25"/>
      <point x="342" y="-25"/>
      <point x="349" y="-25" type="curve"/>
      <point x="460" y="406" type="line"/>
      <point x="551" y="-9" type="line"/>
      <point x="578" y="-11"/>
      <point x="605" y="-11"/>
      <point x="632" y="-11" type="curve" smooth="yes"/>
      <point x="659" y="-11"/>
      <point x="687" y="-11"/>
      <point x="714" y="-10" type="curve" smooth="yes"/>
      <point x="741" y="-8"/>
      <point x="768" y="-6"/>
      <point x="794" y="0" type="curve"/>
      <point x="897" y="683" type="line"/>
      <point x="853" y="695"/>
      <point x="794" y="697"/>
      <point x="748" y="697" type="curve" smooth="yes"/>
      <point x="734" y="697"/>
      <point x="720" y="697"/>
      <point x="706" y="696" type="curve"/>
      <point x="671" y="264" type="line"/>
      <point x="588" y="681" type="line"/>
      <point x="542" y="686"/>
      <point x="496" y="689"/>
      <point x="449" y="689" type="curve" smooth="yes"/>
      <point x="418" y="689"/>
      <point x="386" y="688"/>
      <point x="355" y="685" type="curve"/>
      <point x="280" y="259" type="line"/>
      <point x="223" y="663" type="line"/>
      <point x="184" y="680"/>
      <point x="127" y="686"/>
      <point x="85" y="686" type="curve" smooth="yes"/>
      <point x="62" y="686"/>
      <point x="39" y="685"/>
      <point x="16" y="682" type="curve"/>
    </contour>
  </outline>
</glyph>
<glyph name="X" format="2">
  <advance width="618"/>
  <unicode hex="0058"/>
  <outline>
    <contour>
      <point x="401" y="693" type="curve"/>
      <point x="301" y="467" type="line"/>
      <point x="202" y="693" type="line"/>
      <point x="202" y="693"/>
      <point x="155" y="703"/>
      <point x="23" y="667" type="curve"/>
      <point x="158" y="337" type="line"/>
      <point x="-11" y="-24" type="line"/>
      <point x="-11" y="-24"/>
      <point x="110" y="-52"/>
      <point x="200" y="-47" type="curve"/>
      <point x="287" y="175" type="line"/>
      <point x="419" y="-38" type="line"/>
      <point x="617" y="5" type="line"/>
      <point x="617" y="5"/>
      <point x="504" y="225"/>
      <point x="428" y="330" type="curve"/>
      <point x="617" y="655" type="line"/>
      <point x="617" y="655"/>
      <point x="569" y="695"/>
    </contour>
  </outline>
</glyph>
<glyph name="Y" format="2">
  <advance width="595"/>
  <unicode hex="0059"/>
  <outline>
    <contour>
      <point x="417" y="693" type="curve"/>
      <point x="298" y="441" type="line"/>
      <point x="200" y="681" type="line"/>
      <point x="200" y="681"/>
      <point x="78" y="688"/>
      <point x="-8" y="665" type="curve"/>
      <point x="183" y="258" type="line"/>
      <point x="183" y="-8" type="line"/>
      <point x="394" y="1" type="line"/>
      <point x="384" y="276" type="line"/>
      <point x="384" y="276"/>
      <point x="513" y="451"/>
      <point x="603" y="676" type="curve"/>
      <point x="603" y="676"/>
      <point x="565" y="697"/>
    </contour>
  </outline>
</glyph>
<glyph name="Z" format="2">
  <advance width="543"/>
  <unicode hex="005A"/>
  <outline>
    <contour>
      <point x="505" y="697" type="line"/>
      <point x="505" y="697"/>
      <point x="267" y="731"/>
      <point x="35" y="675" type="curve"/>
      <point x="35" y="507" type="line"/>
      <point x="309" y="554" type="line"/>
      <point x="309" y="554"/>
      <point x="61" y="223"/>
      <point x="28" y="138" type="curve"/>
      <point x="28" y="-18" type="line"/>
      <point x="512" y="-2" type="line"/>
      <point x="512" y="166" type="line"/>
      <point x="274" y="151" type="line"/>
      <point x="528" y="544" type="line"/>
    </contour>
  </outline>
</glyph>
<glyph name="bracketleft" format="2">
  <advance width="334"/>
  <unicode hex="005B"/>
  <outline>
    <contour>
      <point x="302" y="561" type="line"/>
      <point x="302" y="709" type="line"/>
      <point x="217" y="707"/>
      <point x="132" y="698"/>
      <point x="48" y="682" type="curve"/>
      <point x="48" y="682"/>
      <point x="28" y="168"/>
      <point x="48" y="9" type="curve"/>
      <point x="302" y="-5" type="line"/>
      <point x="302" y="121" type="line"/>
      <point x="191" y="131" type="line"/>
      <point x="204" y="565" type="line"/>
    </contour>
  </outline>
</glyph>
<glyph name="backslash" format="2">
  <advance width="499"/>
  <unicode hex="005C"/>
  <outline>
    <contour>
      <point x="165" y="721" type="line"/>
      <point x="69" y="709"/>
      <point x="50" y="678"/>
      <point x="50" y="678" type="curve"/>
      <point x="299" y="-33" type="line"/>
      <point x="358" y="-38"/>
      <point x="449" y="-24"/>
      <point x="449" y="-24" type="curve"/>
    </contour>
  </outline>
</glyph>
<glyph name="bracketright" format="2">
  <advance width="334"/>
  <unicode hex="005D"/>
  <outline>
    <contour>
      <point x="285" y="696" type="curve"/>
      <point x="31" y="709" type="line"/>
      <point x="31" y="584" type="line"/>
      <point x="142" y="573" type="line"/>
      <point x="129" y="139" type="line"/>
      <point x="31" y="143" type="line"/>
      <point x="31" y="-5" type="line"/>
      <point x="116" y="-2"/>
      <point x="201" y="7"/>
      <point x="285" y="22" type="curve"/>
      <point x="285" y="22"/>
      <point x="305" y="537"/>
    </contour>
  </outline>
</glyph>
<glyph name="asciicircum" format="2">
  <advance width="450"/>
  <unicode hex="005E"/>
  <outline>
    <contour>
      <point x="315" y="660" type="curve"/>
      <point x="131" y="672" type="line"/>
      <point x="24" y="424" type="line"/>
      <point x="72" y="404"/>
      <point x="123" y="394"/>
      <point x="174" y="395" type="curve"/>
      <point x="230" y="534" type="line"/>
      <point x="289" y="395" type="line"/>
      <point x="381" y="393"/>
      <point x="426" y="424"/>
      <point x="426" y="424" type="curve"/>
      <point x="386" y="545"/>
      <point x="315" y="660"/>
    </contour>
  </outline>
</glyph>
<glyph name="underscore" format="2">
  <advance width="456"/>
  <unicode hex="005F"/>
  <outline>
    <contour>
      <point x="428" y="55" type="line"/>
      <point x="30" y="65" type="line"/>
      <point x="49" y="-67" type="line"/>
      <point x="439" y="-67" type="line"/>
    </contour>
  </outline>
</glyph>
<glyph name="a" format="2">
  <advance width="589"/>
  <unicode hex="0061"/>
  <outline>
    <contour>
      <point x="360" y="4" type="line"/>
      <point x="365" y="4" type="line"/>
      <point x="381" y="2"/>
      <point x="398" y="2"/>
      <point x="414" y="2" type="curve" smooth="yes"/>
      <point x="457" y="2"/>
      <point x="501" y="7"/>
      <point x="543" y="18" type="curve"/>
      <point x="546" y="19" type="line"/>
      <point x="547" y="23" type="line"/>
      <point x="558" y="94"/>
      <point x="563" y="167"/>
      <point x="563" y="239" type="curve" smooth="yes"/>
      <point x="563" y="275"/>
      <point x="562" y="312"/>
      <point x="557" y="348" type="curve" smooth="yes"/>
      <point x="536" y="497"/>
      <point x="400" y="551"/>
      <point x="262" y="551" type="curve" smooth="yes"/>
      <point x="205" y="551"/>
      <point x="148" y="543"/>
      <point x="93" y="530" type="curve" smooth="yes"/>
      <point x="89" y="529" type="line"/>
      <point x="70" y="361" type="line"/>
      <point x="81" y="367" type="line"/>
      <point x="118" y="391"/>
      <point x="190" y="399"/>
      <point x="234" y="399" type="curve" smooth="yes"/>
      <point x="252" y="399"/>
      <point x="270" y="399"/>
      <point x="287" y="398" type="curve" smooth="yes"/>
      <point x="320" y="395"/>
      <point x="331" y="389"/>
      <point x="337" y="362" type="curve"/>
      <point x="219" y="352"/>
      <point x="12" y="312"/>
      <point x="12" y="163" type="curve" smooth="yes"/>
      <point x="12" y="71"/>
      <point x="75" y="5"/>
      <point x="172" y="5" type="curve" smooth="yes"/>
      <point x="240" y="5"/>
      <point x="305" y="37"/>
      <point x="357" y="77" type="curve"/>
      <point x="358" y="54"/>
      <point x="359" y="32"/>
      <point x="359" y="9" type="curve"/>
    </contour>
    <contour>
      <point x="352" y="179" type="curve"/>
      <point x="327" y="169"/>
      <point x="297" y="160"/>
      <point x="272" y="160" type="curve" smooth="yes"/>
      <point x="246" y="160"/>
      <point x="231" y="170"/>
      <point x="231" y="195" type="curve" smooth="yes"/>
      <point x="231" y="246"/>
      <point x="298" y="262"/>
      <point x="347" y="266" type="curve"/>
      <point x="350" y="237"/>
      <point x="351" y="208"/>
    </contour>
  </outline>
</glyph>
<glyph name="b" format="2">
  <advance width="596"/>
  <unicode hex="0062"/>
  <outline>
    <contour>
      <point x="35" y="18" type="line"/>
      <point x="39" y="16" type="line"/>
      <point x="84" y="-2"/>
      <point x="213" y="-6"/>
      <point x="259" y="-6" type="curve" smooth="yes"/>
      <point x="465" y="-6"/>
      <point x="580" y="79"/>
      <point x="580" y="289" type="curve" smooth="yes"/>
      <point x="580" y="438"/>
      <point x="494" y="523"/>
      <point x="338" y="523" type="curve" smooth="yes"/>
      <point x="300" y="523"/>
      <point x="261" y="518"/>
      <point x="224" y="510" type="curve"/>
      <point x="235" y="682" type="line"/>
      <point x="232" y="684" type="line" smooth="yes"/>
      <point x="220" y="692"/>
      <point x="186" y="696"/>
      <point x="154" y="698" type="curve" smooth="yes"/>
      <point x="122" y="700"/>
      <point x="89" y="700"/>
      <point x="78" y="700" type="curve" smooth="yes"/>
      <point x="48" y="700" type="line"/>
      <point x="48" y="695" type="line" smooth="yes"/>
      <point x="40" y="503"/>
      <point x="34" y="312"/>
      <point x="34" y="121" type="curve" smooth="yes"/>
      <point x="34" y="88"/>
      <point x="34" y="54"/>
      <point x="35" y="21" type="curve" smooth="yes"/>
    </contour>
    <contour>
      <point x="229" y="378" type="line"/>
      <point x="245" y="386"/>
      <point x="271" y="390"/>
      <point x="289" y="390" type="curve" smooth="yes"/>
      <point x="358" y="390"/>
      <point x="383" y="360"/>
      <point x="383" y="295" type="curve" smooth="yes"/>
      <point x="383" y="248"/>
      <point x="369" y="189"/>
      <point x="351" y="144" type="curve"/>
      <point x="336" y="141"/>
      <point x="320" y="140"/>
      <point x="304" y="140" type="curve" smooth="yes"/>
      <point x="277" y="140"/>
      <point x="249" y="143"/>
      <point x="223" y="148" type="curve"/>
    </contour>
  </outline>
</glyph>
<glyph name="c" format="2">
  <advance width="527"/>
  <unicode hex="0063"/>
  <outline>
    <contour>
      <point x="452" y="208" type="line"/>
      <point x="446" y="203" type="line"/>
      <point x="410" y="178"/>
      <point x="353" y="145"/>
      <point x="310" y="145" type="curve" smooth="yes"/>
      <point x="241" y="145"/>
      <point x="208" y="202"/>
      <point x="208" y="265" type="curve" smooth="yes"/>
      <point x="208" y="325"/>
      <point x="229" y="385"/>
      <point x="297" y="385" type="curve" smooth="yes"/>
      <point x="337" y="385"/>
      <point x="385" y="373"/>
      <point x="419" y="354" type="curve"/>
      <point x="424" y="352" type="line"/>
      <point x="509" y="479" type="line"/>
      <point x="504" y="482" type="line" smooth="yes"/>
      <point x="448" y="519"/>
      <point x="374" y="548"/>
      <point x="305" y="548" type="curve" smooth="yes"/>
      <point x="122" y="548"/>
      <point x="18" y="445"/>
      <point x="18" y="270" type="curve" smooth="yes"/>
      <point x="18" y="105"/>
      <point x="107" y="-13"/>
      <point x="291" y="-13" type="curve" smooth="yes"/>
      <point x="367" y="-13"/>
      <point x="454" y="13"/>
      <point x="514" y="60" type="curve" smooth="yes"/>
      <point x="518" y="63" type="line"/>
    </contour>
  </outline>
</glyph>
<glyph name="d" format="2">
  <advance width="596"/>
  <unicode hex="0064"/>
  <outline>
    <contour>
      <point x="561" y="18" type="line"/>
      <point x="561" y="21" type="line" smooth="yes"/>
      <point x="562" y="54"/>
      <point x="562" y="88"/>
      <point x="562" y="121" type="curve" smooth="yes"/>
      <point x="562" y="312"/>
      <point x="556" y="503"/>
      <point x="548" y="695" type="curve" smooth="yes"/>
      <point x="548" y="700" type="line"/>
      <point x="518" y="700" type="line" smooth="yes"/>
      <point x="507" y="700"/>
      <point x="474" y="700"/>
      <point x="442" y="698" type="curve" smooth="yes"/>
      <point x="410" y="696"/>
      <point x="376" y="692"/>
      <point x="364" y="684" type="curve" smooth="yes"/>
      <point x="361" y="682" type="line"/>
      <point x="372" y="510" type="line"/>
      <point x="335" y="518"/>
      <point x="296" y="523"/>
      <point x="258" y="523" type="curve" smooth="yes"/>
      <point x="102" y="523"/>
      <point x="16" y="438"/>
      <point x="16" y="289" type="curve" smooth="yes"/>
      <point x="16" y="79"/>
      <point x="131" y="-6"/>
      <point x="337" y="-6" type="curve" smooth="yes"/>
      <point x="383" y="-6"/>
      <point x="512" y="-2"/>
      <point x="557" y="16" type="curve"/>
    </contour>
    <contour>
      <point x="373" y="148" type="line"/>
      <point x="347" y="143"/>
      <point x="319" y="140"/>
      <point x="292" y="140" type="curve" smooth="yes"/>
      <point x="276" y="140"/>
      <point x="260" y="141"/>
      <point x="245" y="145" type="curve"/>
      <point x="227" y="189"/>
      <point x="213" y="248"/>
      <point x="213" y="295" type="curve" smooth="yes"/>
      <point x="213" y="360"/>
      <point x="238" y="390"/>
      <point x="307" y="390" type="curve" smooth="yes"/>
      <point x="325" y="390"/>
      <point x="351" y="386"/>
      <point x="367" y="378" type="curve"/>
    </contour>
  </outline>
</glyph>
<glyph name="f" format="2">
  <advance width="447"/>
  <unicode hex="0066"/>
  <outline>
    <contour>
      <point x="111" y="17" type="line"/>
      <point x="115" y="16" type="line"/>
      <point x="158" y="8"/>
      <point x="201" y="5"/>
      <point x="244" y="5" type="curve" smooth="yes"/>
      <point x="263" y="5"/>
      <point x="282" y="6"/>
      <point x="301" y="8" type="curve"/>
      <point x="306" y="8" type="line"/>
      <point x="306" y="13" type="line" smooth="yes"/>
      <point x="304" y="124"/>
      <point x="302" y="235"/>
      <point x="301" y="346" type="curve"/>
      <point x="423" y="353" type="line"/>
      <point x="423" y="495" type="line"/>
      <point x="301" y="504" type="line"/>
      <point x="305" y="546"/>
      <point x="313" y="579"/>
      <point x="362" y="579" type="curve" smooth="yes"/>
      <point x="390" y="579"/>
      <point x="419" y="574"/>
      <point x="447" y="570" type="curve"/>
      <point x="453" y="570" type="line"/>
      <point x="454" y="575" type="line"/>
      <point x="456" y="592"/>
      <point x="456" y="609"/>
      <point x="456" y="626" type="curve" smooth="yes"/>
      <point x="456" y="653"/>
      <point x="455" y="694"/>
      <point x="438" y="720" type="curve"/>
      <point x="436" y="722" type="line"/>
      <point x="434" y="722" type="line"/>
      <point x="407" y="730"/>
      <point x="379" y="732"/>
      <point x="351" y="732" type="curve" smooth="yes"/>
      <point x="294" y="732"/>
      <point x="235" y="719"/>
      <point x="187" y="688" type="curve" smooth="yes"/>
      <point x="117" y="644"/>
      <point x="95" y="570"/>
      <point x="91" y="496" type="curve"/>
      <point x="8" y="486" type="line"/>
      <point x="23" y="359" type="line"/>
      <point x="95" y="356" type="line"/>
      <point x="96" y="344"/>
      <point x="96" y="332"/>
      <point x="97" y="320" type="curve"/>
      <point x="100" y="221"/>
      <point x="105" y="121"/>
      <point x="111" y="22" type="curve"/>
    </contour>
  </outline>
</glyph>
<glyph name="g" format="2">
  <advance width="590"/>
  <unicode hex="0067"/>
  <outline>
    <contour>
      <point x="114" y="-160" type="line"/>
      <point x="118" y="-161" type="line"/>
      <point x="167" y="-180"/>
      <point x="253" y="-184"/>
      <point x="303" y="-184" type="curve" smooth="yes"/>
      <point x="442" y="-184"/>
      <point x="535" y="-89"/>
      <point x="553" y="38" type="curve" smooth="yes"/>
      <point x="558" y="76"/>
      <point x="558" y="115"/>
      <point x="558" y="153" type="curve" smooth="yes"/>
      <point x="558" y="276"/>
      <point x="550" y="399"/>
      <point x="539" y="521" type="curve"/>
      <point x="539" y="525" type="line"/>
      <point x="536" y="526" type="line"/>
      <point x="491" y="546"/>
      <point x="354" y="557"/>
      <point x="308" y="557" type="curve" smooth="yes"/>
      <point x="122" y="557"/>
      <point x="17" y="431"/>
      <point x="17" y="259" type="curve" smooth="yes"/>
      <point x="17" y="130"/>
      <point x="78" y="30"/>
      <point x="223" y="30" type="curve" smooth="yes"/>
      <point x="273" y="30"/>
      <point x="322" y="38"/>
      <point x="369" y="53" type="curve"/>
      <point x="368" y="-19"/>
      <point x="332" y="-32"/>
      <point x="258" y="-32" type="curve" smooth="yes"/>
      <point x="215" y="-32"/>
      <point x="170" y="-27"/>
      <point x="128" y="-17" type="curve"/>
      <point x="121" y="-16" type="line"/>
    </contour>
    <contour>
      <point x="243" y="177" type="curve"/>
      <point x="232" y="207"/>
      <point x="229" y="267"/>
      <point x="229" y="298" type="curve" smooth="yes"/>
      <point x="229" y="368"/>
      <point x="244" y="419"/>
      <point x="324" y="419" type="curve" smooth="yes"/>
      <point x="340" y="419"/>
      <point x="356" y="417"/>
      <point x="372" y="415" type="curve"/>
      <point x="377" y="357"/>
      <point x="380" y="298"/>
      <point x="380" y="240" type="curve" smooth="yes"/>
      <point x="380" y="217"/>
      <point x="380" y="193"/>
      <point x="378" y="170" type="curve"/>
      <point x="360" y="166"/>
      <point x="342" y="165"/>
      <point x="324" y="165" type="curve" smooth="yes"/>
      <point x="297" y="165"/>
      <point x="269" y="169"/>
    </contour>
  </outline>
</glyph>
<glyph name="h" format="2">
  <advance width="601"/>
  <unicode hex="0068"/>
  <outline>
    <contour>
      <point x="35" y="-12" type="line"/>
      <point x="223" y="-22" type="line"/>
      <point x="223" y="-16" type="line" smooth="yes"/>
      <point x="222" y="27"/>
      <point x="222" y="69"/>
      <point x="222" y="112" type="curve" smooth="yes"/>
      <point x="222" y="205"/>
      <point x="220" y="317"/>
      <point x="231" y="410" type="curve"/>
      <point x="245" y="415"/>
      <point x="263" y="417"/>
      <point x="277" y="417" type="curve" smooth="yes"/>
      <point x="345" y="417"/>
      <point x="371" y="371"/>
      <point x="378" y="309" type="curve" smooth="yes"/>
      <point x="385" y="259"/>
      <point x="386" y="207"/>
      <point x="386" y="156" type="curve" smooth="yes"/>
      <point x="386" y="99"/>
      <point x="384" y="41"/>
      <point x="378" y="-15" type="curve"/>
      <point x="378" y="-21" type="line"/>
      <point x="384" y="-22" type="line"/>
      <point x="393" y="-22"/>
      <point x="403" y="-22"/>
      <point x="412" y="-22" type="curve" smooth="yes"/>
      <point x="459" y="-22"/>
      <point x="517" y="-18"/>
      <point x="561" y="1" type="curve"/>
      <point x="565" y="3" type="line"/>
      <point x="565" y="6" type="line"/>
      <point x="570" y="64"/>
      <point x="571" y="121"/>
      <point x="571" y="179" type="curve" smooth="yes"/>
      <point x="571" y="257"/>
      <point x="568" y="382"/>
      <point x="542" y="457" type="curve" smooth="yes"/>
      <point x="516" y="532"/>
      <point x="441" y="549"/>
      <point x="370" y="549" type="curve" smooth="yes"/>
      <point x="324" y="549"/>
      <point x="274" y="542"/>
      <point x="229" y="530" type="curve"/>
      <point x="232" y="693" type="line"/>
      <point x="228" y="694" type="line"/>
      <point x="204" y="708"/>
      <point x="142" y="710"/>
      <point x="118" y="710" type="curve" smooth="yes"/>
      <point x="99" y="710"/>
      <point x="80" y="709"/>
      <point x="61" y="708" type="curve"/>
      <point x="56" y="707" type="line"/>
      <point x="56" y="703" type="line"/>
      <point x="42" y="508"/>
      <point x="33" y="312"/>
      <point x="33" y="117" type="curve" smooth="yes"/>
      <point x="33" y="76"/>
      <point x="33" y="35"/>
      <point x="35" y="-6" type="curve" smooth="yes"/>
    </contour>
  </outline>
</glyph>
<glyph name="j" format="2">
  <advance width="266"/>
  <unicode hex="006A"/>
  <outline>
    <contour>
      <point x="-86" y="-151" type="line"/>
      <point x="-82" y="-152" type="line" smooth="yes"/>
      <point x="-49" y="-161"/>
      <point x="-15" y="-166"/>
      <point x="19" y="-166" type="curve" smooth="yes"/>
      <point x="206" y="-166"/>
      <point x="228" y="-54"/>
      <point x="235" y="96" type="curve" smooth="yes"/>
      <point x="235" y="114"/>
      <point x="236" y="132"/>
      <point x="236" y="149" type="curve" smooth="yes"/>
      <point x="236" y="278"/>
      <point x="225" y="409"/>
      <point x="210" y="537" type="curve"/>
      <point x="209" y="542" type="line"/>
      <point x="204" y="542" type="line"/>
      <point x="190" y="544"/>
      <point x="175" y="545"/>
      <point x="160" y="545" type="curve" smooth="yes"/>
      <point x="122" y="545"/>
      <point x="63" y="537"/>
      <point x="29" y="515" type="curve" smooth="yes"/>
      <point x="26" y="513" type="line"/>
      <point x="26" y="509" type="line"/>
      <point x="42" y="392"/>
      <point x="45" y="264"/>
      <point x="45" y="146" type="curve" smooth="yes"/>
      <point x="45" y="111"/>
      <point x="47" y="67"/>
      <point x="41" y="33" type="curve" smooth="yes"/>
      <point x="34" y="-9"/>
      <point x="-6" y="-19"/>
      <point x="-49" y="-19" type="curve" smooth="yes"/>
      <point x="-64" y="-19"/>
      <point x="-79" y="-18"/>
      <point x="-94" y="-15" type="curve"/>
      <point x="-102" y="-14" type="line"/>
    </contour>
    <contour>
      <point x="5" y="651" type="curve" smooth="yes"/>
      <point x="5" y="599"/>
      <point x="73" y="578"/>
      <point x="112" y="578" type="curve" smooth="yes"/>
      <point x="152" y="578"/>
      <point x="219" y="599"/>
      <point x="219" y="651" type="curve" smooth="yes"/>
      <point x="219" y="703"/>
      <point x="153" y="725"/>
      <point x="112" y="725" type="curve" smooth="yes"/>
      <point x="72" y="725"/>
      <point x="5" y="704"/>
    </contour>
  </outline>
</glyph>
<glyph name="k" format="2">
  <advance width="569"/>
  <unicode hex="006B"/>
  <outline>
    <contour>
      <point x="48" y="8" type="line"/>
      <point x="53" y="8" type="line"/>
      <point x="90" y="0"/>
      <point x="129" y="-4"/>
      <point x="167" y="-4" type="curve" smooth="yes"/>
      <point x="185" y="-4"/>
      <point x="202" y="-3"/>
      <point x="220" y="1" type="curve" smooth="yes"/>
      <point x="224" y="2" type="line"/>
      <point x="224" y="6" type="line" smooth="yes"/>
      <point x="225" y="60"/>
      <point x="225" y="114"/>
      <point x="225" y="168" type="curve"/>
      <point x="253" y="192" type="line"/>
      <point x="376" y="-3" type="line"/>
      <point x="379" y="-3" type="line"/>
      <point x="389" y="-4"/>
      <point x="398" y="-4"/>
      <point x="407" y="-4" type="curve" smooth="yes"/>
      <point x="454" y="-4"/>
      <point x="513" y="2"/>
      <point x="558" y="19" type="curve" smooth="yes"/>
      <point x="563" y="21" type="line"/>
      <point x="561" y="26" type="line"/>
      <point x="526" y="134"/>
      <point x="468" y="238"/>
      <point x="409" y="335" type="curve"/>
      <point x="552" y="527" type="line"/>
      <point x="548" y="531" type="line"/>
      <point x="511" y="564"/>
      <point x="448" y="582"/>
      <point x="399" y="586" type="curve"/>
      <point x="397" y="586" type="line"/>
      <point x="222" y="409" type="line"/>
      <point x="220" y="501"/>
      <point x="217" y="593"/>
      <point x="210" y="685" type="curve"/>
      <point x="209" y="687" type="line"/>
      <point x="207" y="689" type="line"/>
      <point x="183" y="706"/>
      <point x="106" y="708"/>
      <point x="78" y="708" type="curve" smooth="yes"/>
      <point x="67" y="708"/>
      <point x="56" y="708"/>
      <point x="45" y="707" type="curve"/>
      <point x="39" y="707" type="line"/>
      <point x="39" y="702" type="line" smooth="yes"/>
      <point x="38" y="600"/>
      <point x="38" y="497"/>
      <point x="38" y="395" type="curve" smooth="yes"/>
      <point x="38" y="268"/>
      <point x="39" y="140"/>
      <point x="48" y="13" type="curve"/>
    </contour>
  </outline>
</glyph>
<glyph name="l" format="2">
  <advance width="269"/>
  <unicode hex="006C"/>
  <outline>
    <contour>
      <point x="44" y="20" type="line"/>
      <point x="49" y="19" type="line" smooth="yes"/>
      <point x="94" y="11"/>
      <point x="142" y="6"/>
      <point x="188" y="6" type="curve" smooth="yes"/>
      <point x="202" y="6"/>
      <point x="215" y="6"/>
      <point x="228" y="8" type="curve" smooth="yes"/>
      <point x="234" y="9" type="line"/>
      <point x="234" y="14" type="line" smooth="yes"/>
      <point x="231" y="151"/>
      <point x="230" y="288"/>
      <point x="230" y="425" type="curve" smooth="yes"/>
      <point x="230" y="505"/>
      <point x="230" y="585"/>
      <point x="234" y="664" type="curve"/>
      <point x="234" y="668" type="line"/>
      <point x="230" y="670" type="line" smooth="yes"/>
      <point x="193" y="687"/>
      <point x="102" y="689"/>
      <point x="65" y="689" type="curve" smooth="yes"/>
      <point x="33" y="689" type="line"/>
      <point x="33" y="683" type="line" smooth="yes"/>
      <point x="33" y="649"/>
      <point x="33" y="614"/>
      <point x="33" y="580" type="curve" smooth="yes"/>
      <point x="33" y="397"/>
      <point x="32" y="206"/>
      <point x="44" y="24" type="curve"/>
    </contour>
  </outline>
</glyph>
<glyph name="m" format="2">
  <advance width="786"/>
  <unicode hex="006D"/>
  <outline>
    <contour>
      <point x="51" y="9" type="line"/>
      <point x="54" y="8" type="line"/>
      <point x="83" y="1"/>
      <point x="114" y="-2"/>
      <point x="143" y="-2" type="curve" smooth="yes"/>
      <point x="171" y="-2"/>
      <point x="200" y="1"/>
      <point x="227" y="8" type="curve"/>
      <point x="232" y="9" type="line"/>
      <point x="232" y="14" type="line"/>
      <point x="224" y="143"/>
      <point x="217" y="272"/>
      <point x="217" y="401" type="curve" smooth="yes"/>
      <point x="217" y="408" type="line"/>
      <point x="226" y="411"/>
      <point x="238" y="413"/>
      <point x="248" y="413" type="curve" smooth="yes"/>
      <point x="288" y="413"/>
      <point x="303" y="390"/>
      <point x="305" y="351" type="curve" smooth="yes"/>
      <point x="307" y="320"/>
      <point x="307" y="288"/>
      <point x="309" y="257" type="curve" smooth="yes"/>
      <point x="312" y="179"/>
      <point x="317" y="101"/>
      <point x="322" y="23" type="curve"/>
      <point x="322" y="19" type="line"/>
      <point x="327" y="18" type="line" smooth="yes"/>
      <point x="349" y="14"/>
      <point x="372" y="13"/>
      <point x="395" y="13" type="curve" smooth="yes"/>
      <point x="419" y="13"/>
      <point x="443" y="15"/>
      <point x="466" y="21" type="curve"/>
      <point x="471" y="22" type="line"/>
      <point x="471" y="26" type="line" smooth="yes"/>
      <point x="472" y="134"/>
      <point x="472" y="241"/>
      <point x="476" y="348" type="curve" smooth="yes"/>
      <point x="476" y="356"/>
      <point x="476" y="369"/>
      <point x="477" y="382" type="curve" smooth="yes"/>
      <point x="478" y="396"/>
      <point x="481" y="406"/>
      <point x="486" y="409" type="curve" smooth="yes"/>
      <point x="489" y="411"/>
      <point x="492" y="412"/>
      <point x="496" y="413" type="curve" smooth="yes"/>
      <point x="501" y="414"/>
      <point x="506" y="414"/>
      <point x="510" y="414" type="curve" smooth="yes"/>
      <point x="550" y="414"/>
      <point x="555" y="384"/>
      <point x="558" y="347" type="curve" smooth="yes"/>
      <point x="564" y="283"/>
      <point x="565" y="217"/>
      <point x="565" y="153" type="curve" smooth="yes"/>
      <point x="565" y="110"/>
      <point x="565" y="65"/>
      <point x="558" y="22" type="curve"/>
      <point x="557" y="18" type="line"/>
      <point x="562" y="16" type="line"/>
      <point x="590" y="7"/>
      <point x="621" y="4"/>
      <point x="649" y="4" type="curve" smooth="yes"/>
      <point x="679" y="4"/>
      <point x="710" y="9"/>
      <point x="739" y="19" type="curve" smooth="yes"/>
      <point x="742" y="20" type="line"/>
      <point x="743" y="24" type="line"/>
      <point x="751" y="109"/>
      <point x="755" y="195"/>
      <point x="755" y="280" type="curve" smooth="yes"/>
      <point x="755" y="307"/>
      <point x="755" y="334"/>
      <point x="754" y="361" type="curve" smooth="yes"/>
      <point x="752" y="389"/>
      <point x="749" y="416"/>
      <point x="743" y="442" type="curve" smooth="yes"/>
      <point x="723" y="523"/>
      <point x="656" y="558"/>
      <point x="575" y="558" type="curve" smooth="yes"/>
      <point x="515" y="558"/>
      <point x="456" y="539"/>
      <point x="404" y="512" type="curve"/>
      <point x="346" y="541"/>
      <point x="266" y="560"/>
      <point x="201" y="560" type="curve" smooth="yes"/>
      <point x="144" y="560"/>
      <point x="90" y="546"/>
      <point x="44" y="512" type="curve"/>
      <point x="42" y="510" type="line"/>
      <point x="42" y="508" type="line"/>
      <point x="35" y="431"/>
      <point x="32" y="353"/>
      <point x="32" y="275" type="curve" smooth="yes"/>
      <point x="32" y="188"/>
      <point x="36" y="99"/>
      <point x="50" y="13" type="curve"/>
    </contour>
  </outline>
</glyph>
<glyph name="n" format="2">
  <advance width="573"/>
  <unicode hex="006E"/>
  <outline>
    <contour>
      <point x="52" y="3" type="line"/>
      <point x="56" y="2" type="line"/>
      <point x="97" y="-4"/>
      <point x="139" y="-7"/>
      <point x="181" y="-7" type="curve" smooth="yes"/>
      <point x="198" y="-7"/>
      <point x="214" y="-6"/>
      <point x="231" y="-5" type="curve"/>
      <point x="237" y="-4" type="line"/>
      <point x="237" y="1" type="line"/>
      <point x="230" y="77"/>
      <point x="228" y="153"/>
      <point x="228" y="229" type="curve" smooth="yes"/>
      <point x="228" y="288"/>
      <point x="229" y="346"/>
      <point x="236" y="404" type="curve"/>
      <point x="250" y="412"/>
      <point x="269" y="418"/>
      <point x="284" y="418" type="curve" smooth="yes"/>
      <point x="320" y="418"/>
      <point x="333" y="390"/>
      <point x="340" y="356" type="curve" smooth="yes"/>
      <point x="347" y="324"/>
      <point x="350" y="281"/>
      <point x="352" y="238" type="curve" smooth="yes"/>
      <point x="353" y="195"/>
      <point x="353" y="151"/>
      <point x="353" y="117" type="curve" smooth="yes"/>
      <point x="353" y="80"/>
      <point x="353" y="44"/>
      <point x="352" y="7" type="curve"/>
      <point x="351" y="1" type="line"/>
      <point x="357" y="1" type="line"/>
      <point x="372" y="0"/>
      <point x="387" y="0"/>
      <point x="402" y="0" type="curve" smooth="yes"/>
      <point x="443" y="0"/>
      <point x="484" y="2"/>
      <point x="524" y="10" type="curve" smooth="yes"/>
      <point x="528" y="11" type="line"/>
      <point x="528" y="15" type="line"/>
      <point x="539" y="101"/>
      <point x="545" y="190"/>
      <point x="545" y="277" type="curve" smooth="yes"/>
      <point x="545" y="311"/>
      <point x="544" y="345"/>
      <point x="539" y="379" type="curve" smooth="yes"/>
      <point x="518" y="515"/>
      <point x="396" y="567"/>
      <point x="267" y="567" type="curve" smooth="yes"/>
      <point x="190" y="567"/>
      <point x="111" y="551"/>
      <point x="37" y="529" type="curve" smooth="yes"/>
      <point x="33" y="528" type="line"/>
      <point x="33" y="524" type="line" smooth="yes"/>
      <point x="33" y="501"/>
      <point x="33" y="478"/>
      <point x="33" y="455" type="curve" smooth="yes"/>
      <point x="33" y="364"/>
      <point x="34" y="274"/>
      <point x="37" y="184" type="curve" smooth="yes"/>
      <point x="39" y="125"/>
      <point x="42" y="65"/>
      <point x="51" y="7" type="curve"/>
    </contour>
  </outline>
</glyph>
<glyph name="o" format="2">
  <advance width="616"/>
  <unicode hex="006F"/>
  <unicode hex="00F8"/>
  <outline>
    <contour>
      <point x="308" y="148" type="curve" smooth="yes"/>
      <point x="243" y="148"/>
      <point x="215" y="222"/>
      <point x="215" y="279" type="curve" smooth="yes"/>
      <point x="215" y="335"/>
      <point x="243" y="409"/>
      <point x="308" y="409" type="curve" smooth="yes"/>
      <point x="372" y="409"/>
      <point x="401" y="334"/>
      <point x="401" y="279" type="curve" smooth="yes"/>
      <point x="401" y="223"/>
      <point x="372" y="148"/>
    </contour>
    <contour>
      <point x="14" y="273" type="curve" smooth="yes"/>
      <point x="14" y="113"/>
      <point x="144" y="-4"/>
      <point x="308" y="-4" type="curve" smooth="yes"/>
      <point x="472" y="-4"/>
      <point x="601" y="113"/>
      <point x="601" y="273" type="curve" smooth="yes"/>
      <point x="601" y="432"/>
      <point x="472" y="549"/>
      <point x="308" y="549" type="curve" smooth="yes"/>
      <point x="144" y="549"/>
      <point x="14" y="432"/>
    </contour>
  </outline>
</glyph>
<glyph name="p" format="2">
  <advance width="596"/>
  <unicode hex="0070"/>
  <outline>
    <contour>
      <point x="48" y="-165" type="line"/>
      <point x="78" y="-166" type="line" smooth="yes"/>
      <point x="89" y="-166"/>
      <point x="122" y="-165"/>
      <point x="154" y="-163" type="curve" smooth="yes"/>
      <point x="186" y="-161"/>
      <point x="220" y="-158"/>
      <point x="232" y="-150" type="curve" smooth="yes"/>
      <point x="235" y="-148" type="line"/>
      <point x="224" y="25" type="line"/>
      <point x="262" y="16"/>
      <point x="300" y="11"/>
      <point x="339" y="11" type="curve" smooth="yes"/>
      <point x="494" y="11"/>
      <point x="580" y="97"/>
      <point x="580" y="246" type="curve" smooth="yes"/>
      <point x="580" y="456"/>
      <point x="465" y="541"/>
      <point x="259" y="541" type="curve" smooth="yes"/>
      <point x="213" y="541"/>
      <point x="84" y="535"/>
      <point x="39" y="517" type="curve"/>
      <point x="35" y="516" type="line"/>
      <point x="35" y="512" type="line" smooth="yes"/>
      <point x="34" y="479"/>
      <point x="34" y="446"/>
      <point x="34" y="413" type="curve" smooth="yes"/>
      <point x="34" y="222"/>
      <point x="40" y="31"/>
      <point x="48" y="-160" type="curve" smooth="yes"/>
    </contour>
    <contour>
      <point x="223" y="385" type="line"/>
      <point x="250" y="391"/>
      <point x="279" y="394"/>
      <point x="306" y="394" type="curve" smooth="yes"/>
      <point x="322" y="394"/>
      <point x="337" y="393"/>
      <point x="351" y="390" type="curve"/>
      <point x="369" y="345"/>
      <point x="383" y="286"/>
      <point x="383" y="240" type="curve" smooth="yes"/>
      <point x="383" y="175"/>
      <point x="358" y="145"/>
      <point x="289" y="145" type="curve" smooth="yes"/>
      <point x="271" y="145"/>
      <point x="245" y="148"/>
      <point x="229" y="157" type="curve"/>
    </contour>
  </outline>
</glyph>
<glyph name="q" format="2">
  <advance width="596"/>
  <unicode hex="0071"/>
  <outline>
    <contour>
      <point x="361" y="-148" type="line"/>
      <point x="364" y="-150" type="line" smooth="yes"/>
      <point x="376" y="-158"/>
      <point x="410" y="-161"/>
      <point x="442" y="-163" type="curve" smooth="yes"/>
      <point x="474" y="-165"/>
      <point x="507" y="-166"/>
      <point x="518" y="-166" type="curve" smooth="yes"/>
      <point x="548" y="-165" type="line"/>
      <point x="548" y="-160" type="line" smooth="yes"/>
      <point x="556" y="31"/>
      <point x="562" y="222"/>
      <point x="562" y="413" type="curve" smooth="yes"/>
      <point x="562" y="446"/>
      <point x="562" y="479"/>
      <point x="561" y="512" type="curve" smooth="yes"/>
      <point x="561" y="516" type="line"/>
      <point x="557" y="517" type="line"/>
      <point x="512" y="535"/>
      <point x="383" y="541"/>
      <point x="337" y="541" type="curve" smooth="yes"/>
      <point x="131" y="541"/>
      <point x="16" y="456"/>
      <point x="16" y="246" type="curve" smooth="yes"/>
      <point x="16" y="97"/>
      <point x="102" y="11"/>
      <point x="257" y="11" type="curve" smooth="yes"/>
      <point x="296" y="11"/>
      <point x="334" y="16"/>
      <point x="372" y="25" type="curve"/>
    </contour>
    <contour>
      <point x="367" y="157" type="line"/>
      <point x="351" y="148"/>
      <point x="325" y="145"/>
      <point x="307" y="145" type="curve" smooth="yes"/>
      <point x="238" y="145"/>
      <point x="213" y="175"/>
      <point x="213" y="240" type="curve" smooth="yes"/>
      <point x="213" y="286"/>
      <point x="227" y="345"/>
      <point x="245" y="390" type="curve"/>
      <point x="259" y="393"/>
      <point x="274" y="394"/>
      <point x="290" y="394" type="curve" smooth="yes"/>
      <point x="317" y="394"/>
      <point x="346" y="391"/>
      <point x="373" y="385" type="curve"/>
    </contour>
  </outline>
</glyph>
<glyph name="r" format="2">
  <advance width="566"/>
  <unicode hex="0072"/>
  <outline>
    <contour>
      <point x="54" y="15" type="line"/>
      <point x="57" y="14" type="line" smooth="yes"/>
      <point x="93" y="1"/>
      <point x="142" y="-3"/>
      <point x="179" y="-3" type="curve" smooth="yes"/>
      <point x="198" y="-3"/>
      <point x="216" y="-2"/>
      <point x="234" y="0" type="curve"/>
      <point x="240" y="1" type="line"/>
      <point x="239" y="6" type="line"/>
      <point x="228" y="103"/>
      <point x="220" y="201"/>
      <point x="220" y="298" type="curve" smooth="yes"/>
      <point x="220" y="326"/>
      <point x="221" y="354"/>
      <point x="224" y="382" type="curve"/>
      <point x="245" y="394"/>
      <point x="276" y="402"/>
      <point x="299" y="402" type="curve" smooth="yes"/>
      <point x="307" y="402" type="line" smooth="yes"/>
      <point x="313" y="402"/>
      <point x="320" y="402"/>
      <point x="327" y="401" type="curve" smooth="yes"/>
      <point x="333" y="400"/>
      <point x="339" y="399"/>
      <point x="344" y="397" type="curve"/>
      <point x="357" y="391"/>
      <point x="366" y="375"/>
      <point x="372" y="354" type="curve" smooth="yes"/>
      <point x="377" y="334"/>
      <point x="379" y="312"/>
      <point x="380" y="298" type="curve"/>
      <point x="381" y="293" type="line"/>
      <point x="386" y="293" type="line"/>
      <point x="401" y="291"/>
      <point x="416" y="291"/>
      <point x="431" y="291" type="curve" smooth="yes"/>
      <point x="465" y="291"/>
      <point x="500" y="293"/>
      <point x="533" y="302" type="curve"/>
      <point x="536" y="302" type="line"/>
      <point x="537" y="305" type="line"/>
      <point x="550" y="335"/>
      <point x="559" y="376"/>
      <point x="559" y="408" type="curve" smooth="yes"/>
      <point x="559" y="455"/>
      <point x="542" y="495"/>
      <point x="495" y="516" type="curve" smooth="yes"/>
      <point x="468" y="528"/>
      <point x="437" y="535"/>
      <point x="407" y="535" type="curve" smooth="yes"/>
      <point x="371" y="535"/>
      <point x="302" y="520"/>
      <point x="279" y="483" type="curve"/>
      <point x="225" y="543" type="line"/>
      <point x="222" y="543" type="line"/>
      <point x="202" y="545"/>
      <point x="182" y="545"/>
      <point x="162" y="545" type="curve" smooth="yes"/>
      <point x="127" y="545"/>
      <point x="71" y="544"/>
      <point x="38" y="530" type="curve"/>
      <point x="34" y="529" type="line"/>
      <point x="34" y="525" type="line" smooth="yes"/>
      <point x="34" y="493"/>
      <point x="33" y="462"/>
      <point x="33" y="430" type="curve" smooth="yes"/>
      <point x="33" y="351"/>
      <point x="34" y="273"/>
      <point x="38" y="194" type="curve" smooth="yes"/>
      <point x="40" y="136"/>
      <point x="43" y="76"/>
      <point x="53" y="19" type="curve"/>
    </contour>
  </outline>
</glyph>
<glyph name="s" format="2">
  <advance width="553"/>
  <unicode hex="0073"/>
  <outline>
    <contour>
      <point x="34" y="21" type="line"/>
      <point x="39" y="21" type="line"/>
      <point x="110" y="12"/>
      <point x="173" y="0"/>
      <point x="245" y="0" type="curve" smooth="yes"/>
      <point x="351" y="0"/>
      <point x="482" y="23"/>
      <point x="529" y="132" type="curve" smooth="yes"/>
      <point x="536" y="149"/>
      <point x="541" y="168"/>
      <point x="541" y="188" type="curve" smooth="yes"/>
      <point x="541" y="273"/>
      <point x="462" y="303"/>
      <point x="389" y="320" type="curve" smooth="yes"/>
      <point x="352" y="329"/>
      <point x="315" y="334"/>
      <point x="287" y="342" type="curve" smooth="yes"/>
      <point x="259" y="350"/>
      <point x="246" y="359"/>
      <point x="246" y="372" type="curve" smooth="yes"/>
      <point x="246" y="382"/>
      <point x="253" y="392"/>
      <point x="264" y="397" type="curve" smooth="yes"/>
      <point x="278" y="403"/>
      <point x="311" y="406"/>
      <point x="346" y="408" type="curve" smooth="yes"/>
      <point x="380" y="409"/>
      <point x="416" y="408"/>
      <point x="435" y="408" type="curve" smooth="yes"/>
      <point x="455" y="408"/>
      <point x="475" y="408"/>
      <point x="495" y="407" type="curve"/>
      <point x="503" y="406" type="line"/>
      <point x="501" y="414" type="line" smooth="yes"/>
      <point x="492" y="454"/>
      <point x="484" y="494"/>
      <point x="474" y="534" type="curve" smooth="yes"/>
      <point x="473" y="538" type="line"/>
      <point x="469" y="538" type="line"/>
      <point x="430" y="541"/>
      <point x="392" y="542"/>
      <point x="353" y="542" type="curve" smooth="yes"/>
      <point x="276" y="542"/>
      <point x="161" y="540"/>
      <point x="92" y="498" type="curve" smooth="yes"/>
      <point x="49" y="472"/>
      <point x="19" y="424"/>
      <point x="19" y="374" type="curve" smooth="yes"/>
      <point x="19" y="369"/>
      <point x="19" y="363"/>
      <point x="20" y="358" type="curve" smooth="yes"/>
      <point x="27" y="312"/>
      <point x="61" y="270"/>
      <point x="103" y="249" type="curve" smooth="yes"/>
      <point x="132" y="234"/>
      <point x="166" y="229"/>
      <point x="198" y="226" type="curve"/>
      <point x="210" y="224"/>
      <point x="237" y="221"/>
      <point x="262" y="213" type="curve" smooth="yes"/>
      <point x="288" y="206"/>
      <point x="304" y="196"/>
      <point x="304" y="185" type="curve" smooth="yes"/>
      <point x="304" y="170"/>
      <point x="285" y="161"/>
      <point x="256" y="156" type="curve" smooth="yes"/>
      <point x="229" y="151"/>
      <point x="197" y="151"/>
      <point x="183" y="151" type="curve" smooth="yes"/>
      <point x="137" y="151"/>
      <point x="90" y="153"/>
      <point x="45" y="159" type="curve" smooth="yes"/>
      <point x="38" y="160" type="line"/>
      <point x="38" y="154" type="line" smooth="yes"/>
      <point x="36" y="111"/>
      <point x="34" y="69"/>
      <point x="34" y="26" type="curve" smooth="yes"/>
    </contour>
  </outline>
</glyph>
<glyph name="t" format="2">
  <advance width="529"/>
  <unicode hex="0074"/>
  <outline>
    <contour>
      <point x="3" y="383" type="line"/>
      <point x="128" y="383" type="line"/>
      <point x="126" y="321"/>
      <point x="124" y="259"/>
      <point x="124" y="197" type="curve" smooth="yes"/>
      <point x="124" y="187"/>
      <point x="124" y="178"/>
      <point x="124" y="168" type="curve" smooth="yes"/>
      <point x="129" y="54"/>
      <point x="191" y="-5"/>
      <point x="310" y="-5" type="curve" smooth="yes"/>
      <point x="326" y="-5"/>
      <point x="370" y="-1"/>
      <point x="413" y="5" type="curve" smooth="yes"/>
      <point x="454" y="12"/>
      <point x="498" y="22"/>
      <point x="510" y="37" type="curve"/>
      <point x="511" y="39" type="line"/>
      <point x="495" y="173" type="line"/>
      <point x="488" y="171" type="line"/>
      <point x="462" y="160"/>
      <point x="428" y="154"/>
      <point x="401" y="154" type="curve" smooth="yes"/>
      <point x="365" y="154"/>
      <point x="352" y="164"/>
      <point x="346" y="179" type="curve" smooth="yes"/>
      <point x="343" y="187"/>
      <point x="342" y="197"/>
      <point x="341" y="209" type="curve"/>
      <point x="341" y="221"/>
      <point x="341" y="234"/>
      <point x="341" y="248" type="curve" smooth="yes"/>
      <point x="341" y="291"/>
      <point x="343" y="333"/>
      <point x="343" y="376" type="curve"/>
      <point x="499" y="398" type="line"/>
      <point x="494" y="535" type="line"/>
      <point x="348" y="535" type="line"/>
      <point x="349" y="591"/>
      <point x="351" y="646"/>
      <point x="352" y="702" type="curve"/>
      <point x="353" y="707" type="line"/>
      <point x="347" y="708" type="line"/>
      <point x="337" y="709"/>
      <point x="327" y="709"/>
      <point x="317" y="709" type="curve" smooth="yes"/>
      <point x="261" y="709"/>
      <point x="199" y="702"/>
      <point x="147" y="682" type="curve"/>
      <point x="143" y="680" type="line"/>
      <point x="143" y="677" type="line"/>
      <point x="140" y="627"/>
      <point x="138" y="577"/>
      <point x="135" y="528" type="curve"/>
      <point x="15" y="529" type="line"/>
    </contour>
  </outline>
</glyph>
<glyph name="v" format="2">
  <advance width="524"/>
  <unicode hex="0076"/>
  <outline>
    <contour>
      <point x="124" y="17" type="line"/>
      <point x="127" y="16" type="line"/>
      <point x="178" y="5"/>
      <point x="232" y="-2"/>
      <point x="285" y="-2" type="curve" smooth="yes"/>
      <point x="300" y="-2"/>
      <point x="316" y="-1"/>
      <point x="331" y="1" type="curve"/>
      <point x="335" y="1" type="line"/>
      <point x="336" y="5" type="line"/>
      <point x="377" y="102"/>
      <point x="416" y="200"/>
      <point x="451" y="299" type="curve" smooth="yes"/>
      <point x="478" y="374"/>
      <point x="505" y="451"/>
      <point x="522" y="529" type="curve" smooth="yes"/>
      <point x="523" y="534" type="line"/>
      <point x="517" y="535" type="line" smooth="yes"/>
      <point x="485" y="541"/>
      <point x="452" y="544"/>
      <point x="419" y="544" type="curve" smooth="yes"/>
      <point x="396" y="544"/>
      <point x="372" y="543"/>
      <point x="349" y="539" type="curve"/>
      <point x="345" y="539" type="line"/>
      <point x="344" y="535" type="line" smooth="yes"/>
      <point x="330" y="481"/>
      <point x="315" y="427"/>
      <point x="299" y="374" type="curve" smooth="yes"/>
      <point x="288" y="337"/>
      <point x="277" y="300"/>
      <point x="262" y="264" type="curve"/>
      <point x="226" y="354"/>
      <point x="200" y="449"/>
      <point x="186" y="544" type="curve"/>
      <point x="185" y="549" type="line"/>
      <point x="180" y="549" type="line"/>
      <point x="159" y="552"/>
      <point x="136" y="553"/>
      <point x="114" y="553" type="curve" smooth="yes"/>
      <point x="84" y="553"/>
      <point x="39" y="551"/>
      <point x="11" y="535" type="curve"/>
      <point x="7" y="533" type="line"/>
      <point x="8" y="529" type="line"/>
      <point x="26" y="430"/>
      <point x="45" y="332"/>
      <point x="67" y="234" type="curve" smooth="yes"/>
      <point x="83" y="162"/>
      <point x="99" y="90"/>
      <point x="122" y="20" type="curve"/>
    </contour>
  </outline>
</glyph>
<glyph name="x" format="2">
  <advance width="555"/>
  <unicode hex="0078"/>
  <outline>
    <contour>
      <point x="-1" y="1" type="line"/>
      <point x="6" y="-2" type="line"/>
      <point x="44" y="-14"/>
      <point x="84" y="-20"/>
      <point x="123" y="-20" type="curve" smooth="yes"/>
      <point x="144" y="-20"/>
      <point x="164" y="-18"/>
      <point x="185" y="-15" type="curve"/>
      <point x="187" y="-14" type="line"/>
      <point x="277" y="111" type="line"/>
      <point x="359" y="-9" type="line"/>
      <point x="361" y="-10" type="line"/>
      <point x="383" y="-16"/>
      <point x="409" y="-17"/>
      <point x="431" y="-17" type="curve" smooth="yes"/>
      <point x="471" y="-17"/>
      <point x="510" y="-11"/>
      <point x="548" y="1" type="curve" smooth="yes"/>
      <point x="555" y="3" type="line"/>
      <point x="398" y="282" type="line"/>
      <point x="523" y="494" type="line"/>
      <point x="521" y="497" type="line"/>
      <point x="494" y="528"/>
      <point x="378" y="535"/>
      <point x="346" y="535" type="curve"/>
      <point x="342" y="536" type="line"/>
      <point x="277" y="438" type="line"/>
      <point x="207" y="538" type="line"/>
      <point x="205" y="538" type="line"/>
      <point x="193" y="541"/>
      <point x="180" y="541"/>
      <point x="168" y="541" type="curve" smooth="yes"/>
      <point x="121" y="541"/>
      <point x="74" y="530"/>
      <point x="30" y="512" type="curve"/>
      <point x="24" y="510" type="line"/>
      <point x="168" y="268" type="line"/>
    </contour>
  </outline>
</glyph>
<glyph name="z" format="2">
  <advance width="472"/>
  <unicode hex="007A"/>
  <outline>
    <contour>
      <point x="45" y="-5" type="line"/>
      <point x="50" y="-5" type="line" smooth="yes"/>
      <point x="116" y="-8"/>
      <point x="182" y="-10"/>
      <point x="249" y="-10" type="curve" smooth="yes"/>
      <point x="316" y="-10"/>
      <point x="384" y="-9"/>
      <point x="452" y="-1" type="curve"/>
      <point x="457" y="0" type="line"/>
      <point x="446" y="140" type="line"/>
      <point x="441" y="139" type="line"/>
      <point x="396" y="137"/>
      <point x="352" y="136"/>
      <point x="308" y="136" type="curve" smooth="yes"/>
      <point x="289" y="136"/>
      <point x="269" y="136"/>
      <point x="250" y="137" type="curve"/>
      <point x="437" y="414" type="line"/>
      <point x="437" y="418" type="line" smooth="yes"/>
      <point x="437" y="449"/>
      <point x="434" y="497"/>
      <point x="423" y="526" type="curve"/>
      <point x="421" y="529" type="line"/>
      <point x="417" y="530" type="line"/>
      <point x="364" y="533"/>
      <point x="310" y="534"/>
      <point x="256" y="534" type="curve" smooth="yes"/>
      <point x="179" y="534"/>
      <point x="102" y="532"/>
      <point x="26" y="522" type="curve"/>
      <point x="21" y="521" type="line"/>
      <point x="27" y="378" type="line"/>
      <point x="202" y="399" type="line"/>
      <point x="28" y="136" type="line" smooth="yes"/>
      <point x="26" y="133"/>
      <point x="26" y="130"/>
      <point x="26" y="128" type="curve" smooth="yes"/>
      <point x="26" y="127"/>
      <point x="27" y="126"/>
      <point x="27" y="124" type="curve" smooth="yes"/>
      <point x="27" y="82"/>
      <point x="34" y="40"/>
      <point x="44" y="-1" type="curve" smooth="yes"/>
    </contour>
  </outline>
</glyph>
<glyph name="braceleft" format="2">
  <advance width="356"/>
  <unicode hex="007B"/>
  <outline>
    <contour>
      <point x="235" y="193" type="curve" smooth="yes"/>
      <point x="230" y="283"/>
      <point x="241" y="310"/>
      <point x="169" y="336" type="curve"/>
      <point x="169" y="336"/>
      <point x="237" y="342"/>
      <point x="237" y="433" type="curve" smooth="yes"/>
      <point x="237" y="525"/>
      <point x="227" y="564"/>
      <point x="327" y="566" type="curve"/>
      <point x="318" y="698" type="line"/>
      <point x="318" y="698"/>
      <point x="80" y="732"/>
      <point x="93" y="555" type="curve" smooth="yes"/>
      <point x="102" y="440"/>
      <point x="93" y="404"/>
      <point x="93" y="404" type="curve"/>
      <point x="27" y="385" type="line"/>
      <point x="27" y="292" type="line"/>
      <point x="97" y="264" type="line"/>
      <point x="97" y="264"/>
      <point x="96" y="223"/>
      <point x="93" y="147" type="curve" smooth="yes"/>
      <point x="90" y="71"/>
      <point x="118" y="-26"/>
      <point x="317" y="-10" type="curve"/>
      <point x="327" y="107" type="line"/>
      <point x="327" y="107"/>
      <point x="241" y="102"/>
    </contour>
  </outline>
</glyph>
<glyph name="bar" format="2">
  <advance width="210"/>
  <unicode hex="007C"/>
  <outline>
    <contour>
      <point x="40" y="720" type="line"/>
      <point x="40" y="-25" type="line"/>
      <point x="162" y="-44" type="line"/>
      <point x="171" y="741" type="line"/>
    </contour>
  </outline>
</glyph>
<glyph name="exclamdown" format="2">
  <advance width="284"/>
  <unicode hex="00A1"/>
  <outline>
    <contour>
      <point x="143" y="600" type="curve" smooth="yes"/>
      <point x="88" y="600"/>
      <point x="44" y="561"/>
      <point x="44" y="512" type="curve" smooth="yes"/>
      <point x="44" y="462"/>
      <point x="88" y="423"/>
      <point x="143" y="423" type="curve" smooth="yes"/>
      <point x="197" y="423"/>
      <point x="242" y="462"/>
      <point x="242" y="512" type="curve" smooth="yes"/>
      <point x="242" y="561"/>
      <point x="197" y="600"/>
    </contour>
    <contour>
      <point x="67" y="315" type="curve"/>
      <point x="67" y="315"/>
      <point x="32" y="47"/>
      <point x="35" y="-130" type="curve"/>
      <point x="100" y="-139"/>
      <point x="165" y="-136"/>
      <point x="229" y="-122" type="curve"/>
      <point x="199" y="326" type="line"/>
      <point x="155" y="331"/>
      <point x="110" y="328"/>
    </contour>
  </outline>
</glyph>
<glyph name="sterling" format="2">
  <advance width="758"/>
  <unicode hex="00A3"/>
  <outline>
    <contour>
      <point x="522" y="-10" type="curve" smooth="yes"/>
      <point x="439" y="-10"/>
      <point x="379" y="19"/>
      <point x="322" y="31" type="curve" smooth="yes"/>
      <point x="281" y="39"/>
      <point x="244" y="38"/>
      <point x="225" y="9" type="curve"/>
      <point x="224" y="6"/>
      <point x="222" y="4"/>
      <point x="219" y="3" type="curve"/>
      <point x="216" y="1"/>
      <point x="213" y="0"/>
      <point x="210" y="0" type="curve" smooth="yes"/>
      <point x="56" y="0" type="line" smooth="yes"/>
      <point x="51" y="0"/>
      <point x="47" y="2"/>
      <point x="43" y="6" type="curve"/>
      <point x="39" y="9"/>
      <point x="37" y="13"/>
      <point x="37" y="18" type="curve" smooth="yes"/>
      <point x="38" y="57"/>
      <point x="48" y="93"/>
      <point x="67" y="126" type="curve" smooth="yes"/>
      <point x="85" y="159"/>
      <point x="111" y="184"/>
      <point x="144" y="202" type="curve"/>
      <point x="144" y="211"/>
      <point x="144" y="219"/>
      <point x="143" y="227" type="curve" smooth="yes"/>
      <point x="142" y="235"/>
      <point x="141" y="243"/>
      <point x="140" y="250" type="curve"/>
      <point x="65" y="250" type="line" smooth="yes"/>
      <point x="58" y="250"/>
      <point x="51" y="253"/>
      <point x="46" y="258" type="curve" smooth="yes"/>
      <point x="41" y="263"/>
      <point x="38" y="270"/>
      <point x="38" y="277" type="curve" smooth="yes"/>
      <point x="38" y="389" type="line" smooth="yes"/>
      <point x="38" y="396"/>
      <point x="41" y="403"/>
      <point x="46" y="408" type="curve" smooth="yes"/>
      <point x="51" y="413"/>
      <point x="58" y="416"/>
      <point x="65" y="416" type="curve" smooth="yes"/>
      <point x="100" y="416" type="line"/>
      <point x="99" y="421"/>
      <point x="99" y="426"/>
      <point x="99" y="431" type="curve" smooth="yes"/>
      <point x="99" y="436"/>
      <point x="99" y="441"/>
      <point x="99" y="446" type="curve" smooth="yes"/>
      <point x="99" y="632"/>
      <point x="211" y="711"/>
      <point x="403" y="711" type="curve" smooth="yes"/>
      <point x="583" y="711"/>
      <point x="719" y="627"/>
      <point x="721" y="465" type="curve" smooth="yes"/>
      <point x="721" y="459"/>
      <point x="719" y="454"/>
      <point x="715" y="450" type="curve" smooth="yes"/>
      <point x="710" y="445"/>
      <point x="705" y="443"/>
      <point x="699" y="443" type="curve" smooth="yes"/>
      <point x="495" y="443" type="line" smooth="yes"/>
      <point x="484" y="443"/>
      <point x="476" y="445"/>
      <point x="470" y="450" type="curve"/>
      <point x="464" y="454"/>
      <point x="459" y="461"/>
      <point x="454" y="472" type="curve" smooth="yes"/>
      <point x="447" y="488"/>
      <point x="440" y="499"/>
      <point x="433" y="506" type="curve"/>
      <point x="425" y="513"/>
      <point x="415" y="516"/>
      <point x="403" y="516" type="curve" smooth="yes"/>
      <point x="366" y="516"/>
      <point x="359" y="487"/>
      <point x="359" y="431" type="curve" smooth="yes"/>
      <point x="359" y="426"/>
      <point x="359" y="421"/>
      <point x="360" y="416" type="curve"/>
      <point x="473" y="416" type="line" smooth="yes"/>
      <point x="480" y="416"/>
      <point x="487" y="413"/>
      <point x="492" y="408" type="curve" smooth="yes"/>
      <point x="497" y="403"/>
      <point x="500" y="396"/>
      <point x="500" y="389" type="curve" smooth="yes"/>
      <point x="500" y="277" type="line" smooth="yes"/>
      <point x="500" y="270"/>
      <point x="497" y="263"/>
      <point x="492" y="258" type="curve" smooth="yes"/>
      <point x="487" y="253"/>
      <point x="480" y="250"/>
      <point x="473" y="250" type="curve" smooth="yes"/>
      <point x="365" y="250" type="line"/>
      <point x="365" y="242"/>
      <point x="365" y="234"/>
      <point x="365" y="226" type="curve" smooth="yes"/>
      <point x="365" y="217"/>
      <point x="364" y="208"/>
      <point x="363" y="199" type="curve"/>
      <point x="411" y="188"/>
      <point x="437" y="182"/>
      <point x="480" y="182" type="curve" smooth="yes"/>
      <point x="497" y="182"/>
      <point x="511" y="185"/>
      <point x="524" y="192" type="curve" smooth="yes"/>
      <point x="537" y="199"/>
      <point x="547" y="208"/>
      <point x="556" y="219" type="curve"/>
      <point x="558" y="222"/>
      <point x="560" y="224"/>
      <point x="563" y="226" type="curve"/>
      <point x="566" y="227"/>
      <point x="569" y="228"/>
      <point x="574" y="228" type="curve" smooth="yes"/>
      <point x="705" y="228" type="line" smooth="yes"/>
      <point x="711" y="228"/>
      <point x="716" y="226"/>
      <point x="719" y="223" type="curve"/>
      <point x="722" y="219"/>
      <point x="724" y="214"/>
      <point x="724" y="209" type="curve" smooth="yes"/>
      <point x="723" y="162"/>
      <point x="713" y="123"/>
      <point x="692" y="90" type="curve" smooth="yes"/>
      <point x="671" y="57"/>
      <point x="646" y="33"/>
      <point x="616" y="16" type="curve" smooth="yes"/>
      <point x="585" y="-1"/>
      <point x="554" y="-10"/>
    </contour>
  </outline>
</glyph>
<glyph name="yen" format="2">
  <advance width="750"/>
  <unicode hex="00A5"/>
  <outline>
    <contour>
      <point x="277" y="0" type="line" smooth="yes"/>
      <point x="270" y="0"/>
      <point x="263" y="3"/>
      <point x="258" y="8" type="curve" smooth="yes"/>
      <point x="253" y="13"/>
      <point x="250" y="20"/>
      <point x="250" y="27" type="curve" smooth="yes"/>
      <point x="250" y="220" type="line"/>
      <point x="25" y="669" type="line" smooth="yes"/>
      <point x="18" y="684"/>
      <point x="30" y="700"/>
      <point x="45" y="700" type="curve" smooth="yes"/>
      <point x="233" y="700" type="line" smooth="yes"/>
      <point x="246" y="700"/>
      <point x="256" y="697"/>
      <point x="263" y="690" type="curve" smooth="yes"/>
      <point x="270" y="683"/>
      <point x="274" y="678"/>
      <point x="275" y="675" type="curve"/>
      <point x="375" y="474" type="line"/>
      <point x="475" y="675" type="line"/>
      <point x="476" y="678"/>
      <point x="480" y="683"/>
      <point x="487" y="690" type="curve" smooth="yes"/>
      <point x="494" y="697"/>
      <point x="504" y="700"/>
      <point x="517" y="700" type="curve" smooth="yes"/>
      <point x="705" y="700" type="line" smooth="yes"/>
      <point x="720" y="700"/>
      <point x="732" y="684"/>
      <point x="725" y="669" type="curve" smooth="yes"/>
      <point x="500" y="221" type="line"/>
      <point x="500" y="27" type="line" smooth="yes"/>
      <point x="500" y="20"/>
      <point x="497" y="13"/>
      <point x="492" y="8" type="curve" smooth="yes"/>
      <point x="487" y="3"/>
      <point x="480" y="0"/>
      <point x="473" y="0" type="curve" smooth="yes"/>
    </contour>
    <contour>
      <point x="133" y="33" type="line" smooth="yes"/>
      <point x="126" y="33"/>
      <point x="119" y="36"/>
      <point x="114" y="41" type="curve" smooth="yes"/>
      <point x="109" y="46"/>
      <point x="106" y="53"/>
      <point x="106" y="60" type="curve" smooth="yes"/>
      <point x="106" y="176" type="line" smooth="yes"/>
      <point x="106" y="183"/>
      <point x="109" y="190"/>
      <point x="114" y="195" type="curve" smooth="yes"/>
      <point x="119" y="200"/>
      <point x="126" y="203"/>
      <point x="133" y="203" type="curve" smooth="yes"/>
      <point x="618" y="203" type="line" smooth="yes"/>
      <point x="625" y="203"/>
      <point x="632" y="200"/>
      <point x="637" y="195" type="curve" smooth="yes"/>
      <point x="642" y="190"/>
      <point x="645" y="183"/>
      <point x="645" y="176" type="curve" smooth="yes"/>
      <point x="645" y="60" type="line" smooth="yes"/>
      <point x="645" y="53"/>
      <point x="642" y="46"/>
      <point x="637" y="41" type="curve" smooth="yes"/>
      <point x="632" y="36"/>
      <point x="625" y="33"/>
      <point x="618" y="33" type="curve" smooth="yes"/>
    </contour>
    <contour>
      <point x="133" y="203" type="line" smooth="yes"/>
      <point x="126" y="203"/>
      <point x="119" y="206"/>
      <point x="114" y="211" type="curve" smooth="yes"/>
      <point x="109" y="216"/>
      <point x="106" y="223"/>
      <point x="106" y="230" type="curve" smooth="yes"/>
      <point x="106" y="346" type="line" smooth="yes"/>
      <point x="106" y="353"/>
      <point x="109" y="360"/>
      <point x="114" y="365" type="curve" smooth="yes"/>
      <point x="119" y="370"/>
      <point x="126" y="373"/>
      <point x="133" y="373" type="curve" smooth="yes"/>
      <point x="618" y="373" type="line" smooth="yes"/>
      <point x="625" y="373"/>
      <point x="632" y="370"/>
      <point x="637" y="365" type="curve" smooth="yes"/>
      <point x="642" y="360"/>
      <point x="645" y="353"/>
      <point x="645" y="346" type="curve" smooth="yes"/>
      <point x="645" y="230" type="line" smooth="yes"/>
      <point x="645" y="223"/>
      <point x="642" y="216"/>
      <point x="637" y="211" type="curve" smooth="yes"/>
      <point x="632" y="206"/>
      <point x="625" y="203"/>
      <point x="618" y="203" type="curve" smooth="yes"/>
    </contour>
  </outline>
</glyph>
<glyph name="ordfeminine" format="2">
  <advance width="351"/>
  <unicode hex="00AA"/>
  <outline>
    <contour>
      <point x="122" y="429" type="curve" smooth="yes"/>
      <point x="93" y="429"/>
      <point x="69" y="437"/>
      <point x="50" y="453" type="curve" smooth="yes"/>
      <point x="31" y="468"/>
      <point x="22" y="487"/>
      <point x="22" y="510" type="curve" smooth="yes"/>
      <point x="22" y="535"/>
      <point x="32" y="555"/>
      <point x="53" y="569" type="curve" smooth="yes"/>
      <point x="73" y="582"/>
      <point x="100" y="592"/>
      <point x="135" y="598" type="curve" smooth="yes"/>
      <point x="189" y="607" type="line"/>
      <point x="189" y="627"/>
      <point x="189" y="633"/>
      <point x="173" y="633" type="curve" smooth="yes"/>
      <point x="157" y="633"/>
      <point x="156" y="617"/>
      <point x="138" y="617" type="curve" smooth="yes"/>
      <point x="51" y="617" type="line" smooth="yes"/>
      <point x="48" y="617"/>
      <point x="46" y="618"/>
      <point x="44" y="621" type="curve"/>
      <point x="41" y="623"/>
      <point x="40" y="626"/>
      <point x="41" y="629" type="curve"/>
      <point x="43" y="655"/>
      <point x="79" y="705"/>
      <point x="175" y="705" type="curve" smooth="yes"/>
      <point x="222" y="705"/>
      <point x="256" y="696"/>
      <point x="279" y="678" type="curve" smooth="yes"/>
      <point x="301" y="660"/>
      <point x="312" y="632"/>
      <point x="312" y="594" type="curve" smooth="yes"/>
      <point x="312" y="448" type="line" smooth="yes"/>
      <point x="312" y="445"/>
      <point x="311" y="442"/>
      <point x="308" y="439" type="curve" smooth="yes"/>
      <point x="305" y="436"/>
      <point x="302" y="434"/>
      <point x="298" y="434" type="curve" smooth="yes"/>
      <point x="209" y="434" type="line" smooth="yes"/>
      <point x="205" y="434"/>
      <point x="202" y="436"/>
      <point x="199" y="439" type="curve" smooth="yes"/>
      <point x="196" y="442"/>
      <point x="194" y="445"/>
      <point x="194" y="448" type="curve" smooth="yes"/>
      <point x="194" y="462" type="line"/>
      <point x="187" y="451"/>
      <point x="178" y="443"/>
      <point x="165" y="438" type="curve"/>
      <point x="152" y="432"/>
      <point x="137" y="429"/>
    </contour>
    <contour>
      <point x="157" y="505" type="curve" smooth="yes"/>
      <point x="167" y="505"/>
      <point x="175" y="508"/>
      <point x="181" y="514" type="curve"/>
      <point x="186" y="520"/>
      <point x="189" y="530"/>
      <point x="189" y="544" type="curve"/>
      <point x="161" y="537" type="line"/>
      <point x="123" y="525"/>
      <point x="135" y="505"/>
    </contour>
  </outline>
</glyph>
<glyph name="macron" format="2">
  <advance width="300"/>
  <unicode hex="00AF"/>
  <outline>
    <contour>
      <point x="26" y="705" type="line"/>
      <point x="31" y="575" type="line"/>
      <point x="278" y="591" type="line"/>
      <point x="278" y="695" type="line"/>
    </contour>
  </outline>
</glyph>
<glyph name="degree" format="2">
  <advance width="406"/>
  <unicode hex="00B0"/>
  <outline>
    <contour>
      <point x="203" y="686" type="curve" smooth="yes"/>
      <point x="107" y="686"/>
      <point x="29" y="605"/>
      <point x="29" y="505" type="curve" smooth="yes"/>
      <point x="29" y="405"/>
      <point x="107" y="324"/>
      <point x="203" y="324" type="curve" smooth="yes"/>
      <point x="299" y="324"/>
      <point x="377" y="405"/>
      <point x="377" y="505" type="curve" smooth="yes"/>
      <point x="377" y="605"/>
      <point x="299" y="686"/>
    </contour>
    <contour>
      <point x="203" y="443" type="curve" smooth="yes"/>
      <point x="176" y="443"/>
      <point x="154" y="471"/>
      <point x="154" y="505" type="curve" smooth="yes"/>
      <point x="154" y="540"/>
      <point x="176" y="568"/>
      <point x="203" y="568" type="curve" smooth="yes"/>
      <point x="230" y="568"/>
      <point x="252" y="540"/>
      <point x="252" y="505" type="curve" smooth="yes"/>
      <point x="252" y="471"/>
      <point x="230" y="443"/>
    </contour>
  </outline>
</glyph>
<glyph name="acute" format="2">
  <advance width="292"/>
  <unicode hex="00B4"/>
  <outline>
    <contour>
      <point x="127" y="407" type="line"/>
      <point x="277" y="687" type="line"/>
      <point x="80" y="695" type="line"/>
      <point x="21" y="421" type="line"/>
    </contour>
  </outline>
</glyph>
<glyph name="periodcentered" format="2">
  <advance width="260"/>
  <unicode hex="00B7"/>
  <outline>
    <contour>
      <point x="130" y="250" type="curve" smooth="yes"/>
      <point x="187" y="250"/>
      <point x="234" y="290"/>
      <point x="234" y="339" type="curve" smooth="yes"/>
      <point x="234" y="389"/>
      <point x="187" y="428"/>
      <point x="130" y="428" type="curve" smooth="yes"/>
      <point x="73" y="428"/>
      <point x="26" y="389"/>
      <point x="26" y="339" type="curve" smooth="yes"/>
      <point x="26" y="290"/>
      <point x="73" y="250"/>
    </contour>
  </outline>
</glyph>
<glyph name="ordmasculine" format="2">
  <advance width="350"/>
  <unicode hex="00BA"/>
  <outline>
    <contour>
      <point x="175" y="429" type="curve" smooth="yes"/>
      <point x="126" y="429"/>
      <point x="89" y="439"/>
      <point x="65" y="459" type="curve" smooth="yes"/>
      <point x="41" y="478"/>
      <point x="28" y="505"/>
      <point x="26" y="540" type="curve"/>
      <point x="25" y="545"/>
      <point x="25" y="555"/>
      <point x="25" y="568" type="curve" smooth="yes"/>
      <point x="25" y="581"/>
      <point x="25" y="589"/>
      <point x="26" y="594" type="curve"/>
      <point x="28" y="629"/>
      <point x="42" y="657"/>
      <point x="67" y="676" type="curve" smooth="yes"/>
      <point x="92" y="695"/>
      <point x="128" y="705"/>
      <point x="175" y="705" type="curve" smooth="yes"/>
      <point x="222" y="705"/>
      <point x="258" y="695"/>
      <point x="283" y="676" type="curve" smooth="yes"/>
      <point x="308" y="657"/>
      <point x="322" y="629"/>
      <point x="324" y="594" type="curve"/>
      <point x="325" y="589"/>
      <point x="325" y="581"/>
      <point x="325" y="568" type="curve" smooth="yes"/>
      <point x="325" y="555"/>
      <point x="325" y="545"/>
      <point x="324" y="540" type="curve"/>
      <point x="322" y="505"/>
      <point x="309" y="478"/>
      <point x="285" y="459" type="curve" smooth="yes"/>
      <point x="261" y="439"/>
      <point x="224" y="429"/>
    </contour>
    <contour>
      <point x="175" y="511" type="curve" smooth="yes"/>
      <point x="184" y="511"/>
      <point x="190" y="513"/>
      <point x="193" y="518" type="curve"/>
      <point x="196" y="522"/>
      <point x="197" y="531"/>
      <point x="198" y="545" type="curve"/>
      <point x="199" y="550"/>
      <point x="199" y="558"/>
      <point x="199" y="568" type="curve" smooth="yes"/>
      <point x="199" y="577"/>
      <point x="199" y="584"/>
      <point x="198" y="589" type="curve"/>
      <point x="197" y="602"/>
      <point x="196" y="611"/>
      <point x="193" y="616" type="curve" smooth="yes"/>
      <point x="190" y="621"/>
      <point x="184" y="623"/>
      <point x="175" y="623" type="curve" smooth="yes"/>
      <point x="166" y="623"/>
      <point x="161" y="621"/>
      <point x="158" y="616" type="curve" smooth="yes"/>
      <point x="155" y="611"/>
      <point x="153" y="602"/>
      <point x="152" y="589" type="curve"/>
      <point x="151" y="584"/>
      <point x="151" y="577"/>
      <point x="151" y="568" type="curve" smooth="yes"/>
      <point x="151" y="558"/>
      <point x="151" y="550"/>
      <point x="152" y="545" type="curve"/>
      <point x="153" y="531"/>
      <point x="155" y="522"/>
      <point x="158" y="518" type="curve"/>
      <point x="161" y="513"/>
      <point x="166" y="511"/>
    </contour>
  </outline>
</glyph>
<glyph name="guillemotright" format="2">
  <advance width="632"/>
  <unicode hex="00BB"/>
  <outline>
    <contour>
      <point x="366" y="52" type="curve" smooth="yes"/>
      <point x="360" y="52"/>
      <point x="355" y="54"/>
      <point x="351" y="59" type="curve"/>
      <point x="346" y="63"/>
      <point x="344" y="68"/>
      <point x="344" y="74" type="curve" smooth="yes"/>
      <point x="344" y="215" type="line" smooth="yes"/>
      <point x="344" y="226"/>
      <point x="345" y="235"/>
      <point x="348" y="241" type="curve" smooth="yes"/>
      <point x="351" y="247"/>
      <point x="355" y="253"/>
      <point x="362" y="260" type="curve" smooth="yes"/>
      <point x="431" y="329" type="line"/>
      <point x="362" y="398" type="line" smooth="yes"/>
      <point x="355" y="405"/>
      <point x="351" y="411"/>
      <point x="348" y="417" type="curve" smooth="yes"/>
      <point x="345" y="423"/>
      <point x="344" y="432"/>
      <point x="344" y="443" type="curve" smooth="yes"/>
      <point x="344" y="584" type="line" smooth="yes"/>
      <point x="344" y="590"/>
      <point x="346" y="595"/>
      <point x="351" y="600" type="curve" smooth="yes"/>
      <point x="355" y="604"/>
      <point x="360" y="606"/>
      <point x="366" y="606" type="curve" smooth="yes"/>
      <point x="367" y="606"/>
      <point x="369" y="606"/>
      <point x="372" y="606" type="curve"/>
      <point x="375" y="605"/>
      <point x="377" y="604"/>
      <point x="380" y="601" type="curve" smooth="yes"/>
      <point x="597" y="390" type="line"/>
      <point x="601" y="387"/>
      <point x="604" y="383"/>
      <point x="607" y="378" type="curve" smooth="yes"/>
      <point x="610" y="373"/>
      <point x="611" y="368"/>
      <point x="611" y="362" type="curve" smooth="yes"/>
      <point x="611" y="296" type="line" smooth="yes"/>
      <point x="611" y="290"/>
      <point x="610" y="285"/>
      <point x="607" y="280" type="curve" smooth="yes"/>
      <point x="604" y="275"/>
      <point x="601" y="271"/>
      <point x="597" y="268" type="curve"/>
      <point x="380" y="57" type="line" smooth="yes"/>
      <point x="377" y="54"/>
      <point x="375" y="53"/>
      <point x="372" y="53" type="curve"/>
      <point x="369" y="52"/>
      <point x="367" y="52"/>
    </contour>
    <contour>
      <point x="76" y="52" type="curve" smooth="yes"/>
      <point x="70" y="52"/>
      <point x="65" y="54"/>
      <point x="61" y="59" type="curve"/>
      <point x="56" y="63"/>
      <point x="54" y="68"/>
      <point x="54" y="74" type="curve" smooth="yes"/>
      <point x="54" y="215" type="line" smooth="yes"/>
      <point x="54" y="226"/>
      <point x="55" y="235"/>
      <point x="58" y="241" type="curve" smooth="yes"/>
      <point x="61" y="247"/>
      <point x="65" y="253"/>
      <point x="72" y="260" type="curve" smooth="yes"/>
      <point x="141" y="329" type="line"/>
      <point x="72" y="398" type="line" smooth="yes"/>
      <point x="65" y="405"/>
      <point x="61" y="411"/>
      <point x="58" y="417" type="curve" smooth="yes"/>
      <point x="55" y="423"/>
      <point x="54" y="432"/>
      <point x="54" y="443" type="curve" smooth="yes"/>
      <point x="54" y="584" type="line" smooth="yes"/>
      <point x="54" y="590"/>
      <point x="56" y="595"/>
      <point x="61" y="600" type="curve" smooth="yes"/>
      <point x="65" y="604"/>
      <point x="70" y="606"/>
      <point x="76" y="606" type="curve" smooth="yes"/>
      <point x="77" y="606"/>
      <point x="79" y="606"/>
      <point x="82" y="606" type="curve"/>
      <point x="85" y="605"/>
      <point x="87" y="604"/>
      <point x="90" y="601" type="curve" smooth="yes"/>
      <point x="307" y="390" type="line"/>
      <point x="311" y="387"/>
      <point x="314" y="383"/>
      <point x="317" y="378" type="curve" smooth="yes"/>
      <point x="320" y="373"/>
      <point x="321" y="368"/>
      <point x="321" y="362" type="curve" smooth="yes"/>
      <point x="321" y="296" type="line" smooth="yes"/>
      <point x="321" y="290"/>
      <point x="320" y="285"/>
      <point x="317" y="280" type="curve" smooth="yes"/>
      <point x="314" y="275"/>
      <point x="311" y="271"/>
      <point x="307" y="268" type="curve"/>
      <point x="90" y="57" type="line" smooth="yes"/>
      <point x="87" y="54"/>
      <point x="85" y="53"/>
      <point x="82" y="53" type="curve"/>
      <point x="79" y="52"/>
      <point x="77" y="52"/>
    </contour>
  </outline>
</glyph>
<glyph name="questiondown" format="2">
  <advance width="483"/>
  <unicode hex="00BF"/>
  <outline>
    <contour>
      <point x="274" y="603" type="curve" smooth="yes"/>
      <point x="220" y="603"/>
      <point x="175" y="563"/>
      <point x="175" y="514" type="curve" smooth="yes"/>
      <point x="175" y="465"/>
      <point x="220" y="425"/>
      <point x="274" y="425" type="curve" smooth="yes"/>
      <point x="329" y="425"/>
      <point x="373" y="465"/>
      <point x="373" y="514" type="curve" smooth="yes"/>
      <point x="373" y="563"/>
      <point x="329" y="603"/>
    </contour>
    <contour>
      <point x="250" y="-126" type="curve" smooth="yes"/>
      <point x="414" y="-126"/>
      <point x="464" y="-54"/>
      <point x="464" y="-54" type="curve"/>
      <point x="417" y="90" type="line"/>
      <point x="417" y="90"/>
      <point x="344" y="29"/>
      <point x="281" y="29" type="curve" smooth="yes"/>
      <point x="233" y="29"/>
      <point x="225" y="42"/>
      <point x="220" y="76" type="curve" smooth="yes"/>
      <point x="216" y="111"/>
      <point x="233" y="122"/>
      <point x="285" y="145" type="curve" smooth="yes"/>
      <point x="338" y="168"/>
      <point x="400" y="205"/>
      <point x="361" y="348" type="curve"/>
      <point x="361" y="348"/>
      <point x="278" y="372"/>
      <point x="198" y="360" type="curve"/>
      <point x="182" y="251" type="line"/>
      <point x="30" y="133" type="line"/>
      <point x="30" y="133"/>
      <point x="-30" y="-126"/>
    </contour>
  </outline>
</glyph>
<glyph name="Aacute" format="2">
  <advance width="713"/>
  <unicode hex="00C1"/>
  <outline>
    <contour>
      <point x="552" y="691" type="curve"/>
      <point x="456" y="697"/>
      <point x="302" y="690"/>
      <point x="200" y="674" type="curve"/>
      <point x="163" y="580"/>
      <point x="118" y="452"/>
      <point x="88" y="359" type="curve" smooth="yes"/>
      <point x="59" y="265"/>
      <point x="24" y="113"/>
      <point x="-1" y="6" type="curve"/>
      <point x="33" y="2"/>
      <point x="47" y="0"/>
      <point x="99" y="-4" type="curve" smooth="yes"/>
      <point x="116" y="-6"/>
      <point x="160" y="-4"/>
      <point x="188" y="-3" type="curve"/>
      <point x="200" y="51"/>
      <point x="222" y="145"/>
      <point x="229" y="180" type="curve"/>
      <point x="289" y="181"/>
      <point x="384" y="179"/>
      <point x="439" y="177" type="curve"/>
      <point x="446" y="156"/>
      <point x="465" y="51"/>
      <point x="476" y="-6" type="curve"/>
      <point x="541" y="-9"/>
      <point x="651" y="6"/>
      <point x="707" y="16" type="curve"/>
      <point x="689" y="123"/>
      <point x="661" y="266"/>
      <point x="640" y="360" type="curve" smooth="yes"/>
      <point x="620" y="452"/>
      <point x="581" y="591"/>
    </contour>
    <contour>
      <point x="278" y="310" type="curve"/>
      <point x="333" y="525" type="line"/>
      <point x="364" y="536" type="line"/>
      <point x="390" y="480"/>
      <point x="408" y="399"/>
      <point x="418" y="327" type="curve"/>
      <point x="372" y="312"/>
      <point x="330" y="309"/>
    </contour>
    <contour>
      <point x="321" y="704" type="line" smooth="yes"/>
      <point x="334" y="702"/>
      <point x="348" y="707"/>
      <point x="356" y="716" type="curve" smooth="yes"/>
      <point x="424" y="787" type="line" smooth="yes"/>
      <point x="462" y="828"/>
      <point x="451" y="855"/>
      <point x="395" y="855" type="curve" smooth="yes"/>
      <point x="324" y="855" type="line" smooth="yes"/>
      <point x="306" y="855"/>
      <point x="291" y="844"/>
      <point x="286" y="828" type="curve" smooth="yes"/>
      <point x="263" y="760" type="line" smooth="yes"/>
      <point x="253" y="733"/>
      <point x="266" y="712"/>
      <point x="295" y="708" type="curve" smooth="yes"/>
    </contour>
  </outline>
</glyph>
<glyph name="Acircumflex" format="2">
  <advance width="713"/>
  <unicode hex="00C2"/>
  <outline>
    <contour>
      <point x="552" y="691" type="curve"/>
      <point x="456" y="697"/>
      <point x="302" y="690"/>
      <point x="200" y="674" type="curve"/>
      <point x="163" y="580"/>
      <point x="118" y="452"/>
      <point x="88" y="359" type="curve" smooth="yes"/>
      <point x="59" y="265"/>
      <point x="24" y="113"/>
      <point x="-1" y="6" type="curve"/>
      <point x="33" y="2"/>
      <point x="47" y="0"/>
      <point x="99" y="-4" type="curve" smooth="yes"/>
      <point x="116" y="-6"/>
      <point x="160" y="-4"/>
      <point x="188" y="-3" type="curve"/>
      <point x="200" y="51"/>
      <point x="222" y="145"/>
      <point x="229" y="180" type="curve"/>
      <point x="289" y="181"/>
      <point x="384" y="179"/>
      <point x="439" y="177" type="curve"/>
      <point x="446" y="156"/>
      <point x="465" y="51"/>
      <point x="476" y="-6" type="curve"/>
      <point x="541" y="-9"/>
      <point x="651" y="6"/>
      <point x="707" y="16" type="curve"/>
      <point x="689" y="123"/>
      <point x="661" y="266"/>
      <point x="640" y="360" type="curve" smooth="yes"/>
      <point x="620" y="452"/>
      <point x="581" y="591"/>
    </contour>
    <contour>
      <point x="278" y="310" type="curve"/>
      <point x="333" y="525" type="line"/>
      <point x="364" y="536" type="line"/>
      <point x="390" y="480"/>
      <point x="408" y="399"/>
      <point x="418" y="327" type="curve"/>
      <point x="372" y="312"/>
      <point x="330" y="309"/>
    </contour>
    <contour>
      <point x="382" y="725" type="line"/>
      <point x="391" y="710"/>
      <point x="408" y="701"/>
      <point x="425" y="704" type="curve" smooth="yes"/>
      <point x="457" y="710" type="line" smooth="yes"/>
      <point x="490" y="716"/>
      <point x="501" y="740"/>
      <point x="484" y="769" type="curve" smooth="yes"/>
      <point x="447" y="833" type="line" smooth="yes"/>
      <point x="441" y="843"/>
      <point x="429" y="851"/>
      <point x="417" y="852" type="curve" smooth="yes"/>
      <point x="315" y="863" type="line" smooth="yes"/>
      <point x="301" y="865"/>
      <point x="287" y="858"/>
      <point x="278" y="847" type="curve"/>
      <point x="225" y="774" type="line" smooth="yes"/>
      <point x="206" y="747"/>
      <point x="214" y="724"/>
      <point x="245" y="716" type="curve" smooth="yes"/>
      <point x="274" y="708" type="line" smooth="yes"/>
      <point x="288" y="704"/>
      <point x="304" y="709"/>
      <point x="313" y="719" type="curve"/>
      <point x="361" y="767" type="line"/>
    </contour>
  </outline>
</glyph>
<glyph name="Atilde" format="2">
  <advance width="713"/>
  <unicode hex="00C3"/>
  <outline>
    <contour>
      <point x="552" y="691" type="curve"/>
      <point x="456" y="697"/>
      <point x="302" y="690"/>
      <point x="200" y="674" type="curve"/>
      <point x="163" y="580"/>
      <point x="118" y="452"/>
      <point x="88" y="359" type="curve" smooth="yes"/>
      <point x="59" y="265"/>
      <point x="24" y="113"/>
      <point x="-1" y="6" type="curve"/>
      <point x="33" y="2"/>
      <point x="47" y="0"/>
      <point x="99" y="-4" type="curve" smooth="yes"/>
      <point x="116" y="-6"/>
      <point x="160" y="-4"/>
      <point x="188" y="-3" type="curve"/>
      <point x="200" y="51"/>
      <point x="222" y="145"/>
      <point x="229" y="180" type="curve"/>
      <point x="289" y="181"/>
      <point x="384" y="179"/>
      <point x="439" y="177" type="curve"/>
      <point x="446" y="156"/>
      <point x="465" y="51"/>
      <point x="476" y="-6" type="curve"/>
      <point x="541" y="-9"/>
      <point x="651" y="6"/>
      <point x="707" y="16" type="curve"/>
      <point x="689" y="123"/>
      <point x="661" y="266"/>
      <point x="640" y="360" type="curve" smooth="yes"/>
      <point x="620" y="452"/>
      <point x="581" y="591"/>
    </contour>
    <contour>
      <point x="278" y="310" type="curve"/>
      <point x="333" y="525" type="line"/>
      <point x="364" y="536" type="line"/>
      <point x="390" y="480"/>
      <point x="408" y="399"/>
      <point x="418" y="327" type="curve"/>
      <point x="372" y="312"/>
      <point x="330" y="309"/>
    </contour>
    <contour>
      <point x="421" y="703" type="curve" smooth="yes"/>
      <point x="361" y="703"/>
      <point x="343" y="739"/>
      <point x="303" y="739" type="curve" smooth="yes"/>
      <point x="273" y="739"/>
      <point x="275" y="708"/>
      <point x="253" y="708" type="curve" smooth="yes"/>
      <point x="169" y="708" type="line" smooth="yes"/>
      <point x="164" y="708"/>
      <point x="160" y="710"/>
      <point x="156" y="714" type="curve"/>
      <point x="152" y="717"/>
      <point x="150" y="721"/>
      <point x="150" y="726" type="curve" smooth="yes"/>
      <point x="150" y="771"/>
      <point x="177" y="883"/>
      <point x="286" y="883" type="curve" smooth="yes"/>
      <point x="346" y="883"/>
      <point x="366" y="847"/>
      <point x="404" y="847" type="curve" smooth="yes"/>
      <point x="434" y="847"/>
      <point x="432" y="878"/>
      <point x="454" y="878" type="curve" smooth="yes"/>
      <point x="538" y="878" type="line" smooth="yes"/>
      <point x="544" y="878"/>
      <point x="549" y="876"/>
      <point x="552" y="873" type="curve"/>
      <point x="555" y="869"/>
      <point x="557" y="864"/>
      <point x="557" y="859" type="curve" smooth="yes"/>
      <point x="557" y="814"/>
      <point x="530" y="703"/>
    </contour>
  </outline>
</glyph>
<glyph name="Adieresis" format="2">
  <advance width="713"/>
  <unicode hex="00C4"/>
  <outline>
    <contour>
      <point x="552" y="691" type="curve"/>
      <point x="456" y="697"/>
      <point x="302" y="690"/>
      <point x="200" y="674" type="curve"/>
      <point x="163" y="580"/>
      <point x="118" y="452"/>
      <point x="88" y="359" type="curve" smooth="yes"/>
      <point x="59" y="265"/>
      <point x="24" y="113"/>
      <point x="-1" y="6" type="curve"/>
      <point x="33" y="2"/>
      <point x="47" y="0"/>
      <point x="99" y="-4" type="curve" smooth="yes"/>
      <point x="116" y="-6"/>
      <point x="160" y="-4"/>
      <point x="188" y="-3" type="curve"/>
      <point x="200" y="51"/>
      <point x="222" y="145"/>
      <point x="229" y="180" type="curve"/>
      <point x="289" y="181"/>
      <point x="384" y="179"/>
      <point x="439" y="177" type="curve"/>
      <point x="446" y="156"/>
      <point x="465" y="51"/>
      <point x="476" y="-6" type="curve"/>
      <point x="541" y="-9"/>
      <point x="651" y="6"/>
      <point x="707" y="16" type="curve"/>
      <point x="689" y="123"/>
      <point x="661" y="266"/>
      <point x="640" y="360" type="curve" smooth="yes"/>
      <point x="620" y="452"/>
      <point x="581" y="591"/>
    </contour>
    <contour>
      <point x="278" y="310" type="curve"/>
      <point x="333" y="525" type="line"/>
      <point x="364" y="536" type="line"/>
      <point x="390" y="480"/>
      <point x="408" y="399"/>
      <point x="418" y="327" type="curve"/>
      <point x="372" y="312"/>
      <point x="330" y="309"/>
    </contour>
    <contour>
      <point x="398" y="751" type="line" smooth="yes"/>
      <point x="397" y="730"/>
      <point x="411" y="713"/>
      <point x="433" y="710" type="curve" smooth="yes"/>
      <point x="479" y="704" type="line" smooth="yes"/>
      <point x="504" y="701"/>
      <point x="522" y="715"/>
      <point x="524" y="740" type="curve" smooth="yes"/>
      <point x="529" y="783" type="line" smooth="yes"/>
      <point x="531" y="806"/>
      <point x="517" y="824"/>
      <point x="494" y="827" type="curve" smooth="yes"/>
      <point x="445" y="833" type="line" smooth="yes"/>
      <point x="418" y="837"/>
      <point x="400" y="821"/>
      <point x="400" y="795" type="curve" smooth="yes"/>
    </contour>
    <contour>
      <point x="185" y="743" type="line" smooth="yes"/>
      <point x="189" y="721"/>
      <point x="206" y="708"/>
      <point x="228" y="709" type="curve" smooth="yes"/>
      <point x="279" y="713" type="line" smooth="yes"/>
      <point x="300" y="714"/>
      <point x="314" y="728"/>
      <point x="317" y="749" type="curve"/>
      <point x="321" y="793" type="line" smooth="yes"/>
      <point x="324" y="820"/>
      <point x="308" y="838"/>
      <point x="281" y="837" type="curve"/>
      <point x="217" y="837" type="line"/>
      <point x="189" y="836"/>
      <point x="174" y="818"/>
      <point x="178" y="790" type="curve" smooth="yes"/>
    </contour>
  </outline>
</glyph>
<glyph name="Aring" format="2">
  <advance width="713"/>
  <unicode hex="00C5"/>
  <outline>
    <contour>
      <point x="552" y="691" type="curve"/>
      <point x="456" y="697"/>
      <point x="302" y="690"/>
      <point x="200" y="674" type="curve"/>
      <point x="163" y="580"/>
      <point x="118" y="452"/>
      <point x="88" y="359" type="curve" smooth="yes"/>
      <point x="59" y="265"/>
      <point x="24" y="113"/>
      <point x="-1" y="6" type="curve"/>
      <point x="33" y="2"/>
      <point x="47" y="0"/>
      <point x="99" y="-4" type="curve" smooth="yes"/>
      <point x="116" y="-6"/>
      <point x="160" y="-4"/>
      <point x="188" y="-3" type="curve"/>
      <point x="200" y="51"/>
      <point x="222" y="145"/>
      <point x="229" y="180" type="curve"/>
      <point x="289" y="181"/>
      <point x="384" y="179"/>
      <point x="439" y="177" type="curve"/>
      <point x="446" y="156"/>
      <point x="465" y="51"/>
      <point x="476" y="-6" type="curve"/>
      <point x="541" y="-9"/>
      <point x="651" y="6"/>
      <point x="707" y="16" type="curve"/>
      <point x="689" y="123"/>
      <point x="661" y="266"/>
      <point x="640" y="360" type="curve" smooth="yes"/>
      <point x="620" y="452"/>
      <point x="581" y="591"/>
    </contour>
    <contour>
      <point x="278" y="310" type="curve"/>
      <point x="333" y="525" type="line"/>
      <point x="364" y="536" type="line"/>
      <point x="390" y="480"/>
      <point x="408" y="399"/>
      <point x="418" y="327" type="curve"/>
      <point x="372" y="312"/>
      <point x="330" y="309"/>
    </contour>
    <contour>
      <point x="353" y="703" type="curve" smooth="yes"/>
      <point x="326" y="703"/>
      <point x="302" y="712"/>
      <point x="283" y="730" type="curve" smooth="yes"/>
      <point x="263" y="748"/>
      <point x="253" y="771"/>
      <point x="253" y="798" type="curve" smooth="yes"/>
      <point x="253" y="825"/>
      <point x="263" y="848"/>
      <point x="283" y="866" type="curve" smooth="yes"/>
      <point x="302" y="884"/>
      <point x="326" y="893"/>
      <point x="353" y="893" type="curve" smooth="yes"/>
      <point x="380" y="893"/>
      <point x="404" y="884"/>
      <point x="424" y="866" type="curve" smooth="yes"/>
      <point x="443" y="848"/>
      <point x="453" y="825"/>
      <point x="453" y="798" type="curve" smooth="yes"/>
      <point x="453" y="771"/>
      <point x="443" y="748"/>
      <point x="424" y="730" type="curve" smooth="yes"/>
      <point x="404" y="712"/>
      <point x="380" y="703"/>
    </contour>
    <contour>
      <point x="353" y="768" type="curve" smooth="yes"/>
      <point x="362" y="768"/>
      <point x="369" y="771"/>
      <point x="375" y="777" type="curve" smooth="yes"/>
      <point x="380" y="782"/>
      <point x="383" y="789"/>
      <point x="383" y="798" type="curve" smooth="yes"/>
      <point x="383" y="807"/>
      <point x="380" y="814"/>
      <point x="375" y="820" type="curve"/>
      <point x="369" y="825"/>
      <point x="362" y="828"/>
      <point x="353" y="828" type="curve" smooth="yes"/>
      <point x="344" y="828"/>
      <point x="337" y="825"/>
      <point x="332" y="820" type="curve" smooth="yes"/>
      <point x="326" y="814"/>
      <point x="323" y="807"/>
      <point x="323" y="798" type="curve" smooth="yes"/>
      <point x="323" y="789"/>
      <point x="326" y="782"/>
      <point x="332" y="777" type="curve"/>
      <point x="337" y="771"/>
      <point x="344" y="768"/>
    </contour>
  </outline>
</glyph>
<glyph name="AE" format="2">
  <advance width="1005"/>
  <unicode hex="00C6"/>
  <outline>
    <contour>
      <point x="26" y="0" type="line" smooth="yes"/>
      <point x="20" y="0"/>
      <point x="15" y="2"/>
      <point x="11" y="7" type="curve"/>
      <point x="6" y="11"/>
      <point x="4" y="16"/>
      <point x="4" y="22" type="curve" smooth="yes"/>
      <point x="4" y="25"/>
      <point x="4" y="27"/>
      <point x="5" y="29" type="curve"/>
      <point x="68" y="206"/>
      <point x="128" y="382"/>
      <point x="191" y="561" type="curve" smooth="yes"/>
      <point x="204" y="596"/>
      <point x="216" y="632"/>
      <point x="228" y="667" type="curve"/>
      <point x="230" y="674"/>
      <point x="235" y="682"/>
      <point x="242" y="689" type="curve" smooth="yes"/>
      <point x="249" y="696"/>
      <point x="260" y="700"/>
      <point x="273" y="700" type="curve" smooth="yes"/>
      <point x="933" y="700" type="line" smooth="yes"/>
      <point x="940" y="700"/>
      <point x="947" y="697"/>
      <point x="952" y="692" type="curve" smooth="yes"/>
      <point x="957" y="687"/>
      <point x="960" y="680"/>
      <point x="960" y="673" type="curve" smooth="yes"/>
      <point x="960" y="532" type="line" smooth="yes"/>
      <point x="960" y="525"/>
      <point x="957" y="518"/>
      <point x="952" y="513" type="curve" smooth="yes"/>
      <point x="947" y="508"/>
      <point x="940" y="505"/>
      <point x="933" y="505" type="curve" smooth="yes"/>
      <point x="663" y="505" type="line"/>
      <point x="663" y="442" type="line"/>
      <point x="911" y="442" type="line" smooth="yes"/>
      <point x="918" y="442"/>
      <point x="925" y="439"/>
      <point x="930" y="434" type="curve" smooth="yes"/>
      <point x="935" y="429"/>
      <point x="938" y="422"/>
      <point x="938" y="415" type="curve" smooth="yes"/>
      <point x="938" y="285" type="line" smooth="yes"/>
      <point x="938" y="278"/>
      <point x="935" y="271"/>
      <point x="930" y="266" type="curve" smooth="yes"/>
      <point x="925" y="261"/>
      <point x="918" y="258"/>
      <point x="911" y="258" type="curve" smooth="yes"/>
      <point x="663" y="258" type="line"/>
      <point x="663" y="195" type="line"/>
      <point x="941" y="195" type="line" smooth="yes"/>
      <point x="948" y="195"/>
      <point x="955" y="192"/>
      <point x="960" y="187" type="curve" smooth="yes"/>
      <point x="965" y="182"/>
      <point x="968" y="175"/>
      <point x="968" y="168" type="curve" smooth="yes"/>
      <point x="968" y="27" type="line" smooth="yes"/>
      <point x="968" y="20"/>
      <point x="965" y="13"/>
      <point x="960" y="8" type="curve" smooth="yes"/>
      <point x="955" y="3"/>
      <point x="948" y="0"/>
      <point x="941" y="0" type="curve" smooth="yes"/>
      <point x="450" y="0" type="line" smooth="yes"/>
      <point x="443" y="0"/>
      <point x="436" y="3"/>
      <point x="431" y="8" type="curve" smooth="yes"/>
      <point x="426" y="13"/>
      <point x="423" y="20"/>
      <point x="423" y="27" type="curve" smooth="yes"/>
      <point x="423" y="91" type="line"/>
      <point x="274" y="91" type="line"/>
      <point x="266" y="70"/>
      <point x="258" y="46"/>
      <point x="250" y="25" type="curve" smooth="yes"/>
      <point x="248" y="20"/>
      <point x="244" y="14"/>
      <point x="239" y="9" type="curve"/>
      <point x="234" y="3"/>
      <point x="224" y="0"/>
      <point x="211" y="0" type="curve" smooth="yes"/>
    </contour>
    <contour>
      <point x="325" y="286" type="line"/>
      <point x="423" y="286" type="line"/>
      <point x="423" y="505" type="line"/>
      <point x="391" y="505" type="line"/>
    </contour>
  </outline>
</glyph>
<glyph name="Ccedilla" format="2">
  <advance width="603"/>
  <unicode hex="00C7"/>
  <outline>
    <contour>
      <point x="346" y="150" type="curve" smooth="yes"/>
      <point x="280" y="150"/>
      <point x="204" y="206"/>
      <point x="212" y="353" type="curve" smooth="yes"/>
      <point x="221" y="522"/>
      <point x="322" y="518"/>
      <point x="347" y="518" type="curve" smooth="yes"/>
      <point x="397" y="519"/>
      <point x="445" y="501"/>
      <point x="483" y="469" type="curve"/>
      <point x="578" y="617" type="line"/>
      <point x="574" y="621"/>
      <point x="487" y="704"/>
      <point x="346" y="704" type="curve" smooth="yes"/>
      <point x="171" y="704"/>
      <point x="28" y="597"/>
      <point x="18" y="376" type="curve" smooth="yes"/>
      <point x="7" y="149"/>
      <point x="105" y="-20"/>
      <point x="313" y="-29" type="curve" smooth="yes"/>
      <point x="436" y="-35"/>
      <point x="548" y="22"/>
      <point x="600" y="63" type="curve"/>
      <point x="520" y="228" type="line"/>
      <point x="477" y="188"/>
      <point x="404" y="150"/>
    </contour>
    <contour>
      <point x="314" y="-348" type="line" smooth="yes"/>
      <point x="325" y="-351"/>
      <point x="338" y="-349"/>
      <point x="348" y="-342" type="curve" smooth="yes"/>
      <point x="420" y="-293" type="line" smooth="yes"/>
      <point x="430" y="-286"/>
      <point x="437" y="-273"/>
      <point x="437" y="-260" type="curve" smooth="yes"/>
      <point x="437" y="-212" type="line" smooth="yes"/>
      <point x="437" y="-201"/>
      <point x="431" y="-188"/>
      <point x="422" y="-181" type="curve" smooth="yes"/>
      <point x="353" y="-124" type="line"/>
      <point x="365" y="-92" type="line" smooth="yes"/>
      <point x="372" y="-72"/>
      <point x="364" y="-56"/>
      <point x="343" y="-50" type="curve" smooth="yes"/>
      <point x="307" y="-41" type="line" smooth="yes"/>
      <point x="288" y="-36"/>
      <point x="270" y="-44"/>
      <point x="261" y="-61" type="curve" smooth="yes"/>
      <point x="232" y="-117" type="line" smooth="yes"/>
      <point x="222" y="-136"/>
      <point x="227" y="-157"/>
      <point x="245" y="-169" type="curve" smooth="yes"/>
      <point x="310" y="-213" type="line"/>
      <point x="287" y="-251" type="line"/>
      <point x="229" y="-239" type="line" smooth="yes"/>
      <point x="207" y="-234"/>
      <point x="188" y="-246"/>
      <point x="182" y="-268" type="curve"/>
      <point x="182" y="-269" type="line"/>
      <point x="176" y="-292"/>
      <point x="187" y="-311"/>
      <point x="210" y="-318" type="curve" smooth="yes"/>
    </contour>
  </outline>
</glyph>
<glyph name="Eacute" format="2">
  <advance width="589"/>
  <unicode hex="00C9"/>
  <outline>
    <contour>
      <point x="264" y="230" type="curve" smooth="yes"/>
      <point x="264" y="242"/>
      <point x="264" y="263"/>
      <point x="264" y="290" type="curve"/>
      <point x="293" y="290"/>
      <point x="366" y="290"/>
      <point x="380" y="290" type="curve" smooth="yes"/>
      <point x="392" y="290"/>
      <point x="436" y="292"/>
      <point x="476" y="293" type="curve"/>
      <point x="475" y="429" type="line"/>
      <point x="416" y="433"/>
      <point x="303" y="440"/>
      <point x="264" y="441" type="curve"/>
      <point x="269" y="471"/>
      <point x="275" y="529"/>
      <point x="279" y="556" type="curve"/>
      <point x="304" y="556"/>
      <point x="357" y="556"/>
      <point x="370" y="556" type="curve"/>
      <point x="387" y="557"/>
      <point x="404" y="557"/>
      <point x="421" y="557" type="curve" smooth="yes"/>
      <point x="435" y="557"/>
      <point x="448" y="557"/>
      <point x="461" y="556" type="curve"/>
      <point x="471" y="556"/>
      <point x="516" y="556"/>
      <point x="543" y="555" type="curve"/>
      <point x="543" y="582"/>
      <point x="542" y="621"/>
      <point x="542" y="633" type="curve" smooth="yes"/>
      <point x="542" y="642"/>
      <point x="539" y="679"/>
      <point x="537" y="709" type="curve"/>
      <point x="405" y="711"/>
      <point x="174" y="701"/>
      <point x="53" y="687" type="curve"/>
      <point x="48" y="586"/>
      <point x="39" y="444"/>
      <point x="37" y="350" type="curve" smooth="yes"/>
      <point x="35" y="259"/>
      <point x="35" y="103"/>
      <point x="35" y="-7" type="curve"/>
      <point x="116" y="-12"/>
      <point x="232" y="-13"/>
      <point x="298" y="-12" type="curve" smooth="yes"/>
      <point x="365" y="-11"/>
      <point x="504" y="-1"/>
      <point x="576" y="8" type="curve"/>
      <point x="576" y="41"/>
      <point x="577" y="84"/>
      <point x="577" y="95" type="curve" smooth="yes"/>
      <point x="577" y="173" type="line"/>
      <point x="522" y="167"/>
      <point x="338" y="161"/>
      <point x="265" y="160" type="curve"/>
      <point x="265" y="188"/>
      <point x="264" y="220"/>
    </contour>
    <contour>
      <point x="274" y="720" type="line" smooth="yes"/>
      <point x="287" y="718"/>
      <point x="301" y="723"/>
      <point x="309" y="732" type="curve" smooth="yes"/>
      <point x="377" y="803" type="line" smooth="yes"/>
      <point x="415" y="844"/>
      <point x="404" y="871"/>
      <point x="348" y="871" type="curve" smooth="yes"/>
      <point x="277" y="871" type="line" smooth="yes"/>
      <point x="259" y="871"/>
      <point x="244" y="860"/>
      <point x="239" y="844" type="curve" smooth="yes"/>
      <point x="216" y="776" type="line" smooth="yes"/>
      <point x="206" y="749"/>
      <point x="219" y="728"/>
      <point x="248" y="724" type="curve" smooth="yes"/>
    </contour>
  </outline>
</glyph>
<glyph name="Ecircumflex" format="2">
  <advance width="589"/>
  <unicode hex="00CA"/>
  <outline>
    <contour>
      <point x="264" y="230" type="curve" smooth="yes"/>
      <point x="264" y="242"/>
      <point x="264" y="263"/>
      <point x="264" y="290" type="curve"/>
      <point x="293" y="290"/>
      <point x="366" y="290"/>
      <point x="380" y="290" type="curve" smooth="yes"/>
      <point x="392" y="290"/>
      <point x="436" y="292"/>
      <point x="476" y="293" type="curve"/>
      <point x="475" y="429" type="line"/>
      <point x="416" y="433"/>
      <point x="303" y="440"/>
      <point x="264" y="441" type="curve"/>
      <point x="269" y="471"/>
      <point x="275" y="529"/>
      <point x="279" y="556" type="curve"/>
      <point x="304" y="556"/>
      <point x="357" y="556"/>
      <point x="370" y="556" type="curve"/>
      <point x="387" y="557"/>
      <point x="404" y="557"/>
      <point x="421" y="557" type="curve" smooth="yes"/>
      <point x="435" y="557"/>
      <point x="448" y="557"/>
      <point x="461" y="556" type="curve"/>
      <point x="471" y="556"/>
      <point x="516" y="556"/>
      <point x="543" y="555" type="curve"/>
      <point x="543" y="582"/>
      <point x="542" y="621"/>
      <point x="542" y="633" type="curve" smooth="yes"/>
      <point x="542" y="642"/>
      <point x="539" y="679"/>
      <point x="537" y="709" type="curve"/>
      <point x="405" y="711"/>
      <point x="174" y="701"/>
      <point x="53" y="687" type="curve"/>
      <point x="48" y="586"/>
      <point x="39" y="444"/>
      <point x="37" y="350" type="curve" smooth="yes"/>
      <point x="35" y="259"/>
      <point x="35" y="103"/>
      <point x="35" y="-7" type="curve"/>
      <point x="116" y="-12"/>
      <point x="232" y="-13"/>
      <point x="298" y="-12" type="curve" smooth="yes"/>
      <point x="365" y="-11"/>
      <point x="504" y="-1"/>
      <point x="576" y="8" type="curve"/>
      <point x="576" y="41"/>
      <point x="577" y="84"/>
      <point x="577" y="95" type="curve" smooth="yes"/>
      <point x="577" y="173" type="line"/>
      <point x="522" y="167"/>
      <point x="338" y="161"/>
      <point x="265" y="160" type="curve"/>
      <point x="265" y="188"/>
      <point x="264" y="220"/>
    </contour>
    <contour>
      <point x="335" y="741" type="line"/>
      <point x="344" y="726"/>
      <point x="361" y="717"/>
      <point x="378" y="720" type="curve" smooth="yes"/>
      <point x="410" y="726" type="line" smooth="yes"/>
      <point x="443" y="732"/>
      <point x="454" y="756"/>
      <point x="437" y="785" type="curve" smooth="yes"/>
      <point x="400" y="849" type="line" smooth="yes"/>
      <point x="394" y="859"/>
      <point x="382" y="867"/>
      <point x="370" y="868" type="curve" smooth="yes"/>
      <point x="268" y="879" type="line" smooth="yes"/>
      <point x="254" y="881"/>
      <point x="240" y="874"/>
      <point x="231" y="863" type="curve"/>
      <point x="178" y="790" type="line" smooth="yes"/>
      <point x="159" y="763"/>
      <point x="167" y="740"/>
      <point x="198" y="732" type="curve" smooth="yes"/>
      <point x="227" y="724" type="line" smooth="yes"/>
      <point x="241" y="720"/>
      <point x="257" y="725"/>
      <point x="266" y="735" type="curve"/>
      <point x="314" y="783" type="line"/>
    </contour>
  </outline>
</glyph>
<glyph name="Edieresis" format="2">
  <advance width="589"/>
  <unicode hex="00CB"/>
  <outline>
    <contour>
      <point x="264" y="230" type="curve" smooth="yes"/>
      <point x="264" y="242"/>
      <point x="264" y="263"/>
      <point x="264" y="290" type="curve"/>
      <point x="293" y="290"/>
      <point x="366" y="290"/>
      <point x="380" y="290" type="curve" smooth="yes"/>
      <point x="392" y="290"/>
      <point x="436" y="292"/>
      <point x="476" y="293" type="curve"/>
      <point x="475" y="429" type="line"/>
      <point x="416" y="433"/>
      <point x="303" y="440"/>
      <point x="264" y="441" type="curve"/>
      <point x="269" y="471"/>
      <point x="275" y="529"/>
      <point x="279" y="556" type="curve"/>
      <point x="304" y="556"/>
      <point x="357" y="556"/>
      <point x="370" y="556" type="curve"/>
      <point x="387" y="557"/>
      <point x="404" y="557"/>
      <point x="421" y="557" type="curve" smooth="yes"/>
      <point x="435" y="557"/>
      <point x="448" y="557"/>
      <point x="461" y="556" type="curve"/>
      <point x="471" y="556"/>
      <point x="516" y="556"/>
      <point x="543" y="555" type="curve"/>
      <point x="543" y="582"/>
      <point x="542" y="621"/>
      <point x="542" y="633" type="curve" smooth="yes"/>
      <point x="542" y="642"/>
      <point x="539" y="679"/>
      <point x="537" y="709" type="curve"/>
      <point x="405" y="711"/>
      <point x="174" y="701"/>
      <point x="53" y="687" type="curve"/>
      <point x="48" y="586"/>
      <point x="39" y="444"/>
      <point x="37" y="350" type="curve" smooth="yes"/>
      <point x="35" y="259"/>
      <point x="35" y="103"/>
      <point x="35" y="-7" type="curve"/>
      <point x="116" y="-12"/>
      <point x="232" y="-13"/>
      <point x="298" y="-12" type="curve" smooth="yes"/>
      <point x="365" y="-11"/>
      <point x="504" y="-1"/>
      <point x="576" y="8" type="curve"/>
      <point x="576" y="41"/>
      <point x="577" y="84"/>
      <point x="577" y="95" type="curve" smooth="yes"/>
      <point x="577" y="173" type="line"/>
      <point x="522" y="167"/>
      <point x="338" y="161"/>
      <point x="265" y="160" type="curve"/>
      <point x="265" y="188"/>
      <point x="264" y="220"/>
    </contour>
    <contour>
      <point x="351" y="767" type="line" smooth="yes"/>
      <point x="350" y="746"/>
      <point x="364" y="729"/>
      <point x="386" y="726" type="curve" smooth="yes"/>
      <point x="432" y="720" type="line" smooth="yes"/>
      <point x="457" y="717"/>
      <point x="475" y="731"/>
      <point x="477" y="756" type="curve" smooth="yes"/>
      <point x="482" y="799" type="line" smooth="yes"/>
      <point x="484" y="822"/>
      <point x="470" y="840"/>
      <point x="447" y="843" type="curve" smooth="yes"/>
      <point x="398" y="849" type="line" smooth="yes"/>
      <point x="371" y="853"/>
      <point x="353" y="837"/>
      <point x="353" y="811" type="curve" smooth="yes"/>
    </contour>
    <contour>
      <point x="138" y="759" type="line" smooth="yes"/>
      <point x="142" y="737"/>
      <point x="159" y="724"/>
      <point x="181" y="725" type="curve" smooth="yes"/>
      <point x="232" y="729" type="line" smooth="yes"/>
      <point x="253" y="730"/>
      <point x="267" y="744"/>
      <point x="270" y="765" type="curve"/>
      <point x="274" y="809" type="line" smooth="yes"/>
      <point x="277" y="836"/>
      <point x="261" y="854"/>
      <point x="234" y="853" type="curve"/>
      <point x="170" y="853" type="line"/>
      <point x="142" y="852"/>
      <point x="127" y="834"/>
      <point x="131" y="806" type="curve" smooth="yes"/>
    </contour>
  </outline>
</glyph>
<glyph name="Igrave" format="2">
  <advance width="289"/>
  <unicode hex="00CC"/>
  <outline>
    <contour>
      <point x="247" y="694" type="curve"/>
      <point x="193" y="696"/>
      <point x="95" y="695"/>
      <point x="42" y="691" type="curve"/>
      <point x="41" y="624"/>
      <point x="40" y="530"/>
      <point x="39" y="494" type="curve" smooth="yes"/>
      <point x="38" y="449"/>
      <point x="37" y="411"/>
      <point x="37" y="381" type="curve" smooth="yes"/>
      <point x="37" y="349"/>
      <point x="37" y="315"/>
      <point x="38" y="281" type="curve" smooth="yes"/>
      <point x="38" y="246"/>
      <point x="39" y="210"/>
      <point x="39" y="172" type="curve" smooth="yes"/>
      <point x="40" y="-8" type="line"/>
      <point x="89" y="-8"/>
      <point x="196" y="-1"/>
      <point x="250" y="6" type="curve"/>
      <point x="251" y="111"/>
      <point x="251" y="249"/>
      <point x="251" y="351" type="curve" smooth="yes"/>
      <point x="250" y="433"/>
      <point x="249" y="584"/>
    </contour>
    <contour>
      <point x="176" y="705" type="curve" smooth="yes"/>
      <point x="203" y="709" type="line" smooth="yes"/>
      <point x="231" y="713"/>
      <point x="244" y="734"/>
      <point x="235" y="761" type="curve" smooth="yes"/>
      <point x="212" y="829" type="line" smooth="yes"/>
      <point x="207" y="845"/>
      <point x="191" y="856"/>
      <point x="174" y="856" type="curve" smooth="yes"/>
      <point x="102" y="856" type="line" smooth="yes"/>
      <point x="46" y="856"/>
      <point x="35" y="829"/>
      <point x="73" y="788" type="curve" smooth="yes"/>
      <point x="141" y="717" type="line" smooth="yes"/>
      <point x="149" y="708"/>
      <point x="163" y="703"/>
    </contour>
  </outline>
</glyph>
<glyph name="Iacute" format="2">
  <advance width="289"/>
  <unicode hex="00CD"/>
  <outline>
    <contour>
      <point x="247" y="694" type="curve"/>
      <point x="193" y="696"/>
      <point x="95" y="695"/>
      <point x="42" y="691" type="curve"/>
      <point x="41" y="624"/>
      <point x="40" y="530"/>
      <point x="39" y="494" type="curve" smooth="yes"/>
      <point x="38" y="449"/>
      <point x="37" y="411"/>
      <point x="37" y="381" type="curve" smooth="yes"/>
      <point x="37" y="349"/>
      <point x="37" y="315"/>
      <point x="38" y="281" type="curve" smooth="yes"/>
      <point x="38" y="246"/>
      <point x="39" y="210"/>
      <point x="39" y="172" type="curve" smooth="yes"/>
      <point x="40" y="-8" type="line"/>
      <point x="89" y="-8"/>
      <point x="196" y="-1"/>
      <point x="250" y="6" type="curve"/>
      <point x="251" y="111"/>
      <point x="251" y="249"/>
      <point x="251" y="351" type="curve" smooth="yes"/>
      <point x="250" y="433"/>
      <point x="249" y="584"/>
    </contour>
    <contour>
      <point x="112" y="705" type="line" smooth="yes"/>
      <point x="125" y="703"/>
      <point x="139" y="708"/>
      <point x="147" y="717" type="curve" smooth="yes"/>
      <point x="215" y="788" type="line" smooth="yes"/>
      <point x="253" y="829"/>
      <point x="242" y="856"/>
      <point x="186" y="856" type="curve" smooth="yes"/>
      <point x="115" y="856" type="line" smooth="yes"/>
      <point x="97" y="856"/>
      <point x="82" y="845"/>
      <point x="77" y="829" type="curve" smooth="yes"/>
      <point x="54" y="761" type="line" smooth="yes"/>
      <point x="44" y="734"/>
      <point x="57" y="713"/>
      <point x="86" y="709" type="curve" smooth="yes"/>
    </contour>
  </outline>
</glyph>
<glyph name="Icircumflex" format="2">
  <advance width="289"/>
  <unicode hex="00CE"/>
  <outline>
    <contour>
      <point x="247" y="694" type="curve"/>
      <point x="193" y="696"/>
      <point x="95" y="695"/>
      <point x="42" y="691" type="curve"/>
      <point x="41" y="624"/>
      <point x="40" y="530"/>
      <point x="39" y="494" type="curve" smooth="yes"/>
      <point x="38" y="449"/>
      <point x="37" y="411"/>
      <point x="37" y="381" type="curve" smooth="yes"/>
      <point x="37" y="349"/>
      <point x="37" y="315"/>
      <point x="38" y="281" type="curve" smooth="yes"/>
      <point x="38" y="246"/>
      <point x="39" y="210"/>
      <point x="39" y="172" type="curve" smooth="yes"/>
      <point x="40" y="-8" type="line"/>
      <point x="89" y="-8"/>
      <point x="196" y="-1"/>
      <point x="250" y="6" type="curve"/>
      <point x="251" y="111"/>
      <point x="251" y="249"/>
      <point x="251" y="351" type="curve" smooth="yes"/>
      <point x="250" y="433"/>
      <point x="249" y="584"/>
    </contour>
    <contour>
      <point x="173" y="727" type="line"/>
      <point x="182" y="712"/>
      <point x="199" y="703"/>
      <point x="216" y="706" type="curve" smooth="yes"/>
      <point x="248" y="712" type="line" smooth="yes"/>
      <point x="281" y="718"/>
      <point x="292" y="742"/>
      <point x="275" y="771" type="curve" smooth="yes"/>
      <point x="238" y="835" type="line" smooth="yes"/>
      <point x="232" y="845"/>
      <point x="220" y="853"/>
      <point x="208" y="854" type="curve" smooth="yes"/>
      <point x="106" y="865" type="line" smooth="yes"/>
      <point x="92" y="867"/>
      <point x="78" y="860"/>
      <point x="69" y="849" type="curve"/>
      <point x="16" y="776" type="line" smooth="yes"/>
      <point x="-3" y="749"/>
      <point x="5" y="726"/>
      <point x="36" y="718" type="curve" smooth="yes"/>
      <point x="65" y="710" type="line" smooth="yes"/>
      <point x="79" y="706"/>
      <point x="95" y="711"/>
      <point x="104" y="721" type="curve"/>
      <point x="152" y="769" type="line"/>
    </contour>
  </outline>
</glyph>
<glyph name="Idieresis" format="2">
  <advance width="289"/>
  <unicode hex="00CF"/>
  <outline>
    <contour>
      <point x="247" y="694" type="curve"/>
      <point x="193" y="696"/>
      <point x="95" y="695"/>
      <point x="42" y="691" type="curve"/>
      <point x="41" y="624"/>
      <point x="40" y="530"/>
      <point x="39" y="494" type="curve" smooth="yes"/>
      <point x="38" y="449"/>
      <point x="37" y="411"/>
      <point x="37" y="381" type="curve" smooth="yes"/>
      <point x="37" y="349"/>
      <point x="37" y="315"/>
      <point x="38" y="281" type="curve" smooth="yes"/>
      <point x="38" y="246"/>
      <point x="39" y="210"/>
      <point x="39" y="172" type="curve" smooth="yes"/>
      <point x="40" y="-8" type="line"/>
      <point x="89" y="-8"/>
      <point x="196" y="-1"/>
      <point x="250" y="6" type="curve"/>
      <point x="251" y="111"/>
      <point x="251" y="249"/>
      <point x="251" y="351" type="curve" smooth="yes"/>
      <point x="250" y="433"/>
      <point x="249" y="584"/>
    </contour>
    <contour>
      <point x="189" y="752" type="line" smooth="yes"/>
      <point x="188" y="731"/>
      <point x="202" y="714"/>
      <point x="224" y="711" type="curve" smooth="yes"/>
      <point x="270" y="705" type="line" smooth="yes"/>
      <point x="295" y="702"/>
      <point x="313" y="716"/>
      <point x="315" y="741" type="curve" smooth="yes"/>
      <point x="320" y="784" type="line" smooth="yes"/>
      <point x="322" y="807"/>
      <point x="308" y="825"/>
      <point x="285" y="828" type="curve" smooth="yes"/>
      <point x="236" y="834" type="line" smooth="yes"/>
      <point x="209" y="838"/>
      <point x="191" y="822"/>
      <point x="191" y="796" type="curve" smooth="yes"/>
    </contour>
    <contour>
      <point x="-24" y="744" type="line" smooth="yes"/>
      <point x="-20" y="722"/>
      <point x="-3" y="709"/>
      <point x="19" y="710" type="curve" smooth="yes"/>
      <point x="70" y="714" type="line" smooth="yes"/>
      <point x="91" y="715"/>
      <point x="105" y="729"/>
      <point x="108" y="750" type="curve"/>
      <point x="112" y="794" type="line" smooth="yes"/>
      <point x="115" y="821"/>
      <point x="99" y="839"/>
      <point x="72" y="838" type="curve"/>
      <point x="8" y="838" type="line"/>
      <point x="-20" y="837"/>
      <point x="-35" y="819"/>
      <point x="-31" y="791" type="curve" smooth="yes"/>
    </contour>
  </outline>
</glyph>
<glyph name="Ntilde" format="2">
  <advance width="708"/>
  <unicode hex="00D1"/>
  <outline>
    <contour>
      <point x="34" y="-6" type="line"/>
      <point x="230" y="-16" type="line"/>
      <point x="214" y="384" type="line"/>
      <point x="446" y="-13" type="line"/>
      <point x="468" y="-14"/>
      <point x="491" y="-15"/>
      <point x="514" y="-15" type="curve" smooth="yes"/>
      <point x="554" y="-15"/>
      <point x="625" y="-14"/>
      <point x="661" y="-1" type="curve"/>
      <point x="667" y="150"/>
      <point x="670" y="301"/>
      <point x="670" y="453" type="curve" smooth="yes"/>
      <point x="670" y="532"/>
      <point x="672" y="618"/>
      <point x="662" y="697" type="curve"/>
      <point x="645" y="699"/>
      <point x="628" y="700"/>
      <point x="612" y="700" type="curve" smooth="yes"/>
      <point x="566" y="700"/>
      <point x="520" y="693"/>
      <point x="475" y="680" type="curve"/>
      <point x="477" y="321" type="line"/>
      <point x="470" y="335" type="line"/>
      <point x="418" y="425"/>
      <point x="331" y="593"/>
      <point x="311" y="694" type="curve"/>
      <point x="300" y="695"/>
      <point x="287" y="695"/>
      <point x="276" y="695" type="curve" smooth="yes"/>
      <point x="202" y="695"/>
      <point x="128" y="684"/>
      <point x="56" y="666" type="curve"/>
    </contour>
    <contour>
      <point x="420" y="710" type="curve" smooth="yes"/>
      <point x="360" y="710"/>
      <point x="342" y="746"/>
      <point x="302" y="746" type="curve" smooth="yes"/>
      <point x="272" y="746"/>
      <point x="274" y="715"/>
      <point x="252" y="715" type="curve" smooth="yes"/>
      <point x="168" y="715" type="line" smooth="yes"/>
      <point x="163" y="715"/>
      <point x="159" y="717"/>
      <point x="155" y="721" type="curve"/>
      <point x="151" y="724"/>
      <point x="149" y="728"/>
      <point x="149" y="733" type="curve" smooth="yes"/>
      <point x="149" y="778"/>
      <point x="176" y="890"/>
      <point x="285" y="890" type="curve" smooth="yes"/>
      <point x="345" y="890"/>
      <point x="365" y="854"/>
      <point x="403" y="854" type="curve" smooth="yes"/>
      <point x="433" y="854"/>
      <point x="431" y="885"/>
      <point x="453" y="885" type="curve" smooth="yes"/>
      <point x="537" y="885" type="line" smooth="yes"/>
      <point x="543" y="885"/>
      <point x="548" y="883"/>
      <point x="551" y="880" type="curve"/>
      <point x="554" y="876"/>
      <point x="556" y="871"/>
      <point x="556" y="866" type="curve" smooth="yes"/>
      <point x="556" y="821"/>
      <point x="529" y="710"/>
    </contour>
  </outline>
</glyph>
<glyph name="Ograve" format="2">
  <advance width="715"/>
  <unicode hex="00D2"/>
  <outline>
    <contour>
      <point x="341" y="708" type="curve" smooth="yes"/>
      <point x="152" y="699"/>
      <point x="4" y="543"/>
      <point x="13" y="331" type="curve" smooth="yes"/>
      <point x="22" y="119"/>
      <point x="183" y="-24"/>
      <point x="373" y="-16" type="curve" smooth="yes"/>
      <point x="562" y="-7"/>
      <point x="710" y="149"/>
      <point x="701" y="361" type="curve" smooth="yes"/>
      <point x="692" y="573"/>
      <point x="531" y="716"/>
    </contour>
    <contour>
      <point x="364" y="152" type="curve" smooth="yes"/>
      <point x="295" y="149"/>
      <point x="235" y="230"/>
      <point x="230" y="346" type="curve" smooth="yes"/>
      <point x="225" y="463"/>
      <point x="278" y="549"/>
      <point x="347" y="552" type="curve" smooth="yes"/>
      <point x="417" y="555"/>
      <point x="477" y="474"/>
      <point x="482" y="357" type="curve" smooth="yes"/>
      <point x="487" y="240"/>
      <point x="434" y="155"/>
    </contour>
    <contour>
      <point x="389" y="719" type="curve" smooth="yes"/>
      <point x="416" y="723" type="line" smooth="yes"/>
      <point x="444" y="727"/>
      <point x="457" y="748"/>
      <point x="448" y="775" type="curve" smooth="yes"/>
      <point x="425" y="843" type="line" smooth="yes"/>
      <point x="420" y="859"/>
      <point x="404" y="870"/>
      <point x="387" y="870" type="curve" smooth="yes"/>
      <point x="315" y="870" type="line" smooth="yes"/>
      <point x="259" y="870"/>
      <point x="248" y="843"/>
      <point x="286" y="802" type="curve" smooth="yes"/>
      <point x="354" y="731" type="line" smooth="yes"/>
      <point x="362" y="722"/>
      <point x="376" y="717"/>
    </contour>
  </outline>
</glyph>
<glyph name="Oacute" format="2">
  <advance width="715"/>
  <unicode hex="00D3"/>
  <outline>
    <contour>
      <point x="341" y="708" type="curve" smooth="yes"/>
      <point x="152" y="699"/>
      <point x="4" y="543"/>
      <point x="13" y="331" type="curve" smooth="yes"/>
      <point x="22" y="119"/>
      <point x="183" y="-24"/>
      <point x="373" y="-16" type="curve" smooth="yes"/>
      <point x="562" y="-7"/>
      <point x="710" y="149"/>
      <point x="701" y="361" type="curve" smooth="yes"/>
      <point x="692" y="573"/>
      <point x="531" y="716"/>
    </contour>
    <contour>
      <point x="364" y="152" type="curve" smooth="yes"/>
      <point x="295" y="149"/>
      <point x="235" y="230"/>
      <point x="230" y="346" type="curve" smooth="yes"/>
      <point x="225" y="463"/>
      <point x="278" y="549"/>
      <point x="347" y="552" type="curve" smooth="yes"/>
      <point x="417" y="555"/>
      <point x="477" y="474"/>
      <point x="482" y="357" type="curve" smooth="yes"/>
      <point x="487" y="240"/>
      <point x="434" y="155"/>
    </contour>
    <contour>
      <point x="325" y="719" type="line" smooth="yes"/>
      <point x="338" y="717"/>
      <point x="352" y="722"/>
      <point x="360" y="731" type="curve" smooth="yes"/>
      <point x="428" y="802" type="line" smooth="yes"/>
      <point x="466" y="843"/>
      <point x="455" y="870"/>
      <point x="399" y="870" type="curve" smooth="yes"/>
      <point x="328" y="870" type="line" smooth="yes"/>
      <point x="310" y="870"/>
      <point x="295" y="859"/>
      <point x="290" y="843" type="curve" smooth="yes"/>
      <point x="267" y="775" type="line" smooth="yes"/>
      <point x="257" y="748"/>
      <point x="270" y="727"/>
      <point x="299" y="723" type="curve" smooth="yes"/>
    </contour>
  </outline>
</glyph>
<glyph name="Ocircumflex" format="2">
  <advance width="715"/>
  <unicode hex="00D4"/>
  <outline>
    <contour>
      <point x="341" y="708" type="curve" smooth="yes"/>
      <point x="152" y="699"/>
      <point x="4" y="543"/>
      <point x="13" y="331" type="curve" smooth="yes"/>
      <point x="22" y="119"/>
      <point x="183" y="-24"/>
      <point x="373" y="-16" type="curve" smooth="yes"/>
      <point x="562" y="-7"/>
      <point x="710" y="149"/>
      <point x="701" y="361" type="curve" smooth="yes"/>
      <point x="692" y="573"/>
      <point x="531" y="716"/>
    </contour>
    <contour>
      <point x="364" y="152" type="curve" smooth="yes"/>
      <point x="295" y="149"/>
      <point x="235" y="230"/>
      <point x="230" y="346" type="curve" smooth="yes"/>
      <point x="225" y="463"/>
      <point x="278" y="549"/>
      <point x="347" y="552" type="curve" smooth="yes"/>
      <point x="417" y="555"/>
      <point x="477" y="474"/>
      <point x="482" y="357" type="curve" smooth="yes"/>
      <point x="487" y="240"/>
      <point x="434" y="155"/>
    </contour>
    <contour>
      <point x="386" y="740" type="line"/>
      <point x="395" y="725"/>
      <point x="412" y="716"/>
      <point x="429" y="719" type="curve" smooth="yes"/>
      <point x="461" y="725" type="line" smooth="yes"/>
      <point x="494" y="731"/>
      <point x="505" y="755"/>
      <point x="488" y="784" type="curve" smooth="yes"/>
      <point x="451" y="848" type="line" smooth="yes"/>
      <point x="445" y="858"/>
      <point x="433" y="866"/>
      <point x="421" y="867" type="curve" smooth="yes"/>
      <point x="319" y="878" type="line" smooth="yes"/>
      <point x="305" y="880"/>
      <point x="291" y="873"/>
      <point x="282" y="862" type="curve"/>
      <point x="229" y="789" type="line" smooth="yes"/>
      <point x="210" y="762"/>
      <point x="218" y="739"/>
      <point x="249" y="731" type="curve" smooth="yes"/>
      <point x="278" y="723" type="line" smooth="yes"/>
      <point x="292" y="719"/>
      <point x="308" y="724"/>
      <point x="317" y="734" type="curve"/>
      <point x="365" y="782" type="line"/>
    </contour>
  </outline>
</glyph>
<glyph name="Otilde" format="2">
  <advance width="715"/>
  <unicode hex="00D5"/>
  <outline>
    <contour>
      <point x="341" y="708" type="curve" smooth="yes"/>
      <point x="152" y="699"/>
      <point x="4" y="543"/>
      <point x="13" y="331" type="curve" smooth="yes"/>
      <point x="22" y="119"/>
      <point x="183" y="-24"/>
      <point x="373" y="-16" type="curve" smooth="yes"/>
      <point x="562" y="-7"/>
      <point x="710" y="149"/>
      <point x="701" y="361" type="curve" smooth="yes"/>
      <point x="692" y="573"/>
      <point x="531" y="716"/>
    </contour>
    <contour>
      <point x="364" y="152" type="curve" smooth="yes"/>
      <point x="295" y="149"/>
      <point x="235" y="230"/>
      <point x="230" y="346" type="curve" smooth="yes"/>
      <point x="225" y="463"/>
      <point x="278" y="549"/>
      <point x="347" y="552" type="curve" smooth="yes"/>
      <point x="417" y="555"/>
      <point x="477" y="474"/>
      <point x="482" y="357" type="curve" smooth="yes"/>
      <point x="487" y="240"/>
      <point x="434" y="155"/>
    </contour>
    <contour>
      <point x="425" y="718" type="curve" smooth="yes"/>
      <point x="365" y="718"/>
      <point x="347" y="754"/>
      <point x="307" y="754" type="curve" smooth="yes"/>
      <point x="277" y="754"/>
      <point x="279" y="723"/>
      <point x="257" y="723" type="curve" smooth="yes"/>
      <point x="173" y="723" type="line" smooth="yes"/>
      <point x="168" y="723"/>
      <point x="164" y="725"/>
      <point x="160" y="729" type="curve"/>
      <point x="156" y="732"/>
      <point x="154" y="736"/>
      <point x="154" y="741" type="curve" smooth="yes"/>
      <point x="154" y="786"/>
      <point x="181" y="898"/>
      <point x="290" y="898" type="curve" smooth="yes"/>
      <point x="350" y="898"/>
      <point x="370" y="862"/>
      <point x="408" y="862" type="curve" smooth="yes"/>
      <point x="438" y="862"/>
      <point x="436" y="893"/>
      <point x="458" y="893" type="curve" smooth="yes"/>
      <point x="542" y="893" type="line" smooth="yes"/>
      <point x="548" y="893"/>
      <point x="553" y="891"/>
      <point x="556" y="888" type="curve"/>
      <point x="559" y="884"/>
      <point x="561" y="879"/>
      <point x="561" y="874" type="curve" smooth="yes"/>
      <point x="561" y="829"/>
      <point x="534" y="718"/>
    </contour>
  </outline>
</glyph>
<glyph name="Odieresis" format="2">
  <advance width="715"/>
  <unicode hex="00D6"/>
  <outline>
    <contour>
      <point x="341" y="708" type="curve" smooth="yes"/>
      <point x="152" y="699"/>
      <point x="4" y="543"/>
      <point x="13" y="331" type="curve" smooth="yes"/>
      <point x="22" y="119"/>
      <point x="183" y="-24"/>
      <point x="373" y="-16" type="curve" smooth="yes"/>
      <point x="562" y="-7"/>
      <point x="710" y="149"/>
      <point x="701" y="361" type="curve" smooth="yes"/>
      <point x="692" y="573"/>
      <point x="531" y="716"/>
    </contour>
    <contour>
      <point x="364" y="152" type="curve" smooth="yes"/>
      <point x="295" y="149"/>
      <point x="235" y="230"/>
      <point x="230" y="346" type="curve" smooth="yes"/>
      <point x="225" y="463"/>
      <point x="278" y="549"/>
      <point x="347" y="552" type="curve" smooth="yes"/>
      <point x="417" y="555"/>
      <point x="477" y="474"/>
      <point x="482" y="357" type="curve" smooth="yes"/>
      <point x="487" y="240"/>
      <point x="434" y="155"/>
    </contour>
    <contour>
      <point x="402" y="766" type="line" smooth="yes"/>
      <point x="401" y="745"/>
      <point x="415" y="728"/>
      <point x="437" y="725" type="curve" smooth="yes"/>
      <point x="483" y="719" type="line" smooth="yes"/>
      <point x="508" y="716"/>
      <point x="526" y="730"/>
      <point x="528" y="755" type="curve" smooth="yes"/>
      <point x="533" y="798" type="line" smooth="yes"/>
      <point x="535" y="821"/>
      <point x="521" y="839"/>
      <point x="498" y="842" type="curve" smooth="yes"/>
      <point x="449" y="848" type="line" smooth="yes"/>
      <point x="422" y="852"/>
      <point x="404" y="836"/>
      <point x="404" y="810" type="curve" smooth="yes"/>
    </contour>
    <contour>
      <point x="189" y="758" type="line" smooth="yes"/>
      <point x="193" y="736"/>
      <point x="210" y="723"/>
      <point x="232" y="724" type="curve" smooth="yes"/>
      <point x="283" y="728" type="line" smooth="yes"/>
      <point x="304" y="729"/>
      <point x="318" y="743"/>
      <point x="321" y="764" type="curve"/>
      <point x="325" y="808" type="line" smooth="yes"/>
      <point x="328" y="835"/>
      <point x="312" y="853"/>
      <point x="285" y="852" type="curve"/>
      <point x="221" y="852" type="line"/>
      <point x="193" y="851"/>
      <point x="178" y="833"/>
      <point x="182" y="805" type="curve" smooth="yes"/>
    </contour>
  </outline>
</glyph>
<glyph name="multiply" format="2">
  <advance width="372"/>
  <unicode hex="00D7"/>
  <outline>
    <contour>
      <point x="268" y="313" type="line"/>
      <point x="334" y="380" type="line"/>
      <point x="254" y="473" type="line"/>
      <point x="180" y="397" type="line"/>
      <point x="110" y="465" type="line"/>
      <point x="26" y="394" type="line"/>
      <point x="106" y="320" type="line"/>
      <point x="26" y="238" type="line"/>
      <point x="118" y="160" type="line"/>
      <point x="194" y="238" type="line"/>
      <point x="277" y="160" type="line"/>
      <point x="346" y="238" type="line"/>
    </contour>
  </outline>
</glyph>
<glyph name="Ugrave" format="2">
  <advance width="656"/>
  <unicode hex="00D9"/>
  <outline>
    <contour>
      <point x="414" y="656" type="curve"/>
      <point x="414" y="656"/>
      <point x="427" y="474"/>
      <point x="426" y="334" type="curve" smooth="yes"/>
      <point x="425" y="195"/>
      <point x="399" y="172"/>
      <point x="338" y="166" type="curve" smooth="yes"/>
      <point x="277" y="161"/>
      <point x="254" y="188"/>
      <point x="250" y="288" type="curve" smooth="yes"/>
      <point x="245" y="388"/>
      <point x="255" y="664"/>
      <point x="255" y="664" type="curve"/>
      <point x="255" y="664"/>
      <point x="232" y="686"/>
      <point x="42" y="682" type="curve"/>
      <point x="42" y="682"/>
      <point x="25" y="435"/>
      <point x="31" y="226" type="curve" smooth="yes"/>
      <point x="38" y="17"/>
      <point x="203" y="-41"/>
      <point x="356" y="-35" type="curve" smooth="yes"/>
      <point x="508" y="-29"/>
      <point x="629" y="44"/>
      <point x="626" y="255" type="curve" smooth="yes"/>
      <point x="624" y="465"/>
      <point x="607" y="682"/>
      <point x="607" y="682" type="curve"/>
      <point x="607" y="682"/>
      <point x="542" y="697"/>
    </contour>
    <contour>
      <point x="360" y="695" type="curve" smooth="yes"/>
      <point x="387" y="699" type="line" smooth="yes"/>
      <point x="415" y="703"/>
      <point x="428" y="724"/>
      <point x="419" y="751" type="curve" smooth="yes"/>
      <point x="396" y="819" type="line" smooth="yes"/>
      <point x="391" y="835"/>
      <point x="375" y="846"/>
      <point x="358" y="846" type="curve" smooth="yes"/>
      <point x="286" y="846" type="line" smooth="yes"/>
      <point x="230" y="846"/>
      <point x="219" y="819"/>
      <point x="257" y="778" type="curve" smooth="yes"/>
      <point x="325" y="707" type="line" smooth="yes"/>
      <point x="333" y="698"/>
      <point x="347" y="693"/>
    </contour>
  </outline>
</glyph>
<glyph name="Uacute" format="2">
  <advance width="656"/>
  <unicode hex="00DA"/>
  <outline>
    <contour>
      <point x="414" y="656" type="curve"/>
      <point x="414" y="656"/>
      <point x="427" y="474"/>
      <point x="426" y="334" type="curve" smooth="yes"/>
      <point x="425" y="195"/>
      <point x="399" y="172"/>
      <point x="338" y="166" type="curve" smooth="yes"/>
      <point x="277" y="161"/>
      <point x="254" y="188"/>
      <point x="250" y="288" type="curve" smooth="yes"/>
      <point x="245" y="388"/>
      <point x="255" y="664"/>
      <point x="255" y="664" type="curve"/>
      <point x="255" y="664"/>
      <point x="232" y="686"/>
      <point x="42" y="682" type="curve"/>
      <point x="42" y="682"/>
      <point x="25" y="435"/>
      <point x="31" y="226" type="curve" smooth="yes"/>
      <point x="38" y="17"/>
      <point x="203" y="-41"/>
      <point x="356" y="-35" type="curve" smooth="yes"/>
      <point x="508" y="-29"/>
      <point x="629" y="44"/>
      <point x="626" y="255" type="curve" smooth="yes"/>
      <point x="624" y="465"/>
      <point x="607" y="682"/>
      <point x="607" y="682" type="curve"/>
      <point x="607" y="682"/>
      <point x="542" y="697"/>
    </contour>
    <contour>
      <point x="296" y="695" type="line" smooth="yes"/>
      <point x="309" y="693"/>
      <point x="323" y="698"/>
      <point x="331" y="707" type="curve" smooth="yes"/>
      <point x="399" y="778" type="line" smooth="yes"/>
      <point x="437" y="819"/>
      <point x="426" y="846"/>
      <point x="370" y="846" type="curve" smooth="yes"/>
      <point x="299" y="846" type="line" smooth="yes"/>
      <point x="281" y="846"/>
      <point x="266" y="835"/>
      <point x="261" y="819" type="curve" smooth="yes"/>
      <point x="238" y="751" type="line" smooth="yes"/>
      <point x="228" y="724"/>
      <point x="241" y="703"/>
      <point x="270" y="699" type="curve" smooth="yes"/>
    </contour>
  </outline>
</glyph>
